OakSans-Italic.glyphspackage
{
glyphname = exclam;
kernLeft = tall_punctuation;
layers = (
{
layerId = m01;
shapes = (
{
closed = 1;
nodes = (
(168,193,l),
(253,700,l),
(189,700,l),
(104,193,l)
);
},
{
closed = 1;
nodes = (
(129,-14,o),
(151,5,o),
(155,28,cs),
(159,55,o),
(140,78,o),
(113,78,cs),
(90,78,o),
(68,59,o),
(64,36,cs),
(60,9,o),
(79,-14,o),
(106,-14,cs)
);
}
);
width = 292;
},
{
layerId = "AEB41AA6-A430-455D-A6E9-A3012AD74722";
shapes = (
{
closed = 1;
nodes = (
(248,251,l),
(339,700,l),
(139,700,l),
(78,251,l)
);
},
{
closed = 1;
nodes = (
(181,-16,o),
(228,26,o),
(237,76,cs),
(247,138,o),
(203,190,o),
(141,190,cs),
(91,190,o),
(43,148,o),
(35,98,cs),
(24,36,o),
(69,-16,o),
(131,-16,cs)
);
}
);
width = 326;
}
);
metricLeft = I;
metricRight = I;
unicode = 33;
}
{
glyphname = numbersign;
layers = (
{
layerId = m01;
shapes = (
{
closed = 1;
nodes = (
(359,0,l),
(587,700,l),
(534,700,l),
(307,0,l)
);
},
{
closed = 1;
nodes = (
(565,200,l),
(578,242,l),
(15,242,l),
(2,200,l)
);
},
{
closed = 1;
nodes = (
(129,0,l),
(357,700,l),
(304,700,l),
(77,0,l)
);
},
{
closed = 1;
nodes = (
(648,458,l),
(661,500,l),
(99,500,l),
(86,458,l)
);
}
);
width = 629;
},
{
layerId = "AEB41AA6-A430-455D-A6E9-A3012AD74722";
shapes = (
{
closed = 1;
nodes = (
(389,0,l),
(616,700,l),
(487,700,l),
(260,0,l)
);
},
{
closed = 1;
nodes = (
(559,169,l),
(598,295,l),
(35,295,l),
(-4,169,l)
);
},
{
closed = 1;
nodes = (
(184,0,l),
(411,700,l),
(282,700,l),
(55,0,l)
);
},
{
closed = 1;
nodes = (
(622,373,l),
(666,500,l),
(102,500,l),
(58,373,l)
);
}
);
width = 634;
}
);
unicode = 35;
}
{
glyphname = dollar;
layers = (
{
layerId = m01;
name = "Light Italic";
shapes = (
{
closed = 1;
nodes = (
(403,23,o),
(487,102,o),
(503,196,cs),
(516,273,o),
(457,351,o),
(336,380,cs),
(273,395,ls),
(213,409,o),
(177,438,o),
(188,501,cs),
(200,572,o),
(264,619,o),
(351,619,cs),
(430,619,o),
(484,583,o),
(499,520,c),
(558,539,l),
(549,601,o),
(487,677,o),
(362,677,cs),
(225,677,o),
(143,612,o),
(124,502,cs),
(108,406,o),
(172,355,o),
(253,333,cs),
(313,317,ls),
(397,295,o),
(449,259,o),
(439,197,cs),
(428,128,o),
(356,81,o),
(247,81,cs),
(164,81,o),
(111,126,o),
(99,181,c),
(41,163,l),
(54,92,o),
(116,23,o),
(260,23,cs)
);
},
{
closed = 1;
nodes = (
(265,-103,l),
(413,780,l),
(354,780,l),
(206,-103,l)
);
}
);
visible = 1;
width = 566;
},
{
layerId = "AEB41AA6-A430-455D-A6E9-A3012AD74722";
name = "Black Italic";
shapes = (
{
closed = 1;
nodes = (
(394,24,o),
(488,89,o),
(508,207,cs),
(524,303,o),
(474,382,o),
(382,407,cs),
(291,432,ls),
(259,441,o),
(249,453,o),
(252,469,cs),
(258,509,o),
(291,533,o),
(338,533,cs),
(374,533,o),
(390,507,o),
(392,484,c),
(559,521,l),
(534,628,o),
(461,676,o),
(337,676,cs),
(195,676,o),
(104,608,o),
(84,491,cs),
(68,390,o),
(117,318,o),
(211,293,cs),
(303,269,ls),
(333,261,o),
(339,244,o),
(337,230,cs),
(330,192,o),
(289,166,o),
(250,167,cs),
(213,169,o),
(195,188,o),
(190,218,c),
(20,182,l),
(20,100,o),
(128,24,o),
(252,24,cs)
);
},
{
closed = 1;
nodes = (
(294,-103,l),
(442,780,l),
(298,780,l),
(150,-103,l)
);
}
);
visible = 1;
width = 546;
},
{
associatedMasterId = m01;
attr = {
axisRules = (
{
min = 550;
}
);
};
layerId = "2DCF5173-72B5-4147-9468-977C8CF734F6";
name = "21 Oct 22 at 16:07";
shapes = (
{
closed = 1;
nodes = (
(403,23,o),
(487,102,o),
(503,196,cs),
(516,273,o),
(457,351,o),
(336,380,cs),
(273,395,ls),
(213,410,o),
(177,438,o),
(188,501,cs),
(200,572,o),
(264,619,o),
(351,619,cs),
(430,619,o),
(484,583,o),
(499,520,c),
(558,539,l),
(549,601,o),
(487,677,o),
(362,677,cs),
(225,677,o),
(143,612,o),
(124,502,cs),
(108,406,o),
(172,355,o),
(253,333,cs),
(313,317,ls),
(397,295,o),
(449,259,o),
(439,197,cs),
(428,128,o),
(356,81,o),
(247,81,cs),
(164,81,o),
(111,126,o),
(99,181,c),
(41,163,l),
(54,92,o),
(116,23,o),
(260,23,cs)
);
},
{
closed = 1;
nodes = (
(265,-103,l),
(288,37,l),
(229,37,l),
(206,-103,l)
);
},
{
closed = 1;
nodes = (
(389,640,l),
(413,780,l),
(354,780,l),
(330,640,l)
);
}
);
width = 566;
},
{
associatedMasterId = "AEB41AA6-A430-455D-A6E9-A3012AD74722";
attr = {
axisRules = (
{
min = 550;
}
);
};
layerId = "0C474775-8EC1-4EF6-BEE0-7AAA3AD93A5E";
name = "21 Oct 22 at 16:07";
shapes = (
{
closed = 1;
nodes = (
(394,24,o),
(488,89,o),
(508,207,cs),
(524,303,o),
(474,382,o),
(382,407,cs),
(291,432,ls),
(259,441,o),
(249,453,o),
(252,469,cs),
(258,509,o),
(291,533,o),
(338,533,cs),
(374,533,o),
(390,507,o),
(392,484,c),
(559,521,l),
(534,628,o),
(461,676,o),
(337,676,cs),
(195,676,o),
(104,608,o),
(84,491,cs),
(68,390,o),
(117,318,o),
(211,293,cs),
(303,269,ls),
(333,261,o),
(339,244,o),
(337,230,cs),
(330,192,o),
(289,166,o),
(250,167,cs),
(213,169,o),
(195,188,o),
(190,218,c),
(20,182,l),
(20,100,o),
(128,24,o),
(252,24,cs)
);
},
{
closed = 1;
nodes = (
(294,-103,l),
(327,94,l),
(183,94,l),
(150,-103,l)
);
},
{
closed = 1;
nodes = (
(409,583,l),
(442,780,l),
(298,780,l),
(265,583,l)
);
}
);
width = 546;
}
);
metricLeft = S;
metricRight = S;
unicode = 36;
}
{
glyphname = percent;
layers = (
{
background = {
shapes = (
{
closed = 1;
nodes = (
(108,0,l),
(172,0,l),
(172,700,l),
(108,700,l)
);
},
{
closed = 1;
nodes = (
(596,0,l),
(660,0,l),
(660,700,l),
(596,700,l)
);
},
{
closed = 1;
nodes = (
(172,332,l),
(596,332,l),
(596,390,l),
(172,390,l)
);
}
);
};
layerId = m01;
shapes = (
{
closed = 1;
nodes = (
(134,0,l),
(751,700,l),
(672,700,l),
(57,0,l)
);
},
{
closed = 1;
nodes = (
(318,390,o),
(391,456,o),
(406,549,cs),
(422,646,o),
(369,716,o),
(277,716,cs),
(189,716,o),
(117,650,o),
(101,557,cs),
(85,460,o),
(138,390,o),
(230,390,cs)
);
},
{
closed = 1;
nodes = (
(179,444,o),
(150,488,o),
(160,549,cs),
(171,614,o),
(220,661,o),
(276,661,cs),
(328,661,o),
(358,618,o),
(347,557,cs),
(336,492,o),
(287,444,o),
(231,444,cs)
);
},
{
closed = 1;
nodes = (
(619,-16,o),
(692,50,o),
(707,143,cs),
(723,240,o),
(670,310,o),
(578,310,cs),
(490,310,o),
(418,244,o),
(402,151,cs),
(386,54,o),
(439,-16,o),
(531,-16,cs)
);
},
{
closed = 1;
nodes = (
(481,38,o),
(451,82,o),
(461,143,cs),
(472,208,o),
(521,256,o),
(577,256,cs),
(629,256,o),
(659,212,o),
(648,151,cs),
(638,86,o),
(589,38,o),
(533,38,cs)
);
}
);
width = 775;
},
{
background = {
shapes = (
{
closed = 1;
nodes = (
(100,0,l),
(290,-1,l),
(290,699,l),
(100,700,l)
);
},
{
closed = 1;
nodes = (
(538,0,l),
(728,0,l),
(728,700,l),
(538,700,l)
);
},
{
closed = 1;
nodes = (
(227,276,l),
(651,276,l),
(651,446,l),
(227,446,l)
);
}
);
};
layerId = "AEB41AA6-A430-455D-A6E9-A3012AD74722";
shapes = (
{
closed = 1;
nodes = (
(208,0,l),
(825,700,l),
(652,700,l),
(38,0,l)
);
},
{
closed = 1;
nodes = (
(326,352,o),
(401,422,o),
(418,521,cs),
(437,632,o),
(374,712,o),
(269,712,cs),
(176,712,o),
(100,642,o),
(84,543,cs),
(65,432,o),
(128,352,o),
(233,352,cs)
);
},
{
closed = 1;
nodes = (
(201,463,o),
(190,488,o),
(196,521,cs),
(203,566,o),
(237,601,o),
(275,601,cs),
(301,601,o),
(311,576,o),
(306,543,cs),
(298,498,o),
(265,463,o),
(227,463,cs)
);
},
{
closed = 1;
nodes = (
(694,-12,o),
(769,58,o),
(786,157,cs),
(804,268,o),
(742,348,o),
(637,348,cs),
(544,348,o),
(468,278,o),
(452,179,cs),
(433,68,o),
(496,-12,o),
(601,-12,cs)
);
},
{
closed = 1;
nodes = (
(569,99,o),
(558,124,o),
(564,157,cs),
(571,202,o),
(604,237,o),
(643,237,cs),
(668,237,o),
(679,212,o),
(674,179,cs),
(666,134,o),
(633,99,o),
(595,99,cs)
);
}
);
width = 837;
}
);
unicode = 37;
}
{
glyphname = ampersand;
layers = (
{
guides = (
{
angle = 129.651;
pos = (557,-15);
},
{
angle = 129.651;
pos = (640,-15);
},
{
angle = 34.651;
pos = (23,252);
},
{
angle = 34.651;
pos = (34,186);
}
);
layerId = m01;
shapes = (
{
closed = 1;
nodes = (
(406,-15,o),
(558,120,o),
(589,309,c),
(526,309,l),
(500,153,o),
(373,43,o),
(222,43,cs),
(144,43,o),
(98,92,o),
(110,163,cs),
(123,244,o),
(182,283,o),
(239,318,cs),
(322,369,ls),
(409,423,o),
(488,482,o),
(501,559,cs),
(516,652,o),
(452,715,o),
(356,715,cs),
(270,715,o),
(192,652,o),
(178,569,cs),
(168,509,o),
(199,463,o),
(233,411,c),
(324,274,l),
(504,0,l),
(584,0,l),
(383,306,l),
(287,448,ls),
(256,494,o),
(234,521,o),
(241,561,cs),
(250,614,o),
(301,657,o),
(354,657,cs),
(406,657,o),
(439,629,o),
(439,584,cs),
(439,527,o),
(379,474,o),
(293,421,cs),
(209,369,ls),
(130,320,o),
(62,263,o),
(47,171,cs),
(29,62,o),
(102,-15,o),
(221,-15,cs)
);
}
);
width = 642;
},
{
background = {
backgroundImage = {
imagePath = "/Desktop/Screen Shot 2021-05-24 at 9.37.48 AM.png";
pos = (20,-37);
scale = (4.9751,4.9751);
};
};
guides = (
{
angle = 129.651;
pos = (477,-15);
},
{
angle = 129.651;
pos = (679,-15);
},
{
angle = 34.651;
pos = (0,255);
},
{
angle = 34.651;
pos = (-1,75);
}
);
layerId = "AEB41AA6-A430-455D-A6E9-A3012AD74722";
shapes = (
{
closed = 1;
nodes = (
(439,-12,o),
(614,111,o),
(644,292,c),
(484,302,l),
(465,188,o),
(327,136,o),
(232,136,cs),
(209,136,o),
(197,151,o),
(201,173,cs),
(206,200,o),
(225,227,o),
(247,241,cs),
(326,289,ls),
(482,387,o),
(547,441,o),
(560,519,cs),
(579,632,o),
(492,712,o),
(352,712,cs),
(237,712,o),
(137,644,o),
(121,548,cs),
(113,503,o),
(124,465,o),
(175,384,c),
(301,188,l),
(425,0,l),
(623,0,l),
(428,290,l),
(313,456,l),
(300,483,o),
(283,501,o),
(287,524,cs),
(292,555,o),
(325,575,o),
(364,575,cs),
(386,575,o),
(402,566,o),
(402,547,cs),
(402,513,o),
(366,486,o),
(324,461,cs),
(134,345,ls),
(71,305,o),
(29,245,o),
(20,190,cs),
(0,72,o),
(83,-12,o),
(217,-12,cs)
);
}
);
width = 649;
}
);
metricLeft = eight;
unicode = 38;
}
{
glyphname = quotesingle;
kernLeft = tall_punctuation;
layers = (
{
layerId = m01;
shapes = (
{
closed = 1;
nodes = (
(157,490,l),
(200,716,l),
(138,716,l),
(105,490,l)
);
}
);
width = 182;
},
{
layerId = "AEB41AA6-A430-455D-A6E9-A3012AD74722";
shapes = (
{
closed = 1;
nodes = (
(239,440,l),
(305,716,l),
(138,716,l),
(112,440,l)
);
}
);
width = 287;
}
);
unicode = 39;
}
{
glyphname = parenleft;
layers = (
{
layerId = m01;
shapes = (
{
closed = 1;
nodes = (
(230,-101,l),
(159,28,o),
(113,183,o),
(140,346,cs),
(168,513,o),
(268,670,o),
(383,799,c),
(317,801,l),
(204,679,o),
(106,525,o),
(77,354,cs),
(48,179,o),
(96,23,o),
(169,-99,c)
);
}
);
width = 341;
},
{
layerId = "AEB41AA6-A430-455D-A6E9-A3012AD74722";
shapes = (
{
closed = 1;
nodes = (
(314,-100,l),
(245,27,o),
(202,181,o),
(229,339,cs),
(258,511,o),
(362,669,o),
(478,800,c),
(291,800,l),
(178,678,o),
(87,528,o),
(59,361,cs),
(28,181,o),
(80,23,o),
(154,-100,c)
);
}
);
width = 416;
}
);
unicode = 40;
}
{
glyphname = asterisk;
kernLeft = tall_punctuation;
layers = (
{
layerId = m01;
shapes = (
{
closed = 1;
nodes = (
(314,548,l),
(348,716,l),
(288,716,l),
(266,548,l)
);
},
{
closed = 1;
nodes = (
(462,571,l),
(453,628,l),
(287,571,l),
(294,525,l)
);
},
{
closed = 1;
nodes = (
(397,432,l),
(315,565,l),
(272,537,l),
(344,397,l)
);
},
{
closed = 1;
nodes = (
(308,533,l),
(272,562,l),
(147,430,l),
(191,394,l)
);
},
{
closed = 1;
nodes = (
(302,572,l),
(153,630,l),
(124,572,l),
(279,526,l)
);
}
);
width = 478;
},
{
layerId = "AEB41AA6-A430-455D-A6E9-A3012AD74722";
shapes = (
{
closed = 1;
nodes = (
(334,518,l),
(388,716,l),
(268,716,l),
(254,518,l)
);
},
{
closed = 1;
nodes = (
(500,522,l),
(481,636,l),
(289,556,l),
(301,480,l)
);
},
{
closed = 1;
nodes = (
(438,395,l),
(326,543,l),
(259,496,l),
(333,324,l)
);
},
{
closed = 1;
nodes = (
(324,495,l),
(262,542,l),
(108,393,l),
(198,323,l)
);
},
{
closed = 1;
nodes = (
(313,556,l),
(141,636,l),
(86,522,l),
(277,480,l)
);
}
);
width = 494;
}
);
unicode = 42;
}
{
glyphname = plus;
layers = (
{
layerId = m01;
shapes = (
{
closed = 1;
nodes = (
(309,73,l),
(385,523,l),
(328,523,l),
(252,73,l)
);
},
{
closed = 1;
nodes = (
(538,269,l),
(548,326,l),
(98,326,l),
(88,269,l)
);
}
);
width = 620;
},
{
layerId = "AEB41AA6-A430-455D-A6E9-A3012AD74722";
shapes = (
{
closed = 1;
nodes = (
(359,63,l),
(437,533,l),
(297,533,l),
(219,63,l)
);
},
{
closed = 1;
nodes = (
(551,228,l),
(575,368,l),
(105,368,l),
(81,228,l)
);
}
);
width = 640;
}
);
unicode = 43;
}
{
glyphname = comma;
layers = (
{
layerId = m01;
shapes = (
{
closed = 1;
nodes = (
(40,-116,l),
(144,86,l),
(72,86,l),
(-17,-116,l)
);
}
);
width = 214;
},
{
layerId = "AEB41AA6-A430-455D-A6E9-A3012AD74722";
shapes = (
{
closed = 1;
nodes = (
(90,-113,l),
(250,146,l),
(66,146,l),
(-43,-113,l)
);
}
);
width = 289;
}
);
unicode = 44;
}
{
glyphname = hyphen;
layers = (
{
layerId = m01;
shapes = (
{
closed = 1;
nodes = (
(363,269,l),
(373,326,l),
(73,326,l),
(63,269,l)
);
}
);
width = 420;
},
{
layerId = "AEB41AA6-A430-455D-A6E9-A3012AD74722";
shapes = (
{
closed = 1;
nodes = (
(345,223,l),
(371,373,l),
(71,373,l),
(45,223,l)
);
}
);
width = 400;
}
);
unicode = 45;
}
{
glyphname = period;
layers = (
{
layerId = m01;
shapes = (
{
closed = 1;
nodes = (
(79,-14,o),
(101,5,o),
(105,28,cs),
(109,55,o),
(90,78,o),
(63,78,cs),
(40,78,o),
(18,59,o),
(14,36,cs),
(10,9,o),
(29,-14,o),
(56,-14,cs)
);
}
);
width = 192;
},
{
layerId = "AEB41AA6-A430-455D-A6E9-A3012AD74722";
shapes = (
{
closed = 1;
nodes = (
(161,-15,o),
(209,27,o),
(217,77,cs),
(227,139,o),
(183,191,o),
(121,191,cs),
(71,191,o),
(23,149,o),
(15,99,cs),
(4,37,o),
(49,-15,o),
(111,-15,cs)
);
}
);
width = 286;
}
);
unicode = 46;
}
{
glyphname = slash;
layers = (
{
layerId = m01;
shapes = (
{
closed = 1;
nodes = (
(28,-84,l),
(441,747,l),
(374,747,l),
(-41,-84,l)
);
}
);
width = 373;
},
{
layerId = "AEB41AA6-A430-455D-A6E9-A3012AD74722";
shapes = (
{
closed = 1;
nodes = (
(131,-84,l),
(544,747,l),
(374,747,l),
(-41,-84,l)
);
}
);
width = 476;
}
);
unicode = 47;
}
{
glyphname = zero;
layers = (
{
background = {
shapes = (
{
closed = 1;
nodes = (
(584,-16,o),
(722,135,o),
(722,350,cs),
(722,564,o),
(584,716,o),
(386,716,cs),
(188,716,o),
(50,565,o),
(50,350,cs),
(50,135,o),
(191,-16,o),
(389,-16,cs)
);
},
{
closed = 1;
nodes = (
(228,42,o),
(114,170,o),
(114,350,cs),
(114,530,o),
(227,658,o),
(386,658,cs),
(545,658,o),
(658,530,o),
(658,350,cs),
(658,170,o),
(547,42,o),
(389,42,cs)
);
}
);
};
layerId = m01;
shapes = (
{
closed = 1;
nodes = (
(435,-12,o),
(569,136,o),
(604,346,cs),
(640,560,o),
(552,712,o),
(392,712,cs),
(236,712,o),
(103,564,o),
(67,354,cs),
(32,140,o),
(119,-12,o),
(279,-12,cs)
);
},
{
closed = 1;
nodes = (
(163,46,o),
(101,170,o),
(130,346,cs),
(160,526,o),
(269,654,o),
(391,654,cs),
(509,654,o),
(571,530,o),
(541,354,cs),
(511,174,o),
(403,46,o),
(281,46,cs)
);
}
);
width = 638;
},
{
background = {
shapes = (
{
closed = 1;
nodes = (
(484,-12,o),
(628,133,o),
(663,339,cs),
(699,557,o),
(593,712,o),
(408,712,cs),
(238,712,o),
(96,567,o),
(62,361,cs),
(25,143,o),
(130,-12,o),
(313,-12,cs)
);
},
{
closed = 1;
nodes = (
(252,156,o),
(220,231,o),
(238,339,cs),
(258,460,o),
(329,546,o),
(405,546,cs),
(472,546,o),
(505,470,o),
(487,361,cs),
(467,241,o),
(395,156,o),
(317,156,cs)
);
}
);
};
layerId = "AEB41AA6-A430-455D-A6E9-A3012AD74722";
shapes = (
{
closed = 1;
nodes = (
(476,-12,o),
(613,133,o),
(645,325,cs),
(680,538,o),
(575,712,o),
(378,712,cs),
(215,712,o),
(79,576,o),
(46,375,cs),
(11,161,o),
(115,-12,o),
(316,-12,cs)
);
},
{
closed = 1;
nodes = (
(243,163,o),
(205,247,o),
(224,360,cs),
(242,471,o),
(302,546,o),
(369,546,cs),
(452,546,o),
(484,443,o),
(467,340,cs),
(450,240,o),
(401,159,o),
(313,157,cs)
);
}
);
width = 657;
},
{
associatedMasterId = "AEB41AA6-A430-455D-A6E9-A3012AD74722";
layerId = "BE5E8306-7BA2-4AC7-9CC2-2EDC14BD4F44";
name = "16 Jun 21, 22:16";
shapes = (
{
closed = 1;
nodes = (
(558,-16,o),
(695,136,o),
(695,350,cs),
(695,564,o),
(557,716,o),
(362,716,cs),
(168,716,o),
(30,564,o),
(30,350,cs),
(30,136,o),
(168,-16,o),
(364,-16,cs)
);
},
{
closed = 1;
nodes = (
(280,164,o),
(220,241,o),
(220,350,cs),
(220,459,o),
(279,536,o),
(362,536,cs),
(446,536,o),
(505,459,o),
(505,350,cs),
(505,241,o),
(447,164,o),
(364,164,cs)
);
}
);
width = 725;
}
);
metricLeft = O;
metricRight = O;
unicode = 48;
}
{
glyphname = one;
layers = (
{
guides = (
{
angle = 80.5;
pos = (83,357);
}
);
layerId = m01;
shapes = (
{
closed = 1;
nodes = (
(246,0,l),
(365,700,l),
(305,700,l),
(295,666,l),
(182,0,l)
);
},
{
closed = 1;
nodes = (
(182,536,o),
(261,588,o),
(338,652,c),
(303,701,l),
(247,646,o),
(160,594,o),
(122,594,c),
(113,536,l)
);
}
);
width = 410;
},
{
guides = (
{
angle = 80.5;
pos = (58,357);
}
);
layerId = "AEB41AA6-A430-455D-A6E9-A3012AD74722";
shapes = (
{
closed = 1;
nodes = (
(314,0,l),
(431,700,l),
(274,700,l),
(239,601,l),
(139,0,l)
);
},
{
closed = 1;
nodes = (
(182,430,o),
(283,496,o),
(378,587,c),
(274,700,l),
(229,655,o),
(154,602,o),
(100,608,c),
(72,442,l)
);
}
);
width = 436;
}
);
metricRight = "=I+20";
unicode = 49;
}
{
glyphname = two;
layers = (
{
layerId = m01;
shapes = (
{
closed = 1;
nodes = (
(100,107,o),
(139,157,o),
(206,202,cs),
(379,319,l),
(464,382,o),
(509,445,o),
(520,511,cs),
(538,625,o),
(464,712,o),
(328,712,cs),
(215,712,o),
(117,636,o),
(80,550,c),
(143,532,l),
(171,594,o),
(241,654,o),
(333,654,cs),
(420,654,o),
(468,593,o),
(456,519,cs),
(447,467,o),
(402,407,o),
(342,367,c),
(161,246,l),
(82,189,o),
(40,126,o),
(28,58,c),
(91,55,l)
);
},
{
closed = 1;
nodes = (
(444,0,l),
(454,58,l),
(77,58,l),
(28,58,l),
(18,0,l)
);
}
);
width = 551;
},
{
background = {
shapes = (
{
closed = 1;
nodes = (
(209,134,o),
(291,188,o),
(354,220,cs),
(416,252,ls),
(511,301,o),
(583,360,o),
(599,459,cs),
(622,595,o),
(536,696,o),
(369,710,cs),
(217,723,o),
(104,634,o),
(69,528,c),
(253,481,l),
(267,516,o),
(300,544,o),
(341,540,cs),
(397,536,o),
(417,509,o),
(411,473,cs),
(404,434,o),
(348,400,o),
(309,380,cs),
(232,341,ls),
(126,287,o),
(39,201,o),
(31,149,c),
(189,16,l)
);
},
{
closed = 1;
nodes = (
(526,0,l),
(553,162,l),
(168,162,l),
(31,149,l),
(4,0,l)
);
}
);
};
layerId = "AEB41AA6-A430-455D-A6E9-A3012AD74722";
shapes = (
{
closed = 1;
nodes = (
(205,125,o),
(294,188,o),
(357,224,cs),
(422,261,ls),
(516,315,o),
(583,379,o),
(598,473,cs),
(622,615,o),
(530,713,o),
(355,713,cs),
(208,713,o),
(100,621,o),
(64,513,c),
(251,472,l),
(266,510,o),
(303,546,o),
(349,546,cs),
(389,546,o),
(413,527,o),
(413,499,cs),
(413,453,o),
(344,409,o),
(302,385,cs),
(223,340,ls),
(116,279,o),
(37,196,o),
(27,135,c),
(187,6,l)
);
},
{
closed = 1;
nodes = (
(526,0,l),
(553,162,l),
(168,162,l),
(27,135,l),
(4,0,l)
);
}
);
width = 598;
},
{
associatedMasterId = "AEB41AA6-A430-455D-A6E9-A3012AD74722";
background = {
shapes = (
{
closed = 1;
nodes = (
(317,411,o),
(346,440,o),
(346,476,cs),
(346,511,o),
(317,540,o),
(282,540,cs),
(246,540,o),
(217,511,o),
(217,476,cs),
(217,440,o),
(246,411,o),
(282,411,cs)
);
}
);
};
layerId = "929CAB2D-CF57-4F54-934C-F0BD16D06C3B";
name = "16 Jun 21, 21:49";
shapes = (
{
closed = 1;
nodes = (
(52,0,l),
(537,0,l),
(537,147,l),
(169,147,l),
(52,160,l)
);
},
{
closed = 1;
nodes = (
(280,148,l),
(431,261,o),
(538,358,o),
(538,462,c),
(538,609,o),
(427,713,o),
(272,713,cs),
(180,713,o),
(80,664,o),
(31,596,c),
(175,484,l),
(208,512,o),
(229,540,o),
(282,540,cs),
(327,540,o),
(348,503,o),
(348,460,c),
(348,409,o),
(259,331,o),
(164,258,c),
(52,160,l),
(162,46,l)
);
}
);
width = 588;
}
);
unicode = 50;
}
{
glyphname = three;
layers = (
{
background = {
shapes = (
{
closed = 1;
nodes = (
(115,584,l),
(139,615,o),
(179,658,o),
(260,658,cs),
(360,658,o),
(425,592,o),
(425,505,cs),
(425,402,o),
(331,347,o),
(189,350,c),
(189,294,l),
(364,294,o),
(489,367,o),
(489,507,cs),
(489,631,o),
(392,716,o),
(264,716,cs),
(169,716,o),
(104,667,o),
(67,624,c)
);
},
{
closed = 1;
nodes = (
(115,21,o),
(176,-15,o),
(262,-15,cs),
(382,-15,o),
(470,67,o),
(470,167,cs),
(470,283,o),
(353,350,o),
(189,350,c),
(189,293,l),
(318,297,o),
(406,249,o),
(406,168,cs),
(406,102,o),
(348,43,o),
(258,43,cs),
(200,43,o),
(155,68,o),
(119,108,c),
(72,73,l)
);
}
);
};
layerId = m01;
shapes = (
{
closed = 1;
nodes = (
(350,-12,o),
(459,70,o),
(479,192,cs),
(503,331,o),
(393,407,o),
(223,407,cs),
(215,407,l),
(206,351,l),
(218,351,ls),
(354,351,o),
(434,301,o),
(417,202,cs),
(402,113,o),
(324,46,o),
(222,46,cs),
(143,46,o),
(111,88,o),
(92,119,c),
(39,81,l),
(70,38,o),
(127,-12,o),
(224,-12,cs)
);
},
{
closed = 1;
nodes = (
(217,351,ls),
(376,351,o),
(498,416,o),
(517,528,cs),
(534,630,o),
(457,712,o),
(335,712,cs),
(253,712,o),
(187,678,o),
(137,628,c),
(177,588,l),
(220,628,o),
(270,654,o),
(330,654,cs),
(418,654,o),
(464,599,o),
(454,535,cs),
(440,454,o),
(347,408,o),
(223,408,cs),
(215,408,l),
(206,351,l)
);
}
);
width = 539;
},
{
background = {
shapes = (
{
closed = 1;
nodes = (
(42,52,o),
(166,-13,o),
(283,-13,cs),
(418,-13,o),
(526,66,o),
(526,185,cs),
(526,321,o),
(374,379,o),
(242,379,cs),
(178,379,l),
(178,272,l),
(242,272,ls),
(318,272,o),
(343,246,o),
(343,205,cs),
(343,170,o),
(316,146,o),
(279,146,cs),
(252,146,o),
(211,157,o),
(201,218,c),
(24,182,l)
);
}
);
};
layerId = "AEB41AA6-A430-455D-A6E9-A3012AD74722";
shapes = (
{
closed = 1;
nodes = (
(377,-12,o),
(503,52,o),
(523,175,cs),
(545,305,o),
(411,395,o),
(260,395,cs),
(212,395,l),
(192,278,l),
(260,278,ls),
(333,278,o),
(347,250,o),
(347,230,cs),
(347,183,o),
(310,147,o),
(249,147,cs),
(195,147,o),
(193,189,o),
(189,212,c),
(9,186,l),
(6,58,o),
(111,-12,o),
(259,-12,cs)
);
},
{
closed = 1;
nodes = (
(260,320,ls),
(392,320,o),
(547,373,o),
(568,503,cs),
(589,628,o),
(489,712,o),
(348,712,cs),
(237,712,o),
(109,652,o),
(69,522,c),
(240,476,l),
(260,537,o),
(300,553,o),
(333,553,cs),
(360,553,o),
(386,530,o),
(385,506,cs),
(383,449,o),
(338,427,o),
(272,427,cs),
(217,427,l),
(199,320,l)
);
}
);
width = 566;
}
);
unicode = 51;
}
{
glyphname = four;
layers = (
{
layerId = m01;
shapes = (
{
closed = 1;
nodes = (
(486,663,l),
(447,700,l),
(47,231,l),
(91,197,l)
);
},
{
closed = 1;
nodes = (
(575,182,l),
(584,241,l),
(93,241,l),
(47,231,l),
(39,182,l)
);
},
{
closed = 1;
nodes = (
(393,0,l),
(510,700,l),
(447,700,l),
(440,654,l),
(330,0,l)
);
}
);
width = 616;
},
{
layerId = "AEB41AA6-A430-455D-A6E9-A3012AD74722";
shapes = (
{
closed = 1;
nodes = (
(477,597,l),
(391,700,l),
(12,257,l),
(137,191,l)
);
},
{
closed = 1;
nodes = (
(592,108,l),
(619,265,l),
(111,265,l),
(12,257,l),
(-13,108,l)
);
},
{
closed = 1;
nodes = (
(471,0,l),
(588,700,l),
(391,700,l),
(400,605,l),
(297,0,l)
);
}
);
width = 646;
}
);
unicode = 52;
}
{
glyphname = five;
layers = (
{
layerId = m01;
shapes = (
{
closed = 1;
nodes = (
(383,-12,o),
(493,78,o),
(515,208,cs),
(537,342,o),
(456,437,o),
(321,437,cs),
(247,437,o),
(159,395,o),
(109,335,c),
(171,335,l),
(264,698,l),
(200,698,l),
(191,642,l),
(556,642,l),
(565,700,l),
(200,700,l),
(109,335,l),
(166,320,l),
(201,354,o),
(264,381,o),
(320,381,cs),
(416,381,o),
(471,315,o),
(454,216,cs),
(437,114,o),
(354,44,o),
(251,44,cs),
(189,44,o),
(133,71,o),
(89,135,c),
(40,98,l),
(82,21,o),
(170,-12,o),
(249,-12,cs)
);
}
);
width = 572;
},
{
background = {
shapes = (
{
closed = 1;
nodes = (
(202,269,o),
(238,304,o),
(283,304,cs),
(327,304,o),
(362,269,o),
(362,225,cs),
(362,183,o),
(327,150,o),
(283,150,cs),
(238,150,o),
(202,183,o),
(202,225,cs)
);
},
{
closed = 0;
nodes = (
(208,187,l),
(30,151,l)
);
}
);
};
guides = (
{
angle = 83;
pos = (44,274);
}
);
layerId = "AEB41AA6-A430-455D-A6E9-A3012AD74722";
shapes = (
{
closed = 1;
nodes = (
(410,-12,o),
(528,85,o),
(552,228,cs),
(573,354,o),
(492,441,o),
(384,444,cs),
(247,448,o),
(160,350,o),
(138,310,c),
(218,283,l),
(356,694,l),
(173,694,l),
(178,532,l),
(561,532,l),
(589,700,l),
(173,700,l),
(57,305,l),
(220,264,l),
(234,284,o),
(263,308,o),
(303,308,cs),
(347,308,o),
(367,276,o),
(361,239,cs),
(352,184,o),
(307,148,o),
(253,148,cs),
(227,148,o),
(201,156,o),
(195,184,c),
(15,158,l),
(26,54,o),
(147,-12,o),
(263,-12,cs)
);
}
);
width = 586;
},
{
associatedMasterId = "AEB41AA6-A430-455D-A6E9-A3012AD74722";
background = {
shapes = (
{
closed = 1;
nodes = (
(314,150,o),
(344,180,o),
(344,217,cs),
(344,253,o),
(314,283,o),
(278,283,cs),
(241,283,o),
(211,253,o),
(211,217,cs),
(211,180,o),
(241,150,o),
(278,150,cs)
);
}
);
};
layerId = "28C4825A-2F02-4BC9-AE4A-319046E5176A";
name = "16 Jun 21, 21:37";
shapes = (
{
closed = 1;
nodes = (
(100,33,o),
(204,-16,o),
(292,-16,cs),
(436,-16,o),
(537,78,o),
(537,210,cs),
(537,343,o),
(438,437,o),
(298,437,cs),
(219,437,o),
(122,382,o),
(63,304,c),
(243,297,l),
(276,694,l),
(88,694,l),
(120,537,l),
(504,537,l),
(504,700,l),
(88,700,l),
(56,305,l),
(219,251,l),
(230,270,o),
(256,283,o),
(281,283,cs),
(318,283,o),
(344,256,o),
(344,217,cs),
(344,178,o),
(318,150,o),
(281,150,cs),
(253,150,o),
(226,166,o),
(216,188,c),
(40,103,l)
);
}
);
width = 567;
}
);
unicode = 53;
}
{
glyphname = six;
layers = (
{
background = {
shapes = (
{
closed = 0;
nodes = (
(65,211,l),
(65,78,o),
(162,-16,o),
(298,-16,cs)
);
}
);
};
layerId = m01;
shapes = (
{
closed = 1;
nodes = (
(419,-12,o),
(527,115,o),
(527,251,cs),
(527,352,o),
(445,437,o),
(325,437,cs),
(228,437,o),
(144,386,o),
(98,302,c),
(110,281,l),
(141,529,o),
(243,654,o),
(393,654,cs),
(439,654,o),
(488,637,o),
(526,606,c),
(570,649,l),
(523,688,o),
(454,712,o),
(384,712,cs),
(232,712,o),
(104,585,o),
(63,338,cs),
(32,152,o),
(60,-12,o),
(258,-12,cs)
);
},
{
closed = 1;
nodes = (
(163,46,o),
(106,112,o),
(122,209,cs),
(139,309,o),
(223,379,o),
(324,379,cs),
(408,379,o),
(463,328,o),
(463,250,cs),
(463,146,o),
(381,46,o),
(260,46,cs)
);
}
);
width = 560;
},
{
layerId = "AEB41AA6-A430-455D-A6E9-A3012AD74722";
shapes = (
{
closed = 1;
nodes = (
(433,-12,o),
(559,94,o),
(559,250,cs),
(559,368,o),
(482,457,o),
(359,457,cs),
(285,457,o),
(222,417,o),
(180,351,c),
(216,322,l),
(242,482,o),
(314,551,o),
(393,551,cs),
(420,551,o),
(467,544,o),
(504,517,c),
(605,647,l),
(551,687,o),
(481,712,o),
(397,712,cs),
(171,712,o),
(72,503,o),
(41,316,cs),
(10,129,o),
(78,-12,o),
(267,-12,cs)
);
},
{
closed = 1;
nodes = (
(238,142,o),
(212,166,o),
(212,200,cs),
(212,264,o),
(255,310,o),
(317,310,cs),
(352,310,o),
(377,285,o),
(377,249,cs),
(377,186,o),
(335,142,o),
(275,142,cs)
);
}
);
width = 593;
}
);
unicode = 54;
}
{
glyphname = seven;
layers = (
{
layerId = m01;
shapes = (
{
closed = 1;
nodes = (
(107,0,l),
(566,642,l),
(515,672,l),
(34,0,l)
);
},
{
closed = 1;
nodes = (
(529,642,l),
(566,642,l),
(575,700,l),
(120,700,l),
(111,642,l)
);
}
);
width = 530;
},
{
layerId = "AEB41AA6-A430-455D-A6E9-A3012AD74722";
shapes = (
{
closed = 1;
nodes = (
(269,0,l),
(597,570,l),
(382,530,l),
(60,0,l)
);
},
{
closed = 1;
nodes = (
(384,530,l),
(597,570,l),
(618,700,l),
(100,700,l),
(72,530,l)
);
}
);
width = 573;
}
);
unicode = 55;
}
{
glyphname = eight;
layers = (
{
layerId = m01;
shapes = (
{
closed = 1;
nodes = (
(410,-12,o),
(524,65,o),
(543,178,cs),
(563,299,o),
(472,384,o),
(325,384,cs),
(182,384,o),
(69,303,o),
(49,186,cs),
(30,69,o),
(120,-12,o),
(267,-12,cs)
);
},
{
closed = 1;
nodes = (
(164,46,o),
(99,101,o),
(113,182,cs),
(127,268,o),
(215,327,o),
(324,327,cs),
(430,327,o),
(495,272,o),
(481,190,cs),
(467,105,o),
(379,46,o),
(269,46,cs)
);
},
{
closed = 1;
nodes = (
(453,337,o),
(555,410,o),
(573,518,cs),
(592,632,o),
(511,712,o),
(380,712,cs),
(253,712,o),
(152,636,o),
(133,526,cs),
(114,414,o),
(195,337,o),
(326,337,cs)
);
},
{
closed = 1;
nodes = (
(238,394,o),
(183,442,o),
(195,513,cs),
(209,596,o),
(286,654,o),
(379,654,cs),
(469,654,o),
(523,600,o),
(509,521,cs),
(497,446,o),
(421,394,o),
(327,394,cs)
);
}
);
width = 615;
},
{
layerId = "AEB41AA6-A430-455D-A6E9-A3012AD74722";
shapes = (
{
closed = 1;
nodes = (
(451,-12,o),
(548,62,o),
(567,171,cs),
(589,304,o),
(507,397,o),
(316,396,cs),
(137,397,o),
(41,314,o),
(20,193,cs),
(0,72,o),
(81,-12,o),
(272,-12,cs)
);
},
{
closed = 1;
nodes = (
(238,140,o),
(210,162,o),
(210,192,cs),
(210,249,o),
(255,290,o),
(318,290,cs),
(358,290,o),
(386,267,o),
(386,234,cs),
(386,179,o),
(341,140,o),
(278,140,cs)
);
},
{
closed = 1;
nodes = (
(491,337,o),
(586,407,o),
(604,511,cs),
(623,629,o),
(541,712,o),
(369,712,cs),
(209,712,o),
(115,639,o),
(97,533,cs),
(78,417,o),
(159,337,o),
(331,337,cs)
);
},
{
closed = 1;
nodes = (
(293,427,o),
(269,447,o),
(269,475,cs),
(269,529,o),
(308,567,o),
(364,567,cs),
(399,567,o),
(424,548,o),
(424,521,cs),
(424,466,o),
(383,427,o),
(326,427,cs)
);
}
);
width = 610;
}
);
unicode = 56;
}
{
glyphname = colon;
layers = (
{
layerId = m01;
shapes = (
{
closed = 1;
nodes = (
(170,410,o),
(192,429,o),
(196,452,cs),
(200,479,o),
(181,502,o),
(154,502,cs),
(131,502,o),
(109,483,o),
(105,460,cs),
(101,433,o),
(120,410,o),
(147,410,cs)
);
},
{
closed = 1;
nodes = (
(103,-2,o),
(125,17,o),
(129,40,cs),
(133,67,o),
(114,90,o),
(87,90,cs),
(64,90,o),
(42,71,o),
(38,48,cs),
(34,21,o),
(53,-2,o),
(80,-2,cs)
);
}
);
width = 234;
},
{
layerId = "AEB41AA6-A430-455D-A6E9-A3012AD74722";
shapes = (
{
closed = 1;
nodes = (
(242,294,o),
(290,336,o),
(299,386,cs),
(309,448,o),
(265,500,o),
(203,500,cs),
(153,500,o),
(105,458,o),
(96,408,cs),
(86,346,o),
(130,294,o),
(193,294,cs)
);
},
{
closed = 1;
nodes = (
(193,-1,o),
(241,41,o),
(249,91,cs),
(260,153,o),
(215,205,o),
(153,205,cs),
(103,205,o),
(56,163,o),
(47,113,cs),
(37,51,o),
(81,-1,o),
(143,-1,cs)
);
}
);
width = 346;
}
);
unicode = 58;
}
{
glyphname = semicolon;
layers = (
{
layerId = m01;
shapes = (
{
closed = 1;
nodes = (
(166,410,o),
(188,429,o),
(192,452,cs),
(196,479,o),
(177,502,o),
(150,502,cs),
(127,502,o),
(105,483,o),
(101,460,cs),
(97,433,o),
(116,410,o),
(143,410,cs)
);
},
{
ref = comma;
}
);
width = 241;
},
{
layerId = "AEB41AA6-A430-455D-A6E9-A3012AD74722";
shapes = (
{
closed = 1;
nodes = (
(243,290,o),
(291,332,o),
(299,382,cs),
(309,444,o),
(265,496,o),
(203,496,cs),
(153,496,o),
(105,454,o),
(97,404,cs),
(86,342,o),
(131,290,o),
(193,290,cs)
);
},
{
pos = (10,0);
ref = comma;
}
);
width = 347;
}
);
metricRight = colon;
unicode = 59;
}
{
glyphname = equal;
layers = (
{
layerId = m01;
shapes = (
{
closed = 1;
nodes = (
(530,369,l),
(539,426,l),
(139,426,l),
(130,369,l)
);
},
{
closed = 1;
nodes = (
(496,169,l),
(506,226,l),
(106,226,l),
(96,169,l)
);
}
);
width = 620;
},
{
layerId = "AEB41AA6-A430-455D-A6E9-A3012AD74722";
shapes = (
{
closed = 1;
nodes = (
(533,328,l),
(556,467,l),
(156,467,l),
(133,328,l)
);
},
{
closed = 1;
nodes = (
(500,128,l),
(523,267,l),
(123,267,l),
(100,128,l)
);
}
);
width = 640;
}
);
unicode = 61;
}
{
glyphname = greater;
layers = (
{
background = {
shapes = (
{
closed = 1;
nodes = (
(150,369,l),
(550,369,l),
(550,426,l),
(150,426,l)
);
},
{
closed = 1;
nodes = (
(150,169,l),
(550,169,l),
(550,226,l),
(150,226,l)
);
},
{
closed = 0;
nodes = (
(150,299,l),
(548,299,l)
);
}
);
};
layerId = m01;
shapes = (
{
closed = 1;
nodes = (
(484,266,l),
(494,330,l),
(138,174,l),
(126,107,l)
);
},
{
closed = 1;
nodes = (
(494,330,l),
(190,487,l),
(180,429,l),
(484,268,l)
);
}
);
width = 620;
},
{
background = {
shapes = (
{
closed = 1;
nodes = (
(120,328,l),
(520,328,l),
(520,467,l),
(120,467,l)
);
},
{
closed = 1;
nodes = (
(120,128,l),
(520,128,l),
(520,267,l),
(120,267,l)
);
}
);
};
guides = (
{
angle = 80.5;
pos = (139,369);
}
);
layerId = "AEB41AA6-A430-455D-A6E9-A3012AD74722";
shapes = (
{
closed = 1;
nodes = (
(519,233,l),
(539,364,l),
(115,227,l),
(87,60,l)
);
},
{
closed = 1;
nodes = (
(540,365,l),
(167,536,l),
(142,388,l),
(519,234,l)
);
}
);
width = 640;
}
);
unicode = 62;
}
{
glyphname = question;
kernLeft = tall_punctuation;
layers = (
{
layerId = m01;
shapes = (
{
closed = 1;
nodes = (
(236,304,ls),
(369,304,o),
(474,385,o),
(494,506,cs),
(514,626,o),
(436,712,o),
(306,712,cs),
(209,712,o),
(131,664,o),
(93,595,c),
(149,571,l),
(173,618,o),
(236,654,o),
(305,654,cs),
(393,654,o),
(445,596,o),
(431,514,cs),
(416,423,o),
(337,362,o),
(242,362,cs),
(200,362,l),
(190,304,l)
);
},
{
closed = 1;
nodes = (
(198,-14,o),
(218,3,o),
(222,28,cs),
(227,57,o),
(209,78,o),
(180,78,cs),
(155,78,o),
(135,61,o),
(131,36,cs),
(126,7,o),
(144,-14,o),
(173,-14,cs)
);
},
{
closed = 1;
nodes = (
(234,183,l),
(264,362,l),
(200,362,l),
(170,183,l)
);
}
);
width = 501;
},
{
layerId = "AEB41AA6-A430-455D-A6E9-A3012AD74722";
shapes = (
{
closed = 1;
nodes = (
(274,284,ls),
(412,284,o),
(513,354,o),
(532,467,cs),
(556,610,o),
(462,712,o),
(308,712,cs),
(195,712,o),
(106,654,o),
(63,553,c),
(219,500,l),
(233,527,o),
(266,552,o),
(306,552,cs),
(349,552,o),
(372,526,o),
(366,489,cs),
(356,428,o),
(308,403,o),
(254,397,cs),
(166,387,l),
(154,284,l)
);
},
{
closed = 1;
nodes = (
(264,-15,o),
(311,32,o),
(311,88,cs),
(311,144,o),
(264,191,o),
(208,191,cs),
(152,191,o),
(105,144,o),
(105,88,cs),
(105,32,o),
(152,-15,o),
(208,-15,cs)
);
},
{
closed = 1;
nodes = (
(312,213,l),
(339,342,l),
(161,342,l),
(144,213,l)
);
}
);
width = 521;
}
);
unicode = 63;
}
{
glyphname = at;
layers = (
{
layerId = m01;
shapes = (
{
closed = 1;
nodes = (
(499,-213,o),
(584,-195,o),
(645,-167,c),
(621,-118,l),
(572,-139,o),
(498,-155,o),
(442,-155,cs),
(210,-155,o),
(74,12,o),
(114,248,cs),
(154,487,o),
(350,657,o),
(586,657,cs),
(795,657,o),
(914,491,o),
(875,254,cs),
(854,132,o),
(788,43,o),
(716,43,cs),
(693,43,o),
(681,66,o),
(687,100,cs),
(750,479,l),
(684,479,l),
(621,102,ls),
(609,30,o),
(639,-16,o),
(713,-15,cs),
(819,-15,o),
(912,94,o),
(938,250,cs),
(983,521,o),
(838,715,o),
(588,715,cs),
(318,715,o),
(96,525,o),
(51,256,cs),
(5,-18,o),
(167,-213,o),
(440,-213,cs)
);
},
{
closed = 1;
nodes = (
(555,15,o),
(659,112,o),
(682,249,cs),
(705,390,o),
(630,490,o),
(501,490,cs),
(369,490,o),
(261,394,o),
(238,257,cs),
(215,116,o),
(294,15,o),
(430,15,cs)
);
},
{
closed = 1;
nodes = (
(341,73,o),
(284,146,o),
(301,249,cs),
(319,356,o),
(405,432,o),
(509,432,cs),
(608,432,o),
(666,360,o),
(649,257,cs),
(631,150,o),
(544,73,o),
(441,73,cs)
);
}
);
width = 988;
},
{
background = {
shapes = (
{
closed = 1;
nodes = (
(516,-208,o),
(599,-185,o),
(661,-149,c),
(596,-45,l),
(565,-68,o),
(509,-88,o),
(410,-88,cs),
(248,-88,o),
(123,48,o),
(156,241,cs),
(190,448,o),
(375,595,o),
(599,595,cs),
(787,595,o),
(896,458,o),
(862,257,cs),
(847,163,o),
(793,91,o),
(738,91,cs),
(719,91,o),
(709,107,o),
(714,139,cs),
(772,479,l),
(632,479,l),
(583,125,ls),
(572,46,o),
(638,-15,o),
(731,-15,cs),
(853,-15,o),
(954,91,o),
(980,247,cs),
(1026,518,o),
(866,715,o),
(595,715,cs),
(313,715,o),
(84,528,o),
(39,263,cs),
(-7,-12,o),
(170,-208,o),
(415,-208,cs)
);
},
{
closed = 1;
nodes = (
(554,14,o),
(652,108,o),
(675,241,cs),
(699,386,o),
(621,489,o),
(490,489,cs),
(382,489,o),
(293,396,o),
(270,263,cs),
(246,118,o),
(315,14,o),
(435,14,cs)
);
},
{
closed = 1;
nodes = (
(449,158,o),
(422,191,o),
(431,242,cs),
(441,302,o),
(488,345,o),
(542,345,cs),
(586,345,o),
(611,312,o),
(603,263,cs),
(593,201,o),
(546,158,o),
(495,158,cs)
);
}
);
};
layerId = "AEB41AA6-A430-455D-A6E9-A3012AD74722";
shapes = (
{
closed = 1;
nodes = (
(516,-208,o),
(599,-185,o),
(661,-149,c),
(596,-45,l),
(565,-68,o),
(505,-94,o),
(422,-94,cs),
(248,-94,o),
(156,36,o),
(156,180,cs),
(156,448,o),
(354,602,o),
(572,602,cs),
(790,602,o),
(896,458,o),
(862,257,cs),
(847,163,o),
(793,91,o),
(742,91,cs),
(719,91,o),
(709,107,o),
(714,139,cs),
(772,479,l),
(632,479,l),
(583,125,ls),
(572,46,o),
(638,-15,o),
(731,-15,cs),
(853,-15,o),
(988,107,o),
(988,333,cs),
(988,518,o),
(875,715,o),
(578,715,cs),
(292,715,o),
(21,528,o),
(21,172,cs),
(21,-16,o),
(150,-208,o),
(420,-208,cs)
);
},
{
closed = 1;
nodes = (
(554,14,o),
(652,108,o),
(675,241,cs),
(699,386,o),
(621,489,o),
(490,489,cs),
(382,489,o),
(293,396,o),
(270,263,cs),
(246,118,o),
(315,14,o),
(435,14,cs)
);
},
{
closed = 1;
nodes = (
(449,158,o),
(422,191,o),
(431,242,cs),
(441,302,o),
(488,345,o),
(542,345,cs),
(586,345,o),
(611,312,o),
(603,263,cs),
(593,201,o),
(546,158,o),
(495,158,cs)
);
}
);
width = 1006;
},
{
associatedMasterId = "AEB41AA6-A430-455D-A6E9-A3012AD74722";
background = {
shapes = (
{
closed = 1;
nodes = (
(504,-208,o),
(587,-185,o),
(649,-149,c),
(584,-45,l),
(553,-68,o),
(497,-88,o),
(398,-88,cs),
(236,-88,o),
(111,48,o),
(144,241,cs),
(178,448,o),
(363,595,o),
(587,595,cs),
(775,595,o),
(884,458,o),
(850,257,cs),
(835,163,o),
(781,91,o),
(726,91,cs),
(707,91,o),
(697,107,o),
(702,139,cs),
(760,479,l),
(620,479,l),
(571,125,ls),
(560,46,o),
(626,-15,o),
(719,-15,cs),
(841,-15,o),
(942,91,o),
(968,247,cs),
(1014,518,o),
(854,715,o),
(583,715,cs),
(301,715,o),
(72,528,o),
(27,263,cs),
(-19,-12,o),
(158,-208,o),
(403,-208,cs)
);
},
{
closed = 1;
nodes = (
(542,14,o),
(640,108,o),
(663,241,cs),
(687,386,o),
(609,489,o),
(478,489,cs),
(370,489,o),
(281,396,o),
(258,263,cs),
(234,118,o),
(303,14,o),
(423,14,cs)
);
},
{
closed = 1;
nodes = (
(437,158,o),
(410,191,o),
(419,242,cs),
(429,302,o),
(476,345,o),
(530,345,cs),
(574,345,o),
(599,312,o),
(591,263,cs),
(581,201,o),
(534,158,o),
(483,158,cs)
);
}
);
};
layerId = "CEC67AE6-AD7D-4898-9997-B383020C90FF";
name = "22 Feb 23 at 15:23";
shapes = (
{
closed = 1;
nodes = (
(504,-208,o),
(587,-185,o),
(649,-149,c),
(584,-45,l),
(553,-68,o),
(497,-88,o),
(398,-88,cs),
(236,-88,o),
(111,48,o),
(144,241,cs),
(178,448,o),
(363,595,o),
(587,595,cs),
(775,595,o),
(884,458,o),
(850,257,cs),
(835,163,o),
(781,91,o),
(726,91,cs),
(707,91,o),
(697,107,o),
(702,139,cs),
(760,479,l),
(620,479,l),
(571,125,ls),
(560,46,o),
(626,-15,o),
(719,-15,cs),
(841,-15,o),
(942,91,o),
(968,247,cs),
(1014,518,o),
(854,715,o),
(583,715,cs),
(301,715,o),
(72,528,o),
(27,263,cs),
(-19,-12,o),
(158,-208,o),
(403,-208,cs)
);
},
{
closed = 1;
nodes = (
(542,14,o),
(640,108,o),
(663,241,c),
(687,386,o),
(609,489,o),
(478,489,cs),
(370,489,o),
(281,396,o),
(258,263,cs),
(234,118,o),
(303,14,o),
(423,14,cs)
);
},
{
closed = 1;
nodes = (
(437,158,o),
(410,191,o),
(419,242,cs),
(429,302,o),
(476,345,o),
(530,345,cs),
(574,345,o),
(599,312,o),
(591,263,cs),
(581,201,o),
(534,158,o),
(483,158,cs)
);
}
);
width = 994;
}
);
metricLeft = O;
metricRight = O;
unicode = 64;
}
{
glyphname = A;
kernLeft = A;
kernRight = A;
layers = (
{
anchors = (
{
name = bottom;
pos = (299,0);
},
{
name = ogonek;
pos = (616,0);
},
{
name = top;
pos = (406,670);
}
);
layerId = m01;
shapes = (
{
closed = 1;
nodes = (
(42,0,l),
(443,700,l),
(373,700,l),
(-32,0,l)
);
},
{
closed = 1;
nodes = (
(616,0,l),
(445,700,l),
(383,700,l),
(551,0,l)
);
},
{
closed = 1;
nodes = (
(510,192,l),
(520,250,l),
(150,250,l),
(140,192,l)
);
}
);
width = 668;
},
{
anchors = (
{
name = bottom;
pos = (352,0);
},
{
name = ogonek;
pos = (700,0);
},
{
name = top;
pos = (448,700);
}
);
layerId = "AEB41AA6-A430-455D-A6E9-A3012AD74722";
shapes = (
{
closed = 1;
nodes = (
(174,0,l),
(545,700,l),
(350,700,l),
(-35,0,l)
);
},
{
closed = 1;
nodes = (
(700,0,l),
(549,700,l),
(373,700,l),
(513,0,l)
);
},
{
closed = 1;
nodes = (
(596,112,l),
(623,275,l),
(139,275,l),
(112,112,l)
);
}
);
width = 749;
}
);
unicode = 65;
}
{
glyphname = B;
layers = (
{
layerId = m01;
shapes = (
{
closed = 1;
nodes = (
(302,0,ls),
(439,0,o),
(529,67,o),
(549,183,cs),
(562,261,o),
(532,320,o),
(466,353,c),
(530,383,o),
(571,437,o),
(583,509,cs),
(603,629,o),
(529,700,o),
(388,700,cs),
(175,700,l),
(58,0,l)
);
},
{
closed = 1;
nodes = (
(176,326,l),
(330,326,ls),
(444,326,o),
(501,277,o),
(487,191,cs),
(473,109,o),
(405,59,o),
(308,59,cs),
(132,59,l)
);
},
{
closed = 1;
nodes = (
(229,642,l),
(383,642,ls),
(485,642,o),
(535,597,o),
(522,517,cs),
(508,435,o),
(448,385,o),
(363,385,cs),
(186,385,l)
);
}
);
width = 610;
},
{
background = {
shapes = (
{
closed = 1;
nodes = (
(293,13,ls),
(434,13,o),
(542,96,o),
(562,216,cs),
(584,347,o),
(495,440,o),
(354,439,cs),
(242,438,l),
(217,288,l),
(330,288,ls),
(370,288,o),
(393,268,o),
(393,237,cs),
(393,189,o),
(354,164,o),
(299,164,cs),
(197,164,l),
(171,13,l)
);
}
);
};
layerId = "AEB41AA6-A430-455D-A6E9-A3012AD74722";
shapes = (
{
closed = 1;
nodes = (
(311,0,ls),
(453,0,o),
(559,69,o),
(580,197,cs),
(593,278,o),
(567,332,o),
(513,367,c),
(562,400,o),
(593,441,o),
(600,482,cs),
(625,630,o),
(527,700,o),
(381,700,cs),
(135,700,l),
(18,0,l)
);
},
{
closed = 1;
nodes = (
(246,288,l),
(337,288,ls),
(373,288,o),
(394,271,o),
(394,244,cs),
(393,189,o),
(356,163,o),
(304,163,cs),
(225,163,l)
);
},
{
closed = 1;
nodes = (
(291,557,l),
(356,557,ls),
(396,557,o),
(417,542,o),
(417,510,cs),
(417,462,o),
(387,435,o),
(324,435,cs),
(271,435,l)
);
}
);
width = 614;
}
);
metricLeft = I;
metricRight = O;
unicode = 66;
}
{
glyphname = C;
kernLeft = round_left_uppercase;
layers = (
{
anchors = (
{
name = bottom;
pos = (349,0);
},
{
name = top;
pos = (456,670);
}
);
layerId = m01;
shapes = (
{
closed = 1;
nodes = (
(465,-12,o),
(596,61,o),
(666,168,c),
(617,205,l),
(560,112,o),
(450,44,o),
(351,44,cs),
(192,44,o),
(100,168,o),
(130,346,cs),
(160,526,o),
(297,654,o),
(458,654,cs),
(551,654,o),
(638,596,o),
(667,511,c),
(723,540,l),
(688,640,o),
(579,712,o),
(459,712,cs),
(264,712,o),
(103,564,o),
(67,354,cs),
(32,140,o),
(148,-12,o),
(349,-12,cs)
);
}
);
width = 720;
},
{
anchors = (
{
name = bottom;
pos = (341,0);
},
{
name = top;
pos = (460,700);
}
);
background = {
shapes = (
{
closed = 1;
nodes = (
(509,-12,o),
(639,73,o),
(711,206,c),
(541,272,l),
(499,206,o),
(444,158,o),
(360,158,cs),
(266,158,o),
(214,232,o),
(232,339,cs),
(252,458,o),
(342,542,o),
(446,542,cs),
(514,542,o),
(555,505,o),
(573,439,c),
(753,485,l),
(724,617,o),
(617,712,o),
(450,712,cs),
(246,712,o),
(80,567,o),
(46,361,cs),
(9,143,o),
(137,-12,o),
(353,-12,cs)
);
}
);
};
layerId = "AEB41AA6-A430-455D-A6E9-A3012AD74722";
shapes = (
{
closed = 1;
nodes = (
(509,-12,o),
(639,73,o),
(711,206,c),
(541,272,l),
(499,206,o),
(444,158,o),
(360,158,cs),
(278,158,o),
(228,214,o),
(228,298,cs),
(228,419,o),
(318,542,o),
(446,542,cs),
(514,542,o),
(555,505,o),
(573,439,c),
(753,485,l),
(724,617,o),
(617,712,o),
(450,712,cs),
(209,712,o),
(37,513,o),
(37,288,cs),
(37,109,o),
(162,-12,o),
(353,-12,cs)
);
}
);
width = 733;
}
);
metricLeft = O;
metricRight = "=O-10";
unicode = 67;
}
{
glyphname = D;
kernRight = round_right_uppercase;
layers = (
{
anchors = (
{
name = top;
pos = (378,670);
}
);
layerId = m01;
shapes = (
{
closed = 1;
nodes = (
(267,0,ls),
(457,0,o),
(615,143,o),
(649,346,cs),
(684,553,o),
(572,699,o),
(384,700,cs),
(175,700,l),
(58,0,l)
);
},
{
closed = 1;
nodes = (
(229,642,l),
(375,642,ls),
(519,642,o),
(613,513,o),
(586,354,cs),
(559,191,o),
(419,58,o),
(275,58,cs),
(132,58,l)
);
}
);
width = 683;
},
{
anchors = (
{
name = top;
pos = (378,700);
}
);
layerId = "AEB41AA6-A430-455D-A6E9-A3012AD74722";
shapes = (
{
closed = 1;
nodes = (
(252,0,ls),
(485,0,o),
(668,140,o),
(701,339,cs),
(736,548,o),
(595,697,o),
(369,700,cs),
(135,700,l),
(18,0,l)
);
},
{
closed = 1;
nodes = (
(291,525,l),
(340,525,ls),
(462,525,o),
(531,458,o),
(515,361,cs),
(496,252,o),
(393,175,o),
(275,175,cs),
(232,175,l)
);
}
);
width = 711;
}
);
metricLeft = I;
metricRight = O;
unicode = 68;
}
{
glyphname = E;
layers = (
{
anchors = (
{
name = bottom;
pos = (235,0);
},
{
name = ogonek;
pos = (461,0);
},
{
name = top;
pos = (378,670);
},
{
name = topleft;
pos = (95,700);
}
);
layerId = m01;
shapes = (
{
closed = 1;
nodes = (
(461,0,l),
(471,58,l),
(132,58,l),
(178,332,l),
(493,332,l),
(502,390,l),
(187,390,l),
(229,642,l),
(569,642,l),
(578,700,l),
(175,700,l),
(58,0,l)
);
}
);
width = 593;
},
{
anchors = (
{
name = bottom;
pos = (246,0);
},
{
name = ogonek;
pos = (494,0);
},
{
name = top;
pos = (363,700);
},
{
name = topleft;
pos = (85,700);
}
);
layerId = "AEB41AA6-A430-455D-A6E9-A3012AD74722";
shapes = (
{
closed = 1;
nodes = (
(494,0,l),
(523,170,l),
(231,170,l),
(248,268,l),
(478,268,l),
(506,433,l),
(275,433,l),
(292,530,l),
(576,530,l),
(604,700,l),
(135,700,l),
(18,0,l)
);
}
);
width = 586;
}
);
metricLeft = I;
metricRight = "=I-10";
unicode = 69;
}
{
glyphname = F;
layers = (
{
layerId = m01;
shapes = (
{
closed = 1;
nodes = (
(122,0,l),
(175,317,l),
(478,317,l),
(488,375,l),
(185,375,l),
(229,642,l),
(567,642,l),
(576,700,l),
(175,700,l),
(58,0,l)
);
}
);
width = 537;
},
{
layerId = "AEB41AA6-A430-455D-A6E9-A3012AD74722";
shapes = (
{
closed = 1;
nodes = (
(203,0,l),
(246,258,l),
(476,258,l),
(505,428,l),
(275,428,l),
(292,530,l),
(586,530,l),
(614,700,l),
(135,700,l),
(18,0,l)
);
}
);
width = 564;
}
);
metricLeft = I;
unicode = 70;
}
{
glyphname = G;
kernLeft = round_left_uppercase;
layers = (
{
anchors = (
{
name = bottom;
pos = (371,0);
},
{
name = top;
pos = (479,700);
}
);
layerId = m01;
shapes = (
{
closed = 1;
nodes = (
(555,-12,o),
(704,113,o),
(734,291,c),
(672,291,l),
(648,148,o),
(523,46,o),
(375,46,cs),
(202,46,o),
(101,170,o),
(130,345,cs),
(160,526,o),
(308,654,o),
(485,654,cs),
(571,654,o),
(656,607,o),
(688,537,c),
(741,570,l),
(699,652,o),
(594,712,o),
(486,712,cs),
(275,712,o),
(103,564,o),
(67,353,cs),
(32,140,o),
(158,-12,o),
(373,-12,cs)
);
},
{
closed = 1;
nodes = (
(706,291,l),
(734,291,l),
(744,350,l),
(506,350,l),
(496,291,l)
);
}
);
width = 767;
},
{
anchors = (
{
name = bottom;
pos = (351,0);
},
{
name = top;
pos = (468,700);
}
);
background = {
shapes = (
{
closed = 1;
nodes = (
(509,-12,o),
(639,73,o),
(711,206,c),
(541,272,l),
(499,206,o),
(444,158,o),
(360,158,cs),
(278,158,o),
(228,214,o),
(228,298,cs),
(228,419,o),
(318,542,o),
(446,542,cs),
(514,542,o),
(555,505,o),
(573,439,c),
(753,485,l),
(724,617,o),
(617,712,o),
(450,712,cs),
(209,712,o),
(37,513,o),
(37,288,cs),
(37,109,o),
(162,-12,o),
(353,-12,cs)
);
}
);
};
guides = (
{
angle = 80.5;
pos = (374,210);
},
{
angle = 80.5;
pos = (691,120);
}
);
layerId = "AEB41AA6-A430-455D-A6E9-A3012AD74722";
shapes = (
{
closed = 1;
nodes = (
(558,-12,o),
(695,146,o),
(720,295,c),
(538,278,l),
(512,211,o),
(451,158,o),
(365,158,cs),
(278,158,o),
(228,212,o),
(228,298,cs),
(228,433,o),
(332,542,o),
(436,542,cs),
(497,542,o),
(536,516,o),
(559,472,c),
(730,553,l),
(687,642,o),
(598,712,o),
(450,712,cs),
(209,712,o),
(37,513,o),
(37,288,cs),
(37,109,o),
(156,-12,o),
(353,-12,cs)
);
},
{
closed = 1;
nodes = (
(608,252,l),
(720,295,l),
(736,392,l),
(404,392,l),
(380,252,l)
);
}
);
width = 727;
},
{
anchors = (
{
name = bottom;
pos = (351,0);
},
{
name = top;
pos = (468,700);
}
);
associatedMasterId = "AEB41AA6-A430-455D-A6E9-A3012AD74722";
background = {
shapes = (
{
closed = 1;
nodes = (
(509,-12,o),
(639,73,o),
(711,206,c),
(541,272,l),
(499,206,o),
(444,158,o),
(360,158,cs),
(278,158,o),
(228,214,o),
(228,298,cs),
(228,419,o),
(318,542,o),
(446,542,cs),
(514,542,o),
(555,505,o),
(573,439,c),
(753,485,l),
(724,617,o),
(617,712,o),
(450,712,cs),
(209,712,o),
(37,513,o),
(37,288,cs),
(37,109,o),
(162,-12,o),
(353,-12,cs)
);
}
);
};
guides = (
{
angle = 80.5;
pos = (374,210);
},
{
angle = 80.5;
pos = (691,120);
}
);
layerId = "1ECF5993-4C50-45A1-A6E2-A879A6D3DCEE";
name = "22 Feb 23 at 14:59";
shapes = (
{
closed = 1;
nodes = (
(594,-12,o),
(685,82,o),
(720,295,c),
(538,278,l),
(524,198,o),
(481,158,o),
(395,158,cs),
(279,158,o),
(219,265,o),
(233,350,cs),
(255,485,o),
(340,542,o),
(429,542,cs),
(475,542,o),
(536,516,o),
(559,472,c),
(730,553,l),
(687,642,o),
(606,712,o),
(458,712,cs),
(214,712,o),
(80,573,o),
(44,361,cs),
(13,179,o),
(156,-12,o),
(377,-12,cs)
);
},
{
closed = 1;
nodes = (
(608,252,l),
(720,295,l),
(736,392,l),
(404,392,l),
(380,252,l)
);
}
);
width = 727;
}
);
metricLeft = O;
metricRight = "=O-10";
unicode = 71;
}
{
glyphname = H;
layers = (
{
anchors = (
{
name = bottom;
pos = (334,0);
},
{
name = center;
pos = (393,350);
},
{
name = top;
pos = (451,700);
},
{
name = topleft;
pos = (95,700);
}
);
layerId = m01;
shapes = (
{
closed = 1;
nodes = (
(122,0,l),
(239,700,l),
(175,700,l),
(58,0,l)
);
},
{
closed = 1;
nodes = (
(610,0,l),
(727,700,l),
(663,700,l),
(546,0,l)
);
},
{
closed = 1;
nodes = (
(602,332,l),
(611,390,l),
(187,390,l),
(178,332,l)
);
}
);
width = 752;
},
{
anchors = (
{
name = bottom;
pos = (332,0);
},
{
name = center;
pos = (391,350);
},
{
name = top;
pos = (449,700);
},
{
name = topleft;
pos = (95,700);
}
);
layerId = "AEB41AA6-A430-455D-A6E9-A3012AD74722";
shapes = (
{
closed = 1;
nodes = (
(203,0,l),
(320,700,l),
(135,700,l),
(18,0,l)
);
},
{
closed = 1;
nodes = (
(646,0,l),
(763,700,l),
(578,700,l),
(461,0,l)
);
},
{
closed = 1;
nodes = (
(615,271,l),
(643,441,l),
(219,441,l),
(191,271,l)
);
}
);
width = 748;
}
);
metricLeft = I;
metricRight = I;
unicode = 72;
}
{
glyphname = I;
layers = (
{
anchors = (
{
name = bottom;
pos = (90,0);
},
{
name = ogonek;
pos = (122,0);
},
{
name = top;
pos = (202,670);
},
{
name = topleft;
pos = (95,700);
}
);
layerId = m01;
shapes = (
{
closed = 1;
nodes = (
(122,0,l),
(239,700,l),
(175,700,l),
(58,0,l)
);
}
);
width = 264;
},
{
anchors = (
{
name = bottom;
pos = (113,0);
},
{
name = ogonek;
pos = (207,0);
},
{
name = top;
pos = (230,700);
},
{
name = topleft;
pos = (85,700);
}
);
layerId = "AEB41AA6-A430-455D-A6E9-A3012AD74722";
shapes = (
{
closed = 1;
nodes = (
(203,0,l),
(320,700,l),
(135,700,l),
(18,0,l)
);
}
);
width = 305;
}
);
unicode = 73;
}
{
glyphname = J;
kernLeft = round_left_uppercase;
layers = (
{
anchors = (
{
name = top;
pos = (448,670);
}
);
layerId = m01;
shapes = (
{
closed = 1;
nodes = (
(249,-11,o),
(378,59,o),
(403,210,cs),
(485,700,l),
(421,700,l),
(345,244,ls),
(321,99,o),
(224,47,o),
(146,47,cs),
(87,47,o),
(51,81,o),
(30,128,c),
(-19,97,l),
(7,35,o),
(59,-11,o),
(144,-11,cs)
);
}
);
width = 500;
},
{
anchors = (
{
name = top;
pos = (520,670);
}
);
background = {
shapes = (
{
closed = 1;
nodes = (
(396,-16,o),
(507,72,o),
(529,204,cs),
(612,700,l),
(427,700,l),
(354,260,ls),
(343,191,o),
(294,154,o),
(237,154,cs),
(193,154,o),
(174,183,o),
(178,248,c),
(2,206,l),
(-11,126,o),
(51,-16,o),
(231,-16,cs)
);
}
);
};
layerId = "AEB41AA6-A430-455D-A6E9-A3012AD74722";
shapes = (
{
closed = 1;
nodes = (
(396,-16,o),
(505,62,o),
(529,204,cs),
(612,700,l),
(427,700,l),
(354,260,ls),
(341,183,o),
(303,154,o),
(237,154,cs),
(180,154,o),
(169,211,o),
(164,244,c),
(-2,204,l),
(-11,124,o),
(51,-16,o),
(231,-16,cs)
);
}
);
width = 587;
}
);
metricRight = "=I-10";
unicode = 74;
}
{
glyphname = K;
layers = (
{
anchors = (
{
name = bottom;
pos = (252,0);
},
{
name = top;
pos = (369,700);
}
);
layerId = m01;
shapes = (
{
closed = 1;
nodes = (
(645,700,l),
(566,700,l),
(117,305,l),
(153,264,l)
);
},
{
closed = 1;
nodes = (
(118,0,l),
(235,700,l),
(175,700,l),
(58,0,l)
);
},
{
closed = 1;
nodes = (
(540,0,l),
(277,399,l),
(233,356,l),
(465,0,l)
);
}
);
width = 588;
},
{
anchors = (
{
name = bottom;
pos = (317,0);
},
{
name = top;
pos = (434,700);
}
);
layerId = "AEB41AA6-A430-455D-A6E9-A3012AD74722";
shapes = (
{
closed = 1;
nodes = (
(777,700,l),
(529,700,l),
(183,378,l),
(144,119,l)
);
},
{
closed = 1;
nodes = (
(203,0,l),
(320,700,l),
(135,700,l),
(18,0,l)
);
},
{
closed = 1;
nodes = (
(664,0,l),
(378,464,l),
(225,356,l),
(439,0,l)
);
}
);
width = 718;
}
);
metricLeft = "=I";
unicode = 75;
}
{
glyphname = L;
layers = (
{
anchors = (
{
name = bottom;
pos = (242,0);
},
{
name = center;
pos = (274,350);
},
{
name = top;
pos = (202,670);
},
{
name = top_caron;
pos = (289,759);
},
{
name = topright;
pos = (568,700);
}
);
layerId = m01;
shapes = (
{
closed = 1;
nodes = (
(461,0,l),
(471,58,l),
(132,58,l),
(239,700,l),
(175,700,l),
(58,0,l)
);
}
);
width = 513;
},
{
anchors = (
{
name = bottom;
pos = (245,0);
},
{
name = center;
pos = (294,350);
},
{
name = top;
pos = (228,700);
},
{
name = top_caron;
pos = (342,759);
},
{
name = topright;
pos = (608,700);
}
);
layerId = "AEB41AA6-A430-455D-A6E9-A3012AD74722";
shapes = (
{
closed = 1;
nodes = (
(491,0,l),
(520,170,l),
(231,170,l),
(320,700,l),
(135,700,l),
(18,0,l)
);
}
);
width = 553;
}
);
metricLeft = I;
unicode = 76;
}
{
glyphname = M;
layers = (
{
layerId = m01;
shapes = (
{
closed = 1;
nodes = (
(122,0,l),
(221,592,l),
(415,211,l),
(734,594,l),
(635,0,l),
(699,0,l),
(816,700,l),
(751,700,l),
(432,320,l),
(239,700,l),
(175,700,l),
(58,0,l)
);
}
);
width = 841;
},
{
background = {
shapes = (
{
closed = 1;
nodes = (
(245,700,l),
(197,663,l),
(501,211,l),
(532,275,l)
);
}
);
};
layerId = "AEB41AA6-A430-455D-A6E9-A3012AD74722";
shapes = (
{
closed = 1;
nodes = (
(203,0,l),
(273,419,l),
(421,140,l),
(649,408,l),
(581,0,l),
(766,0,l),
(883,700,l),
(676,700,l),
(467,450,l),
(338,700,l),
(135,700,l),
(18,0,l)
);
}
);
width = 868;
}
);
metricLeft = I;
metricRight = I;
unicode = 77;
}
{
glyphname = N;
layers = (
{
anchors = (
{
name = bottom;
pos = (345,0);
},
{
name = top;
pos = (451,670);
}
);
layerId = m01;
shapes = (
{
closed = 1;
nodes = (
(122,0,l),
(223,599,l),
(568,0,l),
(632,0,l),
(749,700,l),
(685,700,l),
(585,100,l),
(239,700,l),
(175,700,l),
(58,0,l)
);
}
);
width = 774;
},
{
anchors = (
{
name = bottom;
pos = (347,0);
},
{
name = top;
pos = (459,680);
}
);
layerId = "AEB41AA6-A430-455D-A6E9-A3012AD74722";
shapes = (
{
closed = 1;
nodes = (
(203,0,l),
(271,404,l),
(486,0,l),
(671,0,l),
(788,700,l),
(603,700,l),
(538,311,l),
(331,700,l),
(135,700,l),
(18,0,l)
);
}
);
width = 773;
}
);
metricLeft = I;
metricRight = I;
unicode = 78;
}
{
glyphname = O;
kernLeft = round_left_uppercase;
kernRight = round_right_uppercase;
layers = (
{
anchors = (
{
name = bottom;
pos = (347,0);
},
{
name = center;
pos = (403,350);
},
{
name = ogonek;
pos = (655,10);
},
{
name = top;
pos = (456,670);
},
{
name = topleft;
pos = (95,700);
},
{
name = topright;
pos = (827,700);
}
);
layerId = m01;
shapes = (
{
closed = 1;
nodes = (
(542,-12,o),
(703,135,o),
(738,346,cs),
(774,560,o),
(659,712,o),
(459,712,cs),
(263,712,o),
(103,565,o),
(67,354,cs),
(31,139,o),
(149,-12,o),
(349,-12,cs)
);
},
{
closed = 1;
nodes = (
(192,46,o),
(101,170,o),
(130,346,cs),
(160,526,o),
(297,654,o),
(458,654,cs),
(615,654,o),
(705,530,o),
(675,354,cs),
(645,174,o),
(511,46,o),
(351,46,cs)
);
}
);
width = 772;
},
{
anchors = (
{
name = bottom;
pos = (396,0);
},
{
name = center;
pos = (434,350);
},
{
name = ogonek;
pos = (530,10);
},
{
name = top;
pos = (448,700);
},
{
name = topleft;
pos = (100,700);
},
{
name = topright;
pos = (850,700);
}
);
background = {
shapes = (
{
closed = 1;
nodes = (
(168,-13,o),
(396,-13,cs),
(594,-13,o),
(753,120,o),
(786,318,cs),
(825,551,o),
(665,712,o),
(438,712,cs),
(240,712,o),
(80,579,o),
(47,380,cs),
(8,148,o)
);
},
{
closed = 1;
nodes = (
(215,244,o),
(235,364,cs),
(252,470,o),
(332,541,o),
(430,541,cs),
(544,541,o),
(618,454,o),
(598,334,cs),
(580,228,o),
(502,158,o),
(404,158,cs),
(290,158,o)
);
}
);
};
layerId = "AEB41AA6-A430-455D-A6E9-A3012AD74722";
shapes = (
{
closed = 1;
nodes = (
(594,-12,o),
(753,121,o),
(786,318,cs),
(825,551,o),
(665,712,o),
(438,712,cs),
(240,712,o),
(80,579,o),
(47,380,cs),
(8,149,o),
(168,-12,o),
(396,-12,cs)
);
},
{
closed = 1;
nodes = (
(290,158,o),
(215,244,o),
(235,364,cs),
(252,470,o),
(332,541,o),
(430,541,cs),
(544,541,o),
(618,454,o),
(598,334,cs),
(580,228,o),
(502,158,o),
(404,158,cs)
);
}
);
width = 800;
}
);
unicode = 79;
}
{
glyphname = P;
layers = (
{
layerId = m01;
shapes = (
{
closed = 1;
nodes = (
(122,0,l),
(166,266,l),
(347,266,ls),
(463,266,o),
(557,354,o),
(578,479,cs),
(600,609,o),
(520,700,o),
(388,700,cs),
(175,700,l),
(58,0,l)
);
},
{
closed = 1;
nodes = (
(229,642,l),
(383,642,ls),
(478,642,o),
(532,579,o),
(517,487,cs),
(501,392,o),
(432,325,o),
(353,325,cs),
(176,325,l)
);
}
);
width = 570;
},
{
background = {
shapes = (
{
closed = 1;
nodes = (
(349,210,ls),
(507,210,o),
(629,307,o),
(653,445,cs),
(678,595,o),
(578,702,o),
(419,701,cs),
(294,700,l),
(266,531,l),
(398,531,ls),
(442,531,o),
(467,510,o),
(467,479,cs),
(467,431,o),
(421,380,o),
(361,380,cs),
(241,380,l),
(212,210,l)
);
},
{
closed = 1;
nodes = (
(203,0,l),
(320,700,l),
(135,700,l),
(18,0,l)
);
}
);
};
layerId = "AEB41AA6-A430-455D-A6E9-A3012AD74722";
shapes = (
{
closed = 1;
nodes = (
(203,0,l),
(238,210,l),
(349,210,ls),
(507,210,o),
(629,307,o),
(653,445,cs),
(678,595,o),
(578,700,o),
(419,700,cs),
(135,700,l),
(18,0,l)
);
},
{
closed = 1;
nodes = (
(292,531,l),
(398,531,ls),
(442,531,o),
(467,504,o),
(467,463,cs),
(467,431,o),
(429,380,o),
(361,380,cs),
(267,380,l)
);
}
);
width = 625;
}
);
metricLeft = I;
metricRight = "=O-20";
unicode = 80;
}
{
glyphname = Q;
kernLeft = round_left_uppercase;
layers = (
{
layerId = m01;
shapes = (
{
closed = 1;
nodes = (
(542,-12,o),
(703,135,o),
(738,346,cs),
(774,560,o),
(659,712,o),
(459,712,cs),
(263,712,o),
(103,565,o),
(67,354,cs),
(31,139,o),
(149,-12,o),
(349,-12,cs)
);
},
{
closed = 1;
nodes = (
(685,5,l),
(480,253,l),
(430,211,l),
(637,-38,l)
);
},
{
closed = 1;
nodes = (
(192,46,o),
(101,170,o),
(130,346,cs),
(160,526,o),
(297,654,o),
(458,654,cs),
(615,654,o),
(705,530,o),
(675,354,cs),
(645,174,o),
(511,46,o),
(351,46,cs)
);
}
);
width = 776;
},
{
layerId = "AEB41AA6-A430-455D-A6E9-A3012AD74722";
shapes = (
{
closed = 1;
nodes = (
(594,-12,o),
(753,121,o),
(786,318,cs),
(825,551,o),
(665,712,o),
(438,712,cs),
(240,712,o),
(80,579,o),
(47,380,cs),
(8,149,o),
(168,-12,o),
(396,-12,cs)
);
},
{
closed = 1;
nodes = (
(725,68,l),
(503,337,l),
(372,226,l),
(596,-44,l)
);
},
{
closed = 1;
nodes = (
(290,158,o),
(215,244,o),
(235,364,cs),
(252,470,o),
(332,541,o),
(430,541,cs),
(544,541,o),
(618,454,o),
(598,334,cs),
(580,228,o),
(502,158,o),
(404,158,cs)
);
}
);
width = 800;
}
);
metricLeft = O;
metricRight = O;
unicode = 81;
}
{
glyphname = R;
layers = (
{
anchors = (
{
name = bottom;
pos = (267,0);
},
{
name = top;
pos = (358,670);
}
);
layerId = m01;
shapes = (
{
closed = 1;
nodes = (
(122,0,l),
(170,286,l),
(310,286,ls),
(444,286,o),
(560,370,o),
(580,489,cs),
(601,613,o),
(521,700,o),
(388,700,cs),
(175,700,l),
(58,0,l)
);
},
{
closed = 1;
nodes = (
(525,0,l),
(392,321,l),
(335,290,l),
(457,0,l)
);
},
{
closed = 1;
nodes = (
(229,642,l),
(383,642,ls),
(478,642,o),
(533,583,o),
(518,497,cs),
(503,408,o),
(425,345,o),
(346,345,cs),
(180,345,l)
);
}
);
width = 618;
},
{
anchors = (
{
name = bottom;
pos = (290,0);
},
{
name = top;
pos = (376,700);
}
);
layerId = "AEB41AA6-A430-455D-A6E9-A3012AD74722";
shapes = (
{
closed = 1;
nodes = (
(203,0,l),
(240,222,l),
(351,222,ls),
(509,222,o),
(631,316,o),
(654,451,cs),
(678,597,o),
(578,700,o),
(419,700,cs),
(135,700,l),
(18,0,l)
);
},
{
closed = 1;
nodes = (
(604,0,l),
(436,379,l),
(285,275,l),
(396,0,l)
);
},
{
closed = 1;
nodes = (
(292,531,l),
(393,531,ls),
(438,531,o),
(463,508,o),
(463,474,cs),
(463,419,o),
(419,392,o),
(358,392,cs),
(269,392,l)
);
}
);
width = 663;
}
);
metricLeft = I;
unicode = 82;
}
{
glyphname = S;
kernLeft = round_left_uppercase;
layers = (
{
anchors = (
{
name = bottom;
pos = (277,0);
},
{
name = top;
pos = (390,670);
}
);
background = {
shapes = (
{
closed = 1;
nodes = (
(464,-12,o),
(567,61,o),
(567,188,cs),
(567,282,o),
(489,359,o),
(353,394,cs),
(294,409,ls),
(205,433,o),
(158,476,o),
(158,517,cs),
(158,591,o),
(219,637,o),
(315,637,cs),
(408,637,o),
(464,609,o),
(493,538,c),
(567,569,l),
(533,659,o),
(447,712,o),
(328,712,cs),
(158,712,o),
(76,638,o),
(76,510,cs),
(76,430,o),
(146,364,o),
(270,330,cs),
(336,312,ls),
(435,286,o),
(485,247,o),
(485,181,cs),
(485,105,o),
(405,64,o),
(310,64,cs),
(231,64,o),
(153,108,o),
(122,178,c),
(48,150,l),
(76,69,o),
(167,-12,o),
(324,-12,cs)
);
}
);
};
guides = (
{
angle = 165.6507;
pos = (314,387);
},
{
angle = 165.6507;
pos = (317,322);
}
);
layerId = m01;
shapes = (
{
closed = 1;
nodes = (
(429,-12,o),
(552,80,o),
(552,202,cs),
(552,295,o),
(500,347,o),
(377,377,cs),
(294,397,ls),
(232,412,o),
(192,439,o),
(192,501,cs),
(192,591,o),
(279,654,o),
(382,654,cs),
(473,654,o),
(533,613,o),
(550,540,c),
(611,559,l),
(602,628,o),
(533,712,o),
(393,712,cs),
(239,712,o),
(127,624,o),
(127,492,cs),
(127,401,o),
(194,354,o),
(274,335,cs),
(342,319,ls),
(430,298,o),
(488,276,o),
(488,202,cs),
(488,98,o),
(380,46,o),
(266,46,cs),
(172,46,o),
(112,99,o),
(100,162,c),
(38,143,l),
(52,64,o),
(120,-12,o),
(279,-12,cs)
);
}
);
width = 617;
},
{
anchors = (
{
name = bottom;
pos = (263,0);
},
{
name = top;
pos = (372,700);
}
);
background = {
shapes = (
{
closed = 1;
nodes = (
(407,-25,o),
(518,44,o),
(541,181,cs),
(557,281,o),
(509,371,o),
(408,407,cs),
(307,442,ls),
(272,454,o),
(255,475,o),
(259,499,cs),
(265,537,o),
(294,556,o),
(339,552,cs),
(385,548,o),
(406,512,o),
(409,485,c),
(599,523,l),
(571,645,o),
(495,699,o),
(365,710,cs),
(202,724,o),
(93,651,o),
(71,515,cs),
(53,410,o),
(103,330,o),
(206,293,cs),
(306,258,ls),
(340,246,o),
(352,221,o),
(348,198,cs),
(342,164,o),
(305,143,o),
(268,147,cs),
(222,153,o),
(198,182,o),
(192,217,c),
(1,181,l),
(0,89,o),
(114,0,o),
(245,-11,cs)
);
}
);
};
guides = (
{
angle = 165.6507;
pos = (301,264);
},
{
angle = 165.6507;
pos = (301,440);
}
);
layerId = "AEB41AA6-A430-455D-A6E9-A3012AD74722";
shapes = (
{
closed = 1;
nodes = (
(428,-16,o),
(560,54,o),
(560,223,cs),
(560,294,o),
(531,381,o),
(409,413,cs),
(325,435,ls),
(292,444,o),
(273,465,o),
(273,488,cs),
(273,530,o),
(307,549,o),
(353,549,cs),
(404,549,o),
(426,520,o),
(429,494,c),
(616,537,l),
(587,655,o),
(507,708,o),
(370,708,cs),
(211,708,o),
(109,632,o),
(87,501,cs),
(68,390,o),
(124,310,o),
(228,283,cs),
(319,259,ls),
(344,252,o),
(360,239,o),
(360,210,cs),
(360,169,o),
(326,145,o),
(283,145,cs),
(232,145,o),
(211,167,o),
(204,200,c),
(16,159,l),
(15,68,o),
(135,-16,o),
(273,-16,cs)
);
}
);
width = 600;
},
{
anchors = (
{
name = bottom;
pos = (277,0);
},
{
name = top;
pos = (390,670);
}
);
associatedMasterId = m01;
background = {
shapes = (
{
closed = 1;
nodes = (
(464,-12,o),
(567,61,o),
(567,188,cs),
(567,282,o),
(489,359,o),
(353,394,cs),
(294,409,ls),
(205,433,o),
(158,476,o),
(158,517,cs),
(158,591,o),
(219,637,o),
(315,637,cs),
(408,637,o),
(464,609,o),
(493,538,c),
(567,569,l),
(533,659,o),
(447,712,o),
(328,712,cs),
(158,712,o),
(76,638,o),
(76,510,cs),
(76,430,o),
(146,364,o),
(270,330,cs),
(336,312,ls),
(435,286,o),
(485,247,o),
(485,181,cs),
(485,105,o),
(405,64,o),
(310,64,cs),
(231,64,o),
(153,108,o),
(122,178,c),
(48,150,l),
(76,69,o),
(167,-12,o),
(324,-12,cs)
);
}
);
};
guides = (
{
angle = 165.6507;
pos = (314,387);
},
{
angle = 165.6507;
pos = (317,322);
}
);
layerId = "310410A6-0AD8-462B-9582-709D1F7C19EE";
name = "22 Feb 23 at 15:11";
shapes = (
{
closed = 1;
nodes = (
(439,-12,o),
(533,76,o),
(550,180,cs),
(564,264,o),
(498,347,o),
(363,380,cs),
(294,397,ls),
(224,414,o),
(182,446,o),
(194,517,cs),
(208,600,o),
(281,654,o),
(382,654,cs),
(473,654,o),
(533,613,o),
(550,540,c),
(611,559,l),
(602,628,o),
(533,712,o),
(393,712,cs),
(242,712,o),
(150,640,o),
(130,517,cs),
(112,413,o),
(185,353,o),
(274,335,cs),
(342,321,ls),
(438,301,o),
(498,251,o),
(486,179,cs),
(473,100,o),
(391,46,o),
(266,46,cs),
(172,46,o),
(112,99,o),
(100,162,c),
(38,143,l),
(52,64,o),
(120,-12,o),
(279,-12,cs)
);
}
);
width = 617;
},
{
anchors = (
{
name = bottom;
pos = (263,0);
},
{
name = top;
pos = (372,700);
}
);
associatedMasterId = "AEB41AA6-A430-455D-A6E9-A3012AD74722";
background = {
shapes = (
{
closed = 1;
nodes = (
(407,-25,o),
(518,44,o),
(541,181,cs),
(557,281,o),
(509,371,o),
(408,407,cs),
(307,442,ls),
(272,454,o),
(255,475,o),
(259,499,cs),
(265,537,o),
(294,556,o),
(339,552,cs),
(385,548,o),
(406,512,o),
(409,485,c),
(599,523,l),
(571,645,o),
(495,699,o),
(365,710,cs),
(202,724,o),
(93,651,o),
(71,515,cs),
(53,410,o),
(103,330,o),
(206,293,cs),
(306,258,ls),
(340,246,o),
(352,221,o),
(348,198,cs),
(342,164,o),
(305,143,o),
(268,147,cs),
(222,153,o),
(198,182,o),
(192,217,c),
(1,181,l),
(0,89,o),
(114,0,o),
(245,-11,cs)
);
}
);
};
guides = (
{
angle = 165.6507;
pos = (301,264);
},
{
angle = 165.6507;
pos = (301,440);
}
);
layerId = "511C2546-312A-4D00-B5B3-265BD71EFC69";
name = "22 Feb 23 at 15:11";
shapes = (
{
closed = 1;
nodes = (
(428,-16,o),
(531,56,o),
(553,188,cs),
(571,294,o),
(518,384,o),
(419,410,cs),
(325,435,ls),
(292,444,o),
(273,465,o),
(273,482,cs),
(273,530,o),
(307,549,o),
(361,549,cs),
(404,549,o),
(426,520,o),
(429,494,c),
(616,537,l),
(587,655,o),
(507,708,o),
(370,708,cs),
(211,708,o),
(109,632,o),
(87,501,cs),
(68,390,o),
(124,310,o),
(228,283,cs),
(319,259,ls),
(344,252,o),
(360,236,o),
(360,212,cs),
(360,175,o),
(316,144,o),
(272,145,cs),
(232,147,o),
(211,167,o),
(204,200,c),
(16,159,l),
(15,68,o),
(135,-16,o),
(273,-16,cs)
);
}
);
width = 600;
}
);
unicode = 83;
}
{
glyphname = T;
kernLeft = undercut_left_uppercase;
kernRight = undercut_right_uppercase;
layers = (
{
anchors = (
{
name = bottom;
pos = (228,0);
},
{
name = center;
pos = (287,350);
},
{
name = top;
pos = (340,670);
}
);
layerId = m01;
shapes = (
{
closed = 1;
nodes = (
(260,0,l),
(368,642,l),
(596,642,l),
(605,700,l),
(85,700,l),
(76,642,l),
(304,642,l),
(196,0,l)
);
}
);
width = 540;
},
{
anchors = (
{
name = bottom;
pos = (265,0);
},
{
name = center;
pos = (324,350);
},
{
name = top;
pos = (381,700);
}
);
layerId = "AEB41AA6-A430-455D-A6E9-A3012AD74722";
shapes = (
{
closed = 1;
nodes = (
(358,0,l),
(447,530,l),
(644,530,l),
(672,700,l),
(92,700,l),
(64,530,l),
(262,530,l),
(173,0,l)
);
}
);
width = 614;
}
);
unicode = 84;
}
{
glyphname = U;
kernLeft = round_left_uppercase;
kernRight = round_right_uppercase;
layers = (
{
anchors = (
{
name = bottom;
pos = (313,0);
},
{
name = ogonek;
pos = (503,50);
},
{
name = top;
pos = (425,670);
},
{
name = topright;
pos = (744,700);
}
);
layerId = m01;
shapes = (
{
closed = 1;
nodes = (
(465,-16,o),
(592,91,o),
(618,245,cs),
(694,700,l),
(630,700,l),
(554,245,ls),
(535,127,o),
(435,42,o),
(315,42,cs),
(200,42,o),
(133,125,o),
(153,245,cs),
(229,700,l),
(165,700,l),
(89,245,ls),
(64,93,o),
(156,-16,o),
(311,-16,cs)
);
}
);
width = 709;
},
{
anchors = (
{
name = bottom;
pos = (306,0);
},
{
name = ogonek;
pos = (522,50);
},
{
name = top;
pos = (425,700);
},
{
name = topright;
pos = (745,700);
}
);
background = {
shapes = (
{
closed = 1;
nodes = (
(630,700,l),
(440,700,l),
(440,258,ls),
(440,205,o),
(405,167,o),
(356,167,cs),
(323,167,o),
(293,189,o),
(280,220,c),
(103,120,l),
(143,40,o),
(248,-13,o),
(356,-13,cs),
(516,-13,o),
(630,80,o),
(630,212,c)
);
}
);
};
layerId = "AEB41AA6-A430-455D-A6E9-A3012AD74722";
shapes = (
{
closed = 1;
nodes = (
(501,-12,o),
(624,91,o),
(654,271,cs),
(725,700,l),
(540,700,l),
(469,271,ls),
(458,204,o),
(401,160,o),
(323,160,cs),
(258,160,o),
(227,198,o),
(239,271,cs),
(310,700,l),
(125,700,l),
(54,271,ls),
(25,97,o),
(123,-12,o),
(316,-12,cs)
);
}
);
width = 700;
}
);
metricLeft = "=I-10";
metricRight = "=I-10";
unicode = 85;
}
{
glyphname = V;
kernLeft = undercut_left_uppercase;
kernRight = undercut_right_uppercase;
layers = (
{
layerId = m01;
shapes = (
{
closed = 1;
nodes = (
(334,0,l),
(746,700,l),
(678,700,l),
(267,0,l)
);
},
{
closed = 1;
nodes = (
(326,0,l),
(150,700,l),
(85,700,l),
(262,0,l)
);
}
);
width = 681;
},
{
layerId = "AEB41AA6-A430-455D-A6E9-A3012AD74722";
shapes = (
{
closed = 1;
nodes = (
(434,0,l),
(818,700,l),
(614,700,l),
(251,0,l)
);
},
{
closed = 1;
nodes = (
(409,0,l),
(278,700,l),
(82,700,l),
(234,0,l)
);
}
);
width = 750;
}
);
metricLeft = A;
metricRight = A;
unicode = 86;
}
{
glyphname = W;
kernLeft = undercut_left_uppercase;
kernRight = undercut_right_uppercase;
layers = (
{
anchors = (
{
name = top;
pos = (544,670);
}
);
layerId = m01;
shapes = (
{
closed = 1;
nodes = (
(677,0,l),
(1015,700,l),
(950,700,l),
(611,0,l)
);
},
{
closed = 1;
nodes = (
(248,0,l),
(148,700,l),
(85,700,l),
(184,0,l)
);
},
{
closed = 1;
nodes = (
(254,0,l),
(582,700,l),
(517,700,l),
(188,0,l)
);
},
{
closed = 1;
nodes = (
(671,0,l),
(581,700,l),
(518,700,l),
(607,0,l)
);
}
);
width = 950;
},
{
anchors = (
{
name = top;
pos = (581,670);
}
);
layerId = "AEB41AA6-A430-455D-A6E9-A3012AD74722";
shapes = (
{
closed = 1;
nodes = (
(758,0,l),
(1076,700,l),
(884,700,l),
(580,0,l)
);
},
{
closed = 1;
nodes = (
(338,0,l),
(268,700,l),
(82,700,l),
(166,0,l)
);
},
{
closed = 1;
nodes = (
(358,0,l),
(651,700,l),
(484,700,l),
(190,0,l)
);
},
{
closed = 1;
nodes = (
(738,0,l),
(668,700,l),
(507,700,l),
(566,0,l)
);
}
);
width = 1008;
}
);
metricLeft = A;
metricRight = A;
unicode = 87;
}
{
glyphname = X;
layers = (
{
layerId = m01;
shapes = (
{
closed = 1;
nodes = (
(47,0,l),
(328,330,l),
(655,700,l),
(578,700,l),
(301,385,l),
(-33,0,l)
);
},
{
closed = 1;
nodes = (
(536,0,l),
(330,385,l),
(161,700,l),
(86,700,l),
(291,330,l),
(460,0,l)
);
}
);
width = 589;
},
{
layerId = "AEB41AA6-A430-455D-A6E9-A3012AD74722";
shapes = (
{
closed = 1;
nodes = (
(194,0,l),
(477,340,l),
(799,700,l),
(573,700,l),
(299,382,l),
(-34,0,l)
);
},
{
closed = 1;
nodes = (
(685,0,l),
(476,383,l),
(312,700,l),
(96,700,l),
(303,340,l),
(467,0,l)
);
}
);
width = 739;
}
);
unicode = 88;
}
{
glyphname = Y;
kernLeft = undercut_left_uppercase;
kernRight = undercut_right_uppercase;
layers = (
{
anchors = (
{
name = top;
pos = (364,670);
}
);
layerId = m01;
shapes = (
{
closed = 1;
nodes = (
(654,700,l),
(578,700,l),
(288,328,l),
(334,292,l)
);
},
{
closed = 1;
nodes = (
(284,0,l),
(340,336,l),
(276,336,l),
(220,0,l)
);
},
{
closed = 1;
nodes = (
(326,328,l),
(160,700,l),
(86,700,l),
(270,292,l)
);
}
);
width = 588;
},
{
anchors = (
{
name = top;
pos = (413,670);
}
);
layerId = "AEB41AA6-A430-455D-A6E9-A3012AD74722";
shapes = (
{
closed = 1;
nodes = (
(759,700,l),
(544,700,l),
(257,318,l),
(438,287,l)
);
},
{
closed = 1;
nodes = (
(394,0,l),
(450,336,l),
(265,336,l),
(209,0,l)
);
},
{
closed = 1;
nodes = (
(447,318,l),
(288,700,l),
(83,700,l),
(266,287,l)
);
}
);
width = 686;
}
);
unicode = 89;
}
{
glyphname = Z;
layers = (
{
anchors = (
{
name = top;
pos = (393,670);
}
);
layerId = m01;
shapes = (
{
closed = 1;
nodes = (
(99,58,l),
(660,642,l),
(611,674,l),
(18,58,l)
);
},
{
closed = 1;
nodes = (
(549,0,l),
(559,58,l),
(18,58,l),
(8,0,l)
);
},
{
closed = 1;
nodes = (
(660,642,l),
(669,700,l),
(128,700,l),
(119,642,l)
);
}
);
width = 644;
},
{
anchors = (
{
name = top;
pos = (388,700);
}
);
layerId = "AEB41AA6-A430-455D-A6E9-A3012AD74722";
shapes = (
{
closed = 1;
nodes = (
(262,175,l),
(640,525,l),
(396,525,l),
(17,175,l)
);
},
{
closed = 1;
nodes = (
(549,0,l),
(578,175,l),
(17,175,l),
(-12,0,l)
);
},
{
closed = 1;
nodes = (
(640,525,l),
(669,700,l),
(108,700,l),
(79,525,l)
);
}
);
width = 624;
}
);
metricLeft = "=I/2";
metricRight = "=I/2";
unicode = 90;
}
{
glyphname = bracketleft;
layers = (
{
background = {
shapes = (
{
closed = 1;
nodes = (
(94,402,o),
(74,375,o),
(-6,375,c),
(-6,339,l),
(125,339,o),
(158,374,o),
(158,513,cs),
(158,694,o),
(174,740,o),
(236,742,c),
(236,800,l),
(122,800,o),
(94,742,o),
(94,512,cs)
);
},
{
closed = 1;
nodes = (
(94,-42,o),
(122,-100,o),
(236,-100,c),
(236,-42,l),
(174,-40,o),
(158,6,o),
(158,187,cs),
(158,326,o),
(125,361,o),
(-6,361,c),
(-6,325,l),
(74,325,o),
(94,298,o),
(94,188,cs)
);
}
);
};
layerId = m01;
shapes = (
{
closed = 1;
nodes = (
(177,-100,l),
(187,-42,l),
(115,-42,l),
(246,742,l),
(318,742,l),
(328,800,l),
(192,800,l),
(41,-100,l)
);
}
);
width = 316;
},
{
layerId = "AEB41AA6-A430-455D-A6E9-A3012AD74722";
shapes = (
{
closed = 1;
nodes = (
(263,-100,l),
(290,60,l),
(178,60,l),
(275,640,l),
(387,640,l),
(414,800,l),
(152,800,l),
(1,-100,l)
);
}
);
width = 362;
}
);
metricLeft = I;
metricRight = "=I-20";
unicode = 91;
}
{
glyphname = asciicircum;
layers = (
{
layerId = m01;
shapes = (
{
closed = 1;
nodes = (
(165,373,l),
(378,700,l),
(311,700,l),
(101,373,l)
);
},
{
closed = 1;
nodes = (
(480,373,l),
(378,700,l),
(312,700,l),
(419,373,l)
);
}
);
width = 539;
},
{
layerId = "AEB41AA6-A430-455D-A6E9-A3012AD74722";
shapes = (
{
closed = 1;
nodes = (
(249,373,l),
(461,700,l),
(301,700,l),
(91,373,l)
);
},
{
closed = 1;
nodes = (
(560,373,l),
(458,700,l),
(305,700,l),
(413,373,l)
);
}
);
width = 609;
}
);
unicode = 94;
}
{
glyphname = underscore;
layers = (
{
layerId = m01;
shapes = (
{
closed = 1;
nodes = (
(369,-57,l),
(378,0,l),
(-22,0,l),
(-31,-57,l)
);
}
);
width = 440;
},
{
layerId = "AEB41AA6-A430-455D-A6E9-A3012AD74722";
shapes = (
{
closed = 1;
nodes = (
(348,-150,l),
(373,0,l),
(-27,0,l),
(-52,-150,l)
);
}
);
width = 430;
}
);
unicode = 95;
}
{
glyphname = b;
kernRight = "round-right-lowercase";
layers = (
{
layerId = m01;
shapes = (
{
closed = 1;
nodes = (
(90,0,l),
(109,93,l),
(210,700,l),
(150,700,l),
(33,0,l)
);
},
{
angle = 180;
pos = (583,500);
ref = Bowl;
}
);
width = 584;
},
{
layerId = "AEB41AA6-A430-455D-A6E9-A3012AD74722";
shapes = (
{
closed = 1;
nodes = (
(174,0,l),
(199,93,l),
(303,720,l),
(123,720,l),
(3,0,l)
);
},
{
angle = 180;
pos = (595,500);
ref = Bowl;
}
);
width = 606;
}
);
metricLeft = l;
metricRight = o;
unicode = 98;
}
{
glyphname = c;
kernLeft = "round-left-lowercase";
kernRight = "round-right-lowercase";
layers = (
{
anchors = (
{
name = bottom;
pos = (251,0);
},
{
name = top;
pos = (329,500);
}
);
layerId = m01;
shapes = (
{
closed = 1;
nodes = (
(345,-12,o),
(429,36,o),
(483,117,c),
(433,149,l),
(392,84,o),
(326,43,o),
(252,43,cs),
(145,43,o),
(84,126,o),
(104,246,cs),
(125,370,o),
(218,457,o),
(328,457,cs),
(396,457,o),
(447,424,o),
(468,367,c),
(523,391,l),
(495,465,o),
(425,512,o),
(329,512,cs),
(188,512,o),
(71,406,o),
(46,254,cs),
(20,98,o),
(105,-12,o),
(251,-12,cs)
);
}
);
width = 540;
},
{
anchors = (
{
name = bottom;
pos = (254,-1);
},
{
name = top;
pos = (339,500);
}
);
background = {
shapes = (
{
closed = 1;
nodes = (
(384,-12,o),
(476,37,o),
(530,141,c),
(372,203,l),
(358,177,o),
(325,156,o),
(284,156,cs),
(236,156,o),
(196,197,o),
(208,254,cs),
(214,303,o),
(247,344,o),
(303,344,cs),
(340,344,o),
(364,330,o),
(377,299,c),
(553,347,l),
(534,442,o),
(430,512,o),
(327,512,cs),
(144,512,o),
(48,410,o),
(23,261,cs),
(-2,113,o),
(114,-12,o),
(269,-12,cs)
);
}
);
};
guides = (
{
angle = 80.5;
pos = (296,250);
}
);
layerId = "AEB41AA6-A430-455D-A6E9-A3012AD74722";
shapes = (
{
closed = 1;
nodes = (
(384,-12,o),
(476,37,o),
(530,141,c),
(372,203,l),
(358,177,o),
(325,156,o),
(288,156,cs),
(234,156,o),
(207,196,o),
(207,238,cs),
(207,303,o),
(247,344,o),
(303,344,cs),
(340,344,o),
(364,330,o),
(377,299,c),
(553,347,l),
(534,442,o),
(430,512,o),
(303,512,cs),
(144,512,o),
(20,395,o),
(20,220,cs),
(20,100,o),
(114,-12,o),
(269,-12,cs)
);
}
);
width = 558;
},
{
anchors = (
{
name = bottom;
pos = (253,-1);
},
{
name = top;
pos = (338,500);
}
);
associatedMasterId = "AEB41AA6-A430-455D-A6E9-A3012AD74722";
guides = (
{
angle = 80.5;
pos = (295,250);
}
);
layerId = "A9E1019C-E067-468B-B09D-65077A833158";
name = "22 Feb 23 at 15:13";
shapes = (
{
closed = 1;
nodes = (
(383,-12,o),
(475,37,o),
(529,141,c),
(371,203,l),
(357,177,o),
(324,156,o),
(283,156,cs),
(235,156,o),
(195,197,o),
(207,254,cs),
(213,303,o),
(246,344,o),
(302,344,cs),
(339,344,o),
(363,330,o),
(376,299,c),
(552,347,l),
(533,442,o),
(429,512,o),
(326,512,cs),
(143,512,o),
(47,410,o),
(22,261,cs),
(-3,113,o),
(113,-12,o),
(268,-12,cs)
);
}
);
width = 557;
},
{
anchors = (
{
name = bottom;
pos = (251,0);
},
{
name = top;
pos = (329,500);
}
);
associatedMasterId = m01;
layerId = "3A9414C7-B096-4387-8402-F8EB376CF08F";
name = "22 Feb 23 at 15:13";
shapes = (
{
closed = 1;
nodes = (
(345,-12,o),
(429,36,o),
(483,117,c),
(433,149,l),
(392,84,o),
(326,43,o),
(252,43,cs),
(145,43,o),
(84,126,o),
(104,246,cs),
(125,370,o),
(218,457,o),
(328,457,cs),
(396,457,o),
(447,424,o),
(468,367,c),
(523,391,l),
(495,465,o),
(425,512,o),
(329,512,cs),
(188,512,o),
(71,406,o),
(46,254,cs),
(20,98,o),
(105,-12,o),
(251,-12,cs)
);
}
);
width = 540;
}
);
metricLeft = o;
metricRight = e;
unicode = 99;
}
{
glyphname = d;
kernLeft = "round-left-lowercase";
layers = (
{
anchors = (
{
name = top;
pos = (552,700);
},
{
name = top_caron;
pos = (583,700);
}
);
layerId = m01;
shapes = (
{
closed = 1;
nodes = (
(466,0,l),
(586,720,l),
(526,720,l),
(422,93,l),
(409,0,l)
);
},
{
pos = (1,0);
ref = Bowl;
}
);
width = 583;
},
{
anchors = (
{
name = top;
pos = (546,700);
},
{
name = top_caron;
pos = (636,700);
}
);
layerId = "AEB41AA6-A430-455D-A6E9-A3012AD74722";
shapes = (
{
closed = 1;
nodes = (
(519,0,l),
(639,720,l),
(459,720,l),
(355,93,l),
(348,0,l)
);
},
{
pos = (11,0);
ref = Bowl;
}
);
width = 606;
}
);
metricLeft = o;
metricRight = l;
unicode = 100;
}
{
glyphname = e;
kernLeft = "round-left-lowercase";
layers = (
{
anchors = (
{
name = bottom;
pos = (251,0);
},
{
name = ogonek;
pos = (424,50);
},
{
name = top;
pos = (326,500);
}
);
guides = (
{
angle = 80.5;
pos = (294,250);
}
);
layerId = m01;
shapes = (
{
closed = 1;
nodes = (
(349,-12,o),
(430,38,o),
(481,112,c),
(434,147,l),
(394,87,o),
(331,43,o),
(252,43,cs),
(146,43,o),
(85,125,o),
(104,243,c),
(507,243,l),
(533,400,o),
(470,512,o),
(326,512,cs),
(187,512,o),
(71,405,o),
(46,254,cs),
(20,98,o),
(105,-12,o),
(251,-12,cs)
);
},
{
closed = 1;
nodes = (
(153,393,o),
(233,457,o),
(325,457,cs),
(415,457,o),
(455,393,o),
(453,298,c),
(118,298,l)
);
}
);
width = 543;
},
{
anchors = (
{
name = bottom;
pos = (260,0);
},
{
name = ogonek;
pos = (471,50);
},
{
name = top;
pos = (338,500);
}
);
background = {
anchors = (
{
name = bottom;
pos = (260,0);
},
{
name = ogonek;
pos = (457,50);
},
{
name = top;
pos = (345,500);
}
);
guides = (
{
angle = 80.5;
pos = (294,250);
}
);
shapes = (
{
closed = 1;
nodes = (
(353,-12,o),
(471,25,o),
(525,130,c),
(375,179,l),
(362,148,o),
(322,125,o),
(278,125,cs),
(229,125,o),
(193,152,o),
(207,241,cs),
(223,333,o),
(254,387,o),
(317,387,cs),
(394,387,o),
(395,311,o),
(377,205,c),
(554,205,l),
(589,412,o),
(498,512,o),
(345,512,cs),
(182,512,o),
(52,406,o),
(26,250,cs),
(0,94,o),
(97,-12,o),
(260,-12,cs)
);
},
{
closed = 1;
nodes = (
(471,205,l),
(490,315,l),
(152,315,l),
(132,205,l)
);
}
);
};
guides = (
{
angle = 80.5;
pos = (294,250);
}
);
layerId = "AEB41AA6-A430-455D-A6E9-A3012AD74722";
shapes = (
{
closed = 1;
nodes = (
(348,-20,o),
(465,8,o),
(518,110,c),
(369,172,l),
(356,141,o),
(317,121,o),
(273,125,cs),
(234,128,o),
(203,149,o),
(200,205,c),
(550,205,l),
(585,397,o),
(493,498,o),
(339,511,cs),
(178,524,o),
(50,428,o),
(24,272,cs),
(-2,117,o),
(94,2,o),
(256,-12,cs)
);
},
{
closed = 1;
nodes = (
(238,364,o),
(266,391,o),
(312,387,cs),
(357,383,o),
(376,357,o),
(381,315,c),
(220,315,l)
);
}
);
width = 568;
}
);
metricLeft = o;
metricRight = "=o-10";
unicode = 101;
}
{
glyphname = f;
kernLeft = tall_left_lowercase;
layers = (
{
layerId = m01;
shapes = (
{
closed = 1;
nodes = (
(143,0,l),
(237,558,ls),
(247,623,o),
(280,657,o),
(333,657,cs),
(345,657,o),
(367,651,o),
(400,638,c),
(427,687,l),
(390,703,o),
(362,712,o),
(339,712,cs),
(246,712,o),
(194,664,o),
(177,562,cs),
(83,0,l)
);
},
{
closed = 1;
nodes = (
(371,445,l),
(380,500,l),
(72,500,l),
(63,445,l)
);
}
);
width = 359;
},
{
layerId = "AEB41AA6-A430-455D-A6E9-A3012AD74722";
shapes = (
{
closed = 1;
nodes = (
(233,0,l),
(318,507,ls),
(326,555,o),
(340,572,o),
(367,572,cs),
(380,572,o),
(394,568,o),
(405,558,c),
(492,683,l),
(463,704,o),
(408,724,o),
(357,724,cs),
(233,724,o),
(163,654,o),
(144,543,cs),
(53,0,l)
);
},
{
closed = 1;
nodes = (
(396,360,l),
(420,500,l),
(62,500,l),
(38,360,l)
);
}
);
width = 415;
}
);
unicode = 102;
}
{
glyphname = g;
kernLeft = "round-left-lowercase";
layers = (
{
anchors = (
{
name = top;
pos = (310,500);
}
);
layerId = m01;
shapes = (
{
closed = 1;
nodes = (
(323,-212,o),
(444,-131,o),
(473,44,cs),
(549,500,l),
(489,500,l),
(413,48,ls),
(389,-95,o),
(300,-157,o),
(194,-157,cs),
(126,-157,o),
(63,-130,o),
(42,-115,c),
(15,-163,l),
(34,-173,o),
(100,-212,o),
(193,-212,cs)
);
},
{
closed = 1;
nodes = (
(358,0,o),
(463,105,o),
(488,254,cs),
(513,405,o),
(440,512,o),
(311,512,cs),
(181,512,o),
(72,409,o),
(47,262,cs),
(21,109,o),
(99,0,o),
(233,0,cs)
);
},
{
closed = 1;
nodes = (
(144,53,o),
(86,136,o),
(106,254,cs),
(126,374,o),
(215,460,o),
(321,460,cs),
(416,460,o),
(468,378,o),
(449,262,cs),
(429,140,o),
(344,53,o),
(246,53,cs)
);
}
);
width = 582;
},
{
anchors = (
{
name = top;
pos = (353,500);
}
);
background = {
shapes = (
{
closed = 1;
nodes = (
(346,24,o),
(428,108,o),
(452,250,cs),
(480,415,o),
(428,512,o),
(314,512,cs),
(172,512,o),
(72,416,o),
(45,254,cs),
(21,110,o),
(90,24,o),
(232,24,cs)
);
},
{
closed = 1;
nodes = (
(264,173,o),
(237,210,o),
(245,261,cs),
(255,314,o),
(293,350,o),
(341,350,cs),
(390,350,o),
(415,314,o),
(406,261,cs),
(397,210,o),
(361,173,o),
(312,173,cs)
);
}
);
};
layerId = "AEB41AA6-A430-455D-A6E9-A3012AD74722";
shapes = (
{
closed = 1;
nodes = (
(417,-212,o),
(501,-107,o),
(529,60,cs),
(603,500,l),
(423,500,l),
(348,52,ls),
(336,-19,o),
(286,-56,o),
(224,-56,cs),
(130,-56,o),
(91,-27,o),
(61,-11,c),
(-29,-146,l),
(14,-180,o),
(90,-212,o),
(222,-212,cs)
);
},
{
closed = 1;
nodes = (
(335,23,o),
(401,107,o),
(427,251,cs),
(455,404,o),
(415,512,o),
(271,512,cs),
(142,512,o),
(52,428,o),
(26,283,cs),
(-3,125,o),
(75,23,o),
(226,23,cs)
);
},
{
closed = 1;
nodes = (
(237,172,o),
(204,213,o),
(212,268,cs),
(221,317,o),
(259,350,o),
(305,350,cs),
(357,350,o),
(392,311,o),
(382,255,cs),
(373,205,o),
(335,172,o),
(288,172,cs)
);
}
);
width = 606;
}
);
metricLeft = o;
metricRight = "=|n";
unicode = 103;
}
{
glyphname = h;
kernLeft = tall_left_lowercase;
kernRight = "arch-right-lowercase";
layers = (
{
anchors = (
{
name = bottom;
pos = (235,0);
},
{
name = center;
pos = (302,400);
},
{
name = top;
pos = (181,700);
}
);
layerId = m01;
shapes = (
{
closed = 1;
nodes = (
(93,0,l),
(213,720,l),
(153,720,l),
(33,0,l)
);
},
{
closed = 1;
nodes = (
(452,0,l),
(500,284,l),
(435,258,l),
(392,0,l)
);
},
{
pos = (96,0);
ref = arch;
}
);
width = 554;
},
{
anchors = (
{
name = bottom;
pos = (248,0);
},
{
name = center;
pos = (315,400);
},
{
name = top;
pos = (210,700);
}
);
layerId = "AEB41AA6-A430-455D-A6E9-A3012AD74722";
shapes = (
{
closed = 1;
nodes = (
(185,0,l),
(303,720,l),
(123,720,l),
(5,0,l)
);
},
{
closed = 1;
nodes = (
(496,0,l),
(539,256,l),
(359,256,l),
(316,0,l)
);
},
{
pos = (176,0);
ref = arch;
}
);
width = 579;
}
);
metricLeft = l;
metricRight = n;
unicode = 104;
}
{
glyphname = k;
kernLeft = tall_left_lowercase;
kernRight = "indented-right-lowercase";
layers = (
{
anchors = (
{
name = bottom;
pos = (199,0);
}
);
layerId = m01;
shapes = (
{
closed = 1;
nodes = (
(93,0,l),
(210,700,l),
(150,700,l),
(33,0,l)
);
},
{
closed = 1;
nodes = (
(487,500,l),
(405,500,l),
(88,215,l),
(125,174,l)
);
},
{
closed = 1;
nodes = (
(421,0,l),
(242,347,l),
(198,304,l),
(348,0,l)
);
}
);
width = 464;
},
{
anchors = (
{
name = bottom;
pos = (246,0);
}
);
layerId = "AEB41AA6-A430-455D-A6E9-A3012AD74722";
shapes = (
{
closed = 1;
nodes = (
(185,0,l),
(302,700,l),
(120,700,l),
(3,0,l)
);
},
{
closed = 1;
nodes = (
(611,500,l),
(397,500,l),
(106,220,l),
(194,95,l)
);
},
{
closed = 1;
nodes = (
(533,0,l),
(352,323,l),
(218,200,l),
(330,0,l)
);
}
);
width = 587;
}
);
metricLeft = l;
unicode = 107;
}
{
glyphname = l;
kernLeft = tall_left_lowercase;
layers = (
{
anchors = (
{
name = bottom;
pos = (63,0);
},
{
name = top;
pos = (177,670);
},
{
name = top_caron;
pos = (214,700);
}
);
layerId = m01;
shapes = (
{
closed = 1;
nodes = (
(93,0,l),
(215,720,l),
(155,720,l),
(33,0,l)
);
}
);
width = 212;
},
{
anchors = (
{
name = bottom;
pos = (93,0);
},
{
name = top;
pos = (205,670);
},
{
name = top_caron;
pos = (302,700);
}
);
layerId = "AEB41AA6-A430-455D-A6E9-A3012AD74722";
shapes = (
{
closed = 1;
nodes = (
(183,0,l),
(303,720,l),
(123,720,l),
(3,0,l)
);
}
);
width = 270;
}
);
metricRight = "=|l";
unicode = 108;
}
{
glyphname = m;
kernLeft = short_lower_case;
kernRight = "arch-right-lowercase";
layers = (
{
layerId = m01;
shapes = (
{
closed = 1;
nodes = (
(93,0,l),
(161,408,l),
(173,500,l),
(117,500,l),
(33,0,l)
);
},
{
closed = 1;
nodes = (
(417,0,l),
(465,287,l),
(400,257,l),
(357,0,l)
);
},
{
closed = 1;
nodes = (
(465,284,l),
(491,436,o),
(430,512,o),
(319,512,cs),
(203,512,o),
(126,419,o),
(99,259,c),
(136,255,l),
(157,380,o),
(221,456,o),
(307,456,cs),
(378,456,o),
(428,423,o),
(400,257,c)
);
},
{
closed = 1;
nodes = (
(741,0,l),
(789,286,l),
(724,257,l),
(681,0,l)
);
},
{
closed = 1;
nodes = (
(789,284,l),
(815,436,o),
(754,512,o),
(643,512,cs),
(527,512,o),
(450,419,o),
(423,259,c),
(460,255,l),
(481,380,o),
(545,456,o),
(631,456,cs),
(702,456,o),
(752,423,o),
(724,257,c)
);
}
);
width = 843;
},
{
background = {
shapes = (
{
closed = 1;
nodes = (
(545,286,l),
(571,440,o),
(525,512,o),
(403,512,cs),
(299,512,o),
(206,424,o),
(180,266,c),
(229,266,l),
(238,320,o),
(267,345,o),
(318,343,cs),
(355,341,o),
(370,313,o),
(360,256,c)
);
}
);
};
layerId = "AEB41AA6-A430-455D-A6E9-A3012AD74722";
shapes = (
{
closed = 1;
nodes = (
(183,0,l),
(251,408,l),
(256,500,l),
(87,500,l),
(3,0,l)
);
},
{
closed = 1;
nodes = (
(496,0,l),
(544,286,l),
(360,258,l),
(316,0,l)
);
},
{
closed = 1;
nodes = (
(543,278,l),
(569,432,o),
(518,512,o),
(390,512,cs),
(292,512,o),
(206,429,o),
(180,271,c),
(227,261,l),
(236,315,o),
(262,343,o),
(316,343,cs),
(356,343,o),
(370,317,o),
(360,258,c)
);
},
{
closed = 1;
nodes = (
(809,0,l),
(857,286,l),
(673,259,l),
(629,0,l)
);
},
{
closed = 1;
nodes = (
(856,278,l),
(882,432,o),
(831,512,o),
(703,512,cs),
(605,512,o),
(519,429,o),
(493,271,c),
(540,261,l),
(549,315,o),
(575,343,o),
(629,343,cs),
(669,343,o),
(683,317,o),
(673,258,c)
);
}
);
width = 892;
}
);
metricLeft = n;
metricRight = n;
unicode = 109;
}
{
glyphname = n;
kernLeft = short_lower_case;
kernRight = "arch-right-lowercase";
layers = (
{
anchors = (
{
name = bottom;
pos = (243,0);
},
{
name = top;
pos = (324,500);
}
);
layerId = m01;
shapes = (
{
closed = 1;
nodes = (
(93,0,l),
(161,408,l),
(173,500,l),
(117,500,l),
(33,0,l)
);
},
{
closed = 1;
nodes = (
(452,0,l),
(496,258,l),
(435,258,l),
(392,0,l)
);
},
{
pos = (96,0);
ref = arch;
}
);
width = 554;
},
{
anchors = (
{
name = bottom;
pos = (249,0);
},
{
name = top;
pos = (390,500);
}
);
layerId = "AEB41AA6-A430-455D-A6E9-A3012AD74722";
shapes = (
{
closed = 1;
nodes = (
(183,0,l),
(251,408,l),
(257,500,l),
(87,500,l),
(3,0,l)
);
},
{
closed = 1;
nodes = (
(495,0,l),
(543,286,l),
(358,256,l),
(315,0,l)
);
},
{
pos = (175,0);
ref = arch;
}
);
width = 578;
}
);
unicode = 110;
}
{
glyphname = o;
kernLeft = "round-left-lowercase";
kernRight = "round-right-lowercase";
layers = (
{
anchors = (
{
name = top;
pos = (329,500);
}
);
layerId = m01;
shapes = (
{
closed = 1;
nodes = (
(391,-12,o),
(508,94,o),
(533,246,cs),
(559,402,o),
(475,512,o),
(329,512,cs),
(188,512,o),
(71,406,o),
(46,254,cs),
(20,98,o),
(105,-12,o),
(251,-12,cs)
);
},
{
closed = 1;
nodes = (
(145,43,o),
(84,126,o),
(104,246,cs),
(125,370,o),
(218,457,o),
(328,457,cs),
(436,457,o),
(495,374,o),
(475,254,cs),
(454,130,o),
(361,43,o),
(252,43,cs)
);
}
);
width = 579;
},
{
anchors = (
{
name = top;
pos = (335,500);
}
);
background = {
guides = (
{
angle = 80.5;
pos = (296,250);
}
);
shapes = (
{
closed = 1;
nodes = (
(228,159,o),
(199,202,o),
(208,257,cs),
(218,313,o),
(260,349,o),
(310,345,cs),
(361,341,o),
(390,298,o),
(381,243,cs),
(371,187,o),
(330,151,o),
(280,155,cs)
);
},
{
closed = 1;
nodes = (
(410,-23,o),
(540,75,o),
(565,228,cs),
(591,380,o),
(497,496,o),
(337,509,cs),
(179,523,o),
(49,425,o),
(24,272,cs),
(-2,120,o),
(93,4,o),
(253,-9,cs)
);
}
);
};
guides = (
{
angle = 80.5;
pos = (293,250);
}
);
layerId = "AEB41AA6-A430-455D-A6E9-A3012AD74722";
shapes = (
{
closed = 1;
nodes = (
(426,-12,o),
(541,84,o),
(565,228,cs),
(594,397,o),
(477,512,o),
(307,512,cs),
(163,512,o),
(48,416,o),
(24,272,cs),
(-5,103,o),
(114,-12,o),
(283,-12,cs)
);
},
{
closed = 1;
nodes = (
(236,154,o),
(198,193,o),
(208,257,cs),
(217,311,o),
(256,346,o),
(302,346,cs),
(353,346,o),
(391,306,o),
(381,243,cs),
(372,189,o),
(334,154,o),
(288,154,cs)
);
}
);
width = 589;
}
);
metricRight = "=|o";
unicode = 111;
}
{
glyphname = p;
kernLeft = short_lower_case;
kernRight = "round-right-lowercase";
layers = (
{
layerId = m01;
shapes = (
{
closed = 1;
nodes = (
(65,-200,l),
(166,408,l),
(178,500,l),
(122,500,l),
(5,-200,l)
);
},
{
angle = 180;
pos = (587,500);
ref = Bowl;
}
);
width = 588;
},
{
layerId = "AEB41AA6-A430-455D-A6E9-A3012AD74722";
shapes = (
{
closed = 1;
nodes = (
(155,-200,l),
(256,408,l),
(262,500,l),
(92,500,l),
(-25,-200,l)
);
},
{
angle = 180;
pos = (601,500);
ref = Bowl;
}
);
width = 612;
}
);
metricLeft = "=n+5";
metricRight = o;
unicode = 112;
}
{
glyphname = q;
kernLeft = "round-left-lowercase";
layers = (
{
layerId = m01;
shapes = (
{
closed = 1;
nodes = (
(433,-200,l),
(550,500,l),
(493,500,l),
(474,407,l),
(373,-200,l)
);
},
{
pos = (1,0);
ref = Bowl;
}
);
width = 588;
},
{
layerId = "AEB41AA6-A430-455D-A6E9-A3012AD74722";
shapes = (
{
closed = 1;
nodes = (
(487,-200,l),
(604,500,l),
(434,500,l),
(408,407,l),
(307,-200,l)
);
},
{
pos = (11,0);
ref = Bowl;
}
);
width = 612;
}
);
metricLeft = o;
metricRight = "=|p";
unicode = 113;
}
{
glyphname = r;
kernLeft = short_lower_case;
layers = (
{
anchors = (
{
name = bottom;
pos = (85,0);
},
{
name = top;
pos = (197,500);
}
);
layerId = m01;
shapes = (
{
closed = 1;
nodes = (
(93,0,l),
(177,500,l),
(117,500,l),
(33,0,l)
);
},
{
closed = 1;
nodes = (
(140,278,l),
(161,403,o),
(259,447,o),
(347,447,c),
(352,502,l),
(244,502,o),
(131,438,o),
(104,276,c)
);
}
);
width = 324;
},
{
anchors = (
{
name = bottom;
pos = (122,0);
},
{
name = top;
pos = (230,500);
}
);
layerId = "AEB41AA6-A430-455D-A6E9-A3012AD74722";
shapes = (
{
closed = 1;
nodes = (
(183,0,l),
(267,500,l),
(87,500,l),
(3,0,l)
);
},
{
closed = 1;
nodes = (
(225,251,l),
(233,299,o),
(320,326,o),
(415,326,c),
(444,502,l),
(336,502,o),
(210,413,o),
(183,251,c)
);
}
);
width = 417;
}
);
metricLeft = n;
unicode = 114;
}
{
glyphname = s;
kernLeft = short_lower_case;
layers = (
{
anchors = (
{
name = bottom;
pos = (205,-12);
},
{
name = top;
pos = (288,500);
}
);
layerId = m01;
shapes = (
{
closed = 1;
nodes = (
(314,-12,o),
(403,54,o),
(403,147,cs),
(403,206,o),
(365,256,o),
(269,282,cs),
(228,293,ls),
(171,308,o),
(144,334,o),
(144,360,cs),
(144,415,o),
(203,457,o),
(278,457,cs),
(343,457,o),
(376,440,o),
(391,388,c),
(447,407,l),
(432,471,o),
(376,512,o),
(288,512,cs),
(166,512,o),
(84,449,o),
(84,354,cs),
(84,301,o),
(128,257,o),
(205,236,cs),
(252,223,ls),
(312,206,o),
(342,183,o),
(342,145,cs),
(342,77,o),
(265,43,o),
(195,43,cs),
(140,43,o),
(91,73,o),
(77,123,c),
(21,107,l),
(32,49,o),
(89,-12,o),
(205,-12,cs)
);
}
);
width = 466;
},
{
anchors = (
{
name = bottom;
pos = (190,-12);
},
{
name = top;
pos = (291,500);
}
);
layerId = "AEB41AA6-A430-455D-A6E9-A3012AD74722";
shapes = (
{
closed = 1;
nodes = (
(323,-12,o),
(450,46,o),
(450,170,cs),
(450,240,o),
(401,289,o),
(324,308,cs),
(284,318,ls),
(249,327,o),
(232,337,o),
(232,351,cs),
(232,370,o),
(252,382,o),
(272,382,cs),
(304,382,o),
(324,371,o),
(330,344,c),
(478,397,l),
(460,465,o),
(409,512,o),
(291,512,cs),
(151,512,o),
(51,440,o),
(51,322,cs),
(51,261,o),
(88,213,o),
(163,194,cs),
(202,184,ls),
(236,175,o),
(252,164,o),
(252,148,cs),
(252,128,o),
(234,117,o),
(212,117,cs),
(192,117,o),
(163,123,o),
(153,159,c),
(0,103,l),
(12,31,o),
(90,-12,o),
(190,-12,cs)
);
}
);
width = 491;
}
);
unicode = 115;
}
{
glyphname = t;
kernLeft = tall_left_lowercase;
kernRight = t;
layers = (
{
anchors = (
{
name = bottom;
pos = (177,0);
},
{
name = top_caron;
pos = (285,726);
}
);
layerId = m01;
shapes = (
{
closed = 1;
nodes = (
(243,-12,o),
(266,-9,o),
(310,12,c),
(290,66,l),
(256,49,o),
(242,43,o),
(225,43,cs),
(173,43,o),
(149,72,o),
(158,126,cs),
(247,656,l),
(187,656,l),
(99,130,ls),
(84,41,o),
(129,-12,o),
(218,-12,cs)
);
},
{
closed = 1;
nodes = (
(371,445,l),
(380,500,l),
(72,500,l),
(63,445,l)
);
}
);
width = 379;
},
{
anchors = (
{
name = bottom;
pos = (198,0);
},
{
name = top_caron;
pos = (360,726);
}
);
layerId = "AEB41AA6-A430-455D-A6E9-A3012AD74722";
shapes = (
{
closed = 1;
nodes = (
(281,-12,o),
(339,13,o),
(375,40,c),
(336,170,l),
(325,163,o),
(305,155,o),
(294,155,cs),
(269,155,o),
(262,169,o),
(268,207,cs),
(343,656,l),
(163,656,l),
(80,158,ls),
(62,48,o),
(110,-12,o),
(234,-12,cs)
);
},
{
closed = 1;
nodes = (
(395,350,l),
(420,500,l),
(62,500,l),
(37,350,l)
);
}
);
width = 425;
}
);
metricLeft = f;
unicode = 116;
}
{
glyphname = u;
kernLeft = short_lower_case;
layers = (
{
anchors = (
{
name = ogonek;
pos = (437,0);
},
{
name = top;
pos = (310,500);
}
);
layerId = m01;
shapes = (
{
closed = 1;
nodes = (
(437,0,l),
(521,500,l),
(461,500,l),
(393,92,l),
(381,0,l)
);
},
{
angle = 180;
pos = (458,500);
ref = arch;
},
{
closed = 1;
nodes = (
(119,242,l),
(162,500,l),
(102,500,l),
(54,216,l)
);
}
);
width = 554;
},
{
anchors = (
{
name = ogonek;
pos = (492,0);
},
{
name = top;
pos = (329,500);
}
);
layerId = "AEB41AA6-A430-455D-A6E9-A3012AD74722";
shapes = (
{
closed = 1;
nodes = (
(492,0,l),
(576,500,l),
(396,500,l),
(328,92,l),
(322,0,l)
);
},
{
angle = 180;
pos = (403,500);
ref = arch;
},
{
closed = 1;
nodes = (
(220,244,l),
(263,500,l),
(83,500,l),
(40,244,l)
);
}
);
width = 579;
}
);
metricLeft = "=|n";
metricRight = "=|n";
unicode = 117;
}
{
glyphname = v;
kernLeft = "undercut-left-lowercase";
kernRight = "undercut-right-lowercase";
layers = (
{
layerId = m01;
shapes = (
{
closed = 1;
nodes = (
(245,0,l),
(539,500,l),
(474,500,l),
(181,0,l)
);
},
{
closed = 1;
nodes = (
(238,0,l),
(111,500,l),
(52,500,l),
(180,0,l)
);
}
);
width = 507;
},
{
layerId = "AEB41AA6-A430-455D-A6E9-A3012AD74722";
shapes = (
{
closed = 1;
nodes = (
(342,0,l),
(627,500,l),
(441,500,l),
(181,0,l)
);
},
{
closed = 1;
nodes = (
(325,0,l),
(233,500,l),
(47,500,l),
(164,0,l)
);
}
);
width = 590;
}
);
unicode = 118;
}
{
glyphname = w;
kernLeft = "undercut-left-lowercase";
kernRight = "undercut-right-lowercase";
layers = (
{
anchors = (
{
name = top;
pos = (424,500);
}
);
layerId = m01;
shapes = (
{
closed = 1;
nodes = (
(199,0,l),
(111,500,l),
(52,500,l),
(139,0,l)
);
},
{
closed = 1;
nodes = (
(200,0,l),
(454,500,l),
(394,500,l),
(139,0,l)
);
},
{
closed = 1;
nodes = (
(542,0,l),
(454,500,l),
(395,500,l),
(482,0,l)
);
},
{
closed = 1;
nodes = (
(543,0,l),
(796,500,l),
(735,500,l),
(481,0,l)
);
}
);
width = 764;
},
{
anchors = (
{
name = top;
pos = (489,500);
}
);
layerId = "AEB41AA6-A430-455D-A6E9-A3012AD74722";
shapes = (
{
closed = 1;
nodes = (
(308,0,l),
(241,500,l),
(57,500,l),
(143,0,l)
);
},
{
closed = 1;
nodes = (
(319,0,l),
(551,500,l),
(400,500,l),
(164,0,l)
);
},
{
closed = 1;
nodes = (
(644,0,l),
(577,500,l),
(426,500,l),
(489,0,l)
);
},
{
closed = 1;
nodes = (
(665,0,l),
(920,500,l),
(736,500,l),
(490,0,l)
);
}
);
width = 893;
}
);
unicode = 119;
}
{
glyphname = x;
kernLeft = x;
kernRight = x;
layers = (
{
layerId = m01;
shapes = (
{
closed = 1;
nodes = (
(44,0,l),
(243,233,l),
(474,500,l),
(400,500,l),
(220,288,l),
(-32,0,l)
);
},
{
closed = 1;
nodes = (
(400,0,l),
(246,288,l),
(137,500,l),
(67,500,l),
(212,233,l),
(329,0,l)
);
}
);
width = 452;
},
{
layerId = "AEB41AA6-A430-455D-A6E9-A3012AD74722";
shapes = (
{
closed = 1;
nodes = (
(182,0,l),
(357,213,l),
(612,500,l),
(400,500,l),
(222,284,l),
(-32,0,l)
);
},
{
closed = 1;
nodes = (
(540,0,l),
(383,284,l),
(277,500,l),
(65,500,l),
(226,213,l),
(327,0,l)
);
}
);
width = 592;
}
);
unicode = 120;
}
{
glyphname = y;
kernLeft = "undercut-left-lowercase";
kernRight = "undercut-right-lowercase";
layers = (
{
anchors = (
{
name = top;
pos = (294,500);
}
);
layerId = m01;
shapes = (
{
closed = 1;
nodes = (
(105,-212,o),
(146,-167,o),
(196,-82,cs),
(538,500,l),
(474,500,l),
(201,39,l),
(122,-95,ls),
(100,-133,o),
(71,-157,o),
(31,-157,cs),
(19,-157,o),
(-3,-151,o),
(-36,-138,c),
(-63,-187,l),
(-26,-203,o),
(2,-212,o),
(25,-212,cs)
);
},
{
closed = 1;
nodes = (
(240,0,l),
(229,40,l),
(113,500,l),
(52,500,l),
(180,0,l)
);
}
);
width = 506;
},
{
anchors = (
{
name = top;
pos = (353,500);
}
);
layerId = "AEB41AA6-A430-455D-A6E9-A3012AD74722";
shapes = (
{
closed = 1;
nodes = (
(245,-212,o),
(297,-130,o),
(362,-18,cs),
(664,500,l),
(464,500,l),
(267,130,l),
(183,-10,ls),
(168,-36,o),
(146,-45,o),
(125,-45,cs),
(110,-45,o),
(93,-37,o),
(81,-25,c),
(-10,-170,l),
(16,-190,o),
(72,-212,o),
(119,-212,cs)
);
},
{
closed = 1;
nodes = (
(368,0,l),
(329,130,l),
(242,500,l),
(42,500,l),
(198,0,l)
);
}
);
width = 622;
}
);
unicode = 121;
}
{
glyphname = z;
kernLeft = short_lower_case;
layers = (
{
anchors = (
{
name = top;
pos = (289,500);
}
);
layerId = m01;
shapes = (
{
closed = 1;
nodes = (
(478,451,l),
(432,483,l),
(17,52,l),
(64,20,l)
);
},
{
closed = 1;
nodes = (
(405,0,l),
(414,55,l),
(60,55,l),
(17,52,l),
(8,0,l)
);
},
{
closed = 1;
nodes = (
(435,445,l),
(478,451,l),
(486,500,l),
(92,500,l),
(83,445,l)
);
}
);
width = 497;
},
{
anchors = (
{
name = top;
pos = (274,500);
}
);
layerId = "AEB41AA6-A430-455D-A6E9-A3012AD74722";
shapes = (
{
closed = 1;
nodes = (
(465,375,l),
(381,490,l),
(-1,125,l),
(89,14,l)
);
},
{
closed = 1;
nodes = (
(402,0,l),
(426,144,l),
(105,144,l),
(-1,125,l),
(-22,0,l)
);
},
{
closed = 1;
nodes = (
(354,355,l),
(465,375,l),
(486,500,l),
(62,500,l),
(38,355,l)
);
}
);
width = 464;
}
);
unicode = 122;
}
{
glyphname = braceleft;
layers = (
{
background = {
shapes = (
{
closed = 1;
nodes = (
(307,-52,l),
(204,-27,o),
(132,139,o),
(132,350,cs),
(132,561,o),
(203,727,o),
(304,752,c),
(294,800,l),
(162,778,o),
(68,592,o),
(68,350,cs),
(68,108,o),
(163,-78,o),
(297,-100,c)
);
}
);
};
layerId = m01;
shapes = (
{
closed = 1;
nodes = (
(209,339,o),
(246,372,o),
(269,509,cs),
(300,692,o),
(330,740,o),
(408,742,c),
(414,800,l),
(284,800,o),
(245,744,o),
(206,516,cs),
(188,404,o),
(161,375,o),
(81,375,c),
(78,339,l)
);
},
{
closed = 1;
nodes = (
(273,-42,l),
(195,-40,o),
(185,4,o),
(215,183,cs),
(238,324,o),
(211,361,o),
(80,361,c),
(77,325,l),
(157,325,o),
(170,300,o),
(152,192,cs),
(113,-40,o),
(137,-100,o),
(267,-100,c)
);
}
);
width = 386;
},
{
background = {
shapes = (
{
closed = 1;
nodes = (
(242,339,o),
(290,374,o),
(290,513,cs),
(290,631,o),
(302,661,o),
(352,662,c),
(352,800,l),
(182,800,o),
(140,742,o),
(140,512,cs),
(140,434,o),
(122,415,o),
(50,415,c),
(50,339,l)
);
},
{
closed = 1;
nodes = (
(352,38,l),
(303,39,o),
(291,69,o),
(291,187,cs),
(291,326,o),
(243,361,o),
(50,361,c),
(50,285,l),
(122,285,o),
(140,266,o),
(140,188,cs),
(140,-42,o),
(182,-100,o),
(352,-100,c)
);
}
);
};
guides = (
{
angle = 80.5;
pos = (71,369);
}
);
layerId = "AEB41AA6-A430-455D-A6E9-A3012AD74722";
shapes = (
{
closed = 1;
nodes = (
(261,339,o),
(310,368,o),
(332,502,cs),
(353,625,o),
(372,662,o),
(421,662,c),
(444,800,l),
(270,800,o),
(223,748,o),
(186,523,cs),
(172,440,o),
(146,415,o),
(78,415,c),
(66,339,l)
);
},
{
closed = 1;
nodes = (
(317,38,l),
(262,38,o),
(260,64,o),
(279,176,cs),
(303,321,o),
(257,361,o),
(70,361,c),
(57,285,l),
(133,285,o),
(144,271,o),
(131,199,cs),
(92,-37,o),
(128,-100,o),
(293,-100,c)
);
}
);
width = 402;
}
);
unicode = 123;
}
{
glyphname = bar;
layers = (
{
layerId = m01;
shapes = (
{
closed = 1;
nodes = (
(79,-220,l),
(248,790,l),
(190,790,l),
(21,-220,l)
);
}
);
width = 258;
},
{
layerId = "AEB41AA6-A430-455D-A6E9-A3012AD74722";
shapes = (
{
closed = 1;
nodes = (
(116,-220,l),
(285,790,l),
(150,790,l),
(-19,-220,l)
);
}
);
width = 255;
}
);
metricLeft = I;
metricRight = I;
unicode = 124;
}
{
glyphname = asciitilde;
layers = (
{
background = {
shapes = (
{
closed = 1;
nodes = (
(420,237,o),
(461,296,o),
(469,368,c),
(414,368,l),
(406,324,o),
(387,294,o),
(351,294,cs),
(327,294,o),
(302,322,o),
(284,341,cs),
(257,370,o),
(221,396,o),
(177,396,cs),
(109,396,o),
(65,335,o),
(60,265,c),
(114,265,l),
(123,310,o),
(142,339,o),
(177,339,cs),
(195,339,o),
(215,326,o),
(247,290,cs),
(274,259,o),
(302,237,o),
(351,237,cs)
);
}
);
};
layerId = m01;
shapes = (
{
closed = 1;
nodes = (
(423,237,o),
(465,292,o),
(482,368,c),
(428,368,l),
(412,323,o),
(389,294,o),
(355,294,cs),
(337,294,o),
(321,304,o),
(294,340,cs),
(272,369,o),
(234,396,o),
(197,396,cs),
(122,396,o),
(79,341,o),
(63,265,c),
(117,265,l),
(133,310,o),
(156,339,o),
(190,339,cs),
(208,339,o),
(224,329,o),
(251,293,cs),
(273,264,o),
(311,237,o),
(348,237,cs)
);
}
);
width = 522;
},
{
background = {
shapes = (
{
closed = 1;
nodes = (
(362,168,o),
(419,145,o),
(515,145,cs),
(646,145,o),
(714,245,o),
(714,388,c),
(574,388,l),
(570,348,o),
(554,320,o),
(517,320,cs),
(475,320,o),
(452,374,o),
(437,402,cs),
(412,449,o),
(366,488,o),
(254,488,cs),
(123,488,o),
(55,388,o),
(55,245,c),
(195,245,l),
(199,291,o),
(221,313,o),
(249,313,cs),
(288,313,o),
(306,280,o),
(321,250,cs)
);
}
);
};
layerId = "AEB41AA6-A430-455D-A6E9-A3012AD74722";
shapes = (
{
closed = 1;
nodes = (
(623,145,o),
(708,245,o),
(732,388,c),
(592,388,l),
(581,348,o),
(561,320,o),
(524,320,cs),
(479,320,o),
(464,374,o),
(452,402,cs),
(433,445,o),
(378,488,o),
(289,488,cs),
(158,488,o),
(73,388,o),
(49,245,c),
(189,245,l),
(201,291,o),
(227,313,o),
(255,313,cs),
(297,313,o),
(310,280,o),
(321,250,cs),
(350,172,o),
(418,145,o),
(492,145,cs)
);
}
);
width = 759;
}
);
metricLeft = hyphen;
metricRight = hyphen;
unicode = 126;
}
{
glyphname = cent;
layers = (
{
layerId = m01;
shapes = (
{
closed = 1;
nodes = (
(268,0,l),
(388,700,l),
(332,700,l),
(213,0,l)
);
},
{
pos = (18,110);
ref = c;
}
);
width = 540;
},
{
layerId = "AEB41AA6-A430-455D-A6E9-A3012AD74722";
shapes = (
{
closed = 1;
nodes = (
(297,0,l),
(414,700,l),
(331,700,l),
(214,0,l)
);
},
{
alignment = -1;
pos = (18,110);
ref = c;
}
);
width = 558;
}
);
metricLeft = "=c";
metricRight = "=c";
unicode = 162;
}
{
glyphname = sterling;
layers = (
{
layerId = m01;
shapes = (
{
closed = 1;
nodes = (
(173,133,l),
(238,517,ls),
(251,596,o),
(318,654,o),
(397,654,cs),
(472,654,o),
(515,601,o),
(502,523,c),
(562,509,l),
(584,636,o),
(513,712,o),
(398,712,cs),
(285,712,o),
(193,634,o),
(174,521,cs),
(107,122,l)
);
},
{
closed = 1;
nodes = (
(104,0,o),
(159,48,o),
(173,133,c),
(107,122,l),
(102,87,o),
(72,58,o),
(44,58,c),
(44,0,l)
);
},
{
closed = 1;
nodes = (
(477,0,l),
(487,58,l),
(18,58,l),
(8,0,l)
);
},
{
closed = 1;
nodes = (
(399,291,l),
(409,350,l),
(67,350,l),
(57,291,l)
);
}
);
width = 569;
},
{
layerId = "AEB41AA6-A430-455D-A6E9-A3012AD74722";
shapes = (
{
closed = 1;
nodes = (
(282,235,l),
(322,471,ls),
(331,527,o),
(366,560,o),
(410,560,cs),
(435,560,o),
(453,547,o),
(446,509,c),
(623,488,l),
(648,639,o),
(557,712,o),
(413,712,cs),
(273,712,o),
(172,643,o),
(144,481,cs),
(102,235,l)
);
},
{
closed = 1;
nodes = (
(158,88,o),
(268,152,o),
(282,235,c),
(102,235,l),
(97,202,o),
(62,170,o),
(34,170,c),
(33,88,l)
);
},
{
closed = 1;
nodes = (
(541,0,l),
(569,170,l),
(26,170,l),
(-2,0,l)
);
},
{
closed = 1;
nodes = (
(497,272,l),
(520,412,l),
(67,412,l),
(44,272,l)
);
}
);
width = 613;
}
);
unicode = 163;
}
{
glyphname = currency;
layers = (
{
guides = (
{
pos = (-20,350);
}
);
layerId = m01;
shapes = (
{
closed = 1;
nodes = (
(358,189,o),
(435,254,o),
(450,346,cs),
(465,440,o),
(408,506,o),
(311,506,cs),
(219,506,o),
(143,443,o),
(128,354,cs),
(113,257,o),
(170,189,o),
(266,189,cs)
);
},
{
closed = 1;
nodes = (
(189,234,l),
(153,272,l),
(72,201,l),
(106,162,l)
);
},
{
closed = 1;
nodes = (
(450,201,l),
(400,261,l),
(355,222,l),
(405,162,l)
);
},
{
closed = 1;
nodes = (
(210,243,o),
(177,286,o),
(187,346,cs),
(198,408,o),
(248,452,o),
(310,452,cs),
(368,452,o),
(401,411,o),
(391,354,cs),
(380,289,o),
(329,243,o),
(267,243,cs)
);
},
{
closed = 1;
nodes = (
(228,468,l),
(166,540,l),
(122,500,l),
(183,429,l)
);
},
{
closed = 1;
nodes = (
(500,500,l),
(465,540,l),
(388,473,l),
(424,435,l)
);
}
);
width = 538;
},
{
guides = (
{
pos = (-2,350);
}
);
layerId = "AEB41AA6-A430-455D-A6E9-A3012AD74722";
shapes = (
{
closed = 1;
nodes = (
(437,131,o),
(540,217,o),
(561,339,cs),
(583,474,o),
(500,569,o),
(360,569,cs),
(235,569,o),
(132,483,o),
(112,361,cs),
(89,226,o),
(172,131,o),
(313,131,cs)
);
},
{
closed = 1;
nodes = (
(303,238,l),
(215,333,l),
(51,188,l),
(136,91,l)
);
},
{
closed = 1;
nodes = (
(568,188,l),
(441,333,l),
(330,238,l),
(459,91,l)
);
},
{
closed = 1;
nodes = (
(286,281,o),
(267,300,o),
(267,327,cs),
(267,381,o),
(306,419,o),
(360,419,cs),
(387,419,o),
(406,400,o),
(406,372,cs),
(406,319,o),
(367,281,o),
(313,281,cs)
);
},
{
closed = 1;
nodes = (
(350,454,l),
(213,609,l),
(104,512,l),
(240,359,l)
);
},
{
closed = 1;
nodes = (
(622,512,l),
(537,609,l),
(360,463,l),
(448,368,l)
);
}
);
width = 638;
}
);
unicode = 164;
}
{
glyphname = yen;
layers = (
{
layerId = m01;
shapes = (
{
closed = 1;
nodes = (
(589,712,l),
(517,712,l),
(254,328,l),
(301,296,l)
);
},
{
closed = 1;
nodes = (
(250,0,l),
(306,336,l),
(242,336,l),
(186,0,l)
);
},
{
closed = 1;
nodes = (
(421,194,l),
(429,246,l),
(89,246,l),
(81,194,l)
);
},
{
closed = 1;
nodes = (
(438,296,l),
(446,348,l),
(106,348,l),
(98,296,l)
);
},
{
closed = 1;
nodes = (
(292,328,l),
(157,712,l),
(87,712,l),
(237,296,l)
);
}
);
width = 522;
},
{
layerId = "AEB41AA6-A430-455D-A6E9-A3012AD74722";
shapes = (
{
closed = 1;
nodes = (
(716,700,l),
(501,700,l),
(244,318,l),
(415,287,l)
);
},
{
closed = 1;
nodes = (
(371,0,l),
(427,336,l),
(242,336,l),
(186,0,l)
);
},
{
closed = 1;
nodes = (
(543,164,l),
(558,256,l),
(83,256,l),
(68,164,l)
);
},
{
closed = 1;
nodes = (
(563,284,l),
(578,376,l),
(103,376,l),
(88,284,l)
);
},
{
closed = 1;
nodes = (
(414,318,l),
(285,700,l),
(80,700,l),
(243,287,l)
);
}
);
width = 646;
}
);
unicode = 165;
}
{
glyphname = brokenbar;
layers = (
{
layerId = m01;
shapes = (
{
closed = 1;
nodes = (
(175,350,l),
(248,790,l),
(190,790,l),
(117,350,l)
);
},
{
closed = 1;
nodes = (
(79,-220,l),
(153,220,l),
(95,220,l),
(21,-220,l)
);
}
);
width = 258;
},
{
layerId = "AEB41AA6-A430-455D-A6E9-A3012AD74722";
shapes = (
{
closed = 1;
nodes = (
(252,350,l),
(325,790,l),
(190,790,l),
(117,350,l)
);
},
{
closed = 1;
nodes = (
(156,-220,l),
(230,220,l),
(95,220,l),
(21,-220,l)
);
}
);
width = 335;
}
);
unicode = 166;
}
{
glyphname = section;
layers = (
{
layerId = m01;
shapes = (
{
closed = 1;
nodes = (
(370,-90,o),
(442,-25,o),
(456,57,cs),
(467,123,o),
(418,186,o),
(319,211,cs),
(264,225,ls),
(215,237,o),
(187,260,o),
(195,307,cs),
(204,364,o),
(251,402,o),
(316,402,cs),
(371,402,o),
(428,373,o),
(440,324,c),
(491,338,l),
(483,398,o),
(434,459,o),
(333,459,cs),
(218,459,o),
(146,404,o),
(130,310,cs),
(117,230,o),
(170,184,o),
(240,166,cs),
(296,152,ls),
(361,136,o),
(399,107,o),
(391,60,cs),
(382,5,o),
(325,-33,o),
(241,-33,cs),
(176,-33,o),
(135,3,o),
(127,48,c),
(64,30,l),
(74,-31,o),
(131,-90,o),
(249,-90,cs)
);
},
{
closed = 1;
nodes = (
(407,163,o),
(479,228,o),
(493,310,cs),
(504,376,o),
(457,440,o),
(357,465,cs),
(301,479,ls),
(252,491,o),
(224,513,o),
(232,560,cs),
(241,617,o),
(292,655,o),
(363,655,cs),
(426,655,o),
(467,626,o),
(477,577,c),
(539,594,l),
(530,652,o),
(476,712,o),
(370,712,cs),
(255,712,o),
(183,657,o),
(167,563,cs),
(154,483,o),
(208,439,o),
(277,420,cs),
(333,405,ls),
(398,387,o),
(436,360,o),
(428,313,cs),
(420,260,o),
(367,223,o),
(291,223,cs),
(219,223,o),
(175,258,o),
(164,301,c),
(129,288,l),
(136,225,o),
(184,163,o),
(286,163,cs)
);
}
);
width = 588;
},
{
layerId = "AEB41AA6-A430-455D-A6E9-A3012AD74722";
shapes = (
{
closed = 1;
nodes = (
(322,-91,o),
(399,-34,o),
(416,64,cs),
(430,146,o),
(383,215,o),
(302,238,cs),
(224,260,ls),
(193,269,o),
(180,279,o),
(183,297,cs),
(190,340,o),
(225,364,o),
(275,364,cs),
(312,364,o),
(330,343,o),
(334,315,c),
(458,344,l),
(439,428,o),
(378,476,o),
(271,476,cs),
(150,476,o),
(70,418,o),
(54,319,cs),
(39,232,o),
(88,172,o),
(166,150,cs),
(242,129,ls),
(276,119,o),
(288,105,o),
(285,86,cs),
(278,45,o),
(235,20,o),
(189,21,cs),
(154,22,o),
(130,41,o),
(126,73,c),
(-4,44,l),
(-3,-25,o),
(86,-91,o),
(199,-91,cs)
);
},
{
closed = 1;
nodes = (
(365,145,o),
(442,202,o),
(458,299,cs),
(472,382,o),
(426,453,o),
(344,474,cs),
(267,494,ls),
(236,502,o),
(222,515,o),
(225,533,cs),
(232,576,o),
(268,600,o),
(318,600,cs),
(355,600,o),
(373,579,o),
(376,551,c),
(504,581,l),
(484,664,o),
(423,712,o),
(313,712,cs),
(192,712,o),
(113,654,o),
(96,555,cs),
(82,468,o),
(130,408,o),
(209,386,cs),
(285,365,ls),
(319,355,o),
(330,341,o),
(327,321,cs),
(320,281,o),
(278,257,o),
(233,257,cs),
(220,257,o),
(173,277,o),
(168,308,c),
(55,285,l),
(55,213,o),
(137,145,o),
(242,145,cs)
);
}
);
width = 482;
}
);
unicode = 167;
}
{
glyphname = copyright;
layers = (
{
anchors = (
{
name = bottom;
pos = (212,133);
},
{
name = top;
pos = (280,548);
}
);
layerId = m01;
shapes = (
{
closed = 1;
nodes = (
(462,152,o),
(533,192,o),
(572,255,c),
(521,284,l),
(492,239,o),
(441,203,o),
(388,203,cs),
(316,203,o),
(274,261,o),
(288,341,cs),
(302,432,o),
(370,496,o),
(450,496,cs),
(495,496,o),
(533,469,o),
(546,427,c),
(599,442,l),
(580,502,o),
(520,548,o),
(444,548,cs),
(338,548,o),
(250,469,o),
(230,357,cs),
(211,234,o),
(282,152,o),
(393,152,cs)
);
},
{
closed = 1;
nodes = (
(570,-11,o),
(756,148,o),
(789,346,cs),
(823,548,o),
(687,712,o),
(485,712,cs),
(287,712,o),
(101,552,o),
(67,354,cs),
(34,152,o),
(170,-11,o),
(372,-11,cs)
);
},
{
closed = 1;
nodes = (
(203,45,o),
(99,170,o),
(128,346,cs),
(158,527,o),
(309,656,o),
(484,656,cs),
(654,656,o),
(758,530,o),
(728,354,cs),
(698,173,o),
(548,45,o),
(374,45,cs)
);
}
);
userData = {
RMXScaler = {
height = 60;
verticalShift = 140;
width = 60;
};
};
width = 823;
},
{
anchors = (
{
name = bottom;
pos = (206,113);
},
{
name = top;
pos = (279,545);
}
);
background = {
shapes = (
{
closed = 1;
nodes = (
(560,-11,o),
(728,134,o),
(763,339,cs),
(799,557,o),
(670,712,o),
(452,712,cs),
(246,712,o),
(77,567,o),
(44,361,cs),
(7,143,o),
(137,-11,o),
(356,-11,cs)
);
},
{
closed = 1;
nodes = (
(211,99,o),
(130,198,o),
(154,339,cs),
(180,493,o),
(306,602,o),
(458,602,cs),
(595,602,o),
(676,502,o),
(653,361,cs),
(627,208,o),
(501,99,o),
(349,99,cs)
);
},
{
closed = 1;
nodes = (
(477,152,o),
(548,202,o),
(588,283,c),
(482,321,l),
(455,282,o),
(436,262,o),
(385,262,cs),
(329,262,o),
(307,294,o),
(315,344,cs),
(324,397,o),
(374,438,o),
(425,438,cs),
(474,438,o),
(487,421,o),
(497,385,c),
(606,406,l),
(593,488,o),
(535,548,o),
(429,548,cs),
(315,548,o),
(222,469,o),
(203,360,cs),
(183,238,o),
(257,152,o),
(380,152,cs)
);
}
);
};
guides = (
{
pos = (425,548);
},
{
pos = (384,152);
}
);
layerId = "AEB41AA6-A430-455D-A6E9-A3012AD74722";
shapes = (
{
closed = 1;
nodes = (
(475,152,o),
(545,201,o),
(585,276,c),
(473,316,l),
(452,285,o),
(431,262,o),
(387,262,cs),
(346,262,o),
(323,295,o),
(331,342,cs),
(341,400,o),
(385,438,o),
(432,438,cs),
(464,438,o),
(480,420,o),
(488,387,c),
(606,415,l),
(590,492,o),
(532,547,o),
(433,547,cs),
(322,547,o),
(229,469,o),
(211,357,cs),
(191,238,o),
(260,152,o),
(382,152,cs)
);
},
{
closed = 1;
nodes = (
(560,-11,o),
(728,134,o),
(763,339,cs),
(799,557,o),
(670,712,o),
(452,712,cs),
(246,712,o),
(77,567,o),
(44,361,cs),
(7,143,o),
(137,-11,o),
(356,-11,cs)
);
},
{
closed = 1;
nodes = (
(211,99,o),
(130,198,o),
(154,339,cs),
(180,493,o),
(306,602,o),
(458,602,cs),
(595,602,o),
(676,502,o),
(653,361,cs),
(627,208,o),
(501,99,o),
(349,99,cs)
);
}
);
userData = {
RMXScaler = {
height = 60;
verticalShift = 120;
weight = -260;
width = 60;
};
};
width = 773;
}
);
metricLeft = O;
metricRight = O;
unicode = 169;
userData = {
RMXScaler = {
source = C;
};
};
}
{
glyphname = ordfeminine;
layers = (
{
anchors = (
{
name = ogonek;
pos = (349,400);
},
{
name = top;
pos = (248,700);
}
);
layerId = m01;
shapes = (
{
closed = 1;
nodes = (
(280,393,o),
(345,476,o),
(345,590,cs),
(345,661,o),
(307,707,o),
(242,707,cs),
(141,707,o),
(80,614,o),
(80,515,cs),
(80,443,o),
(129,393,o),
(195,393,cs)
);
},
{
closed = 1;
nodes = (
(168,446,o),
(140,479,o),
(140,526,cs),
(140,589,o),
(185,654,o),
(250,654,cs),
(292,654,o),
(319,623,o),
(319,576,cs),
(319,515,o),
(277,446,o),
(212,446,cs)
);
},
{
closed = 1;
nodes = (
(349,400,l),
(400,700,l),
(342,700,l),
(301,456,l),
(294,400,l)
);
}
);
userData = {
RMXScaler = {
height = 60;
verticalShift = 400;
weight = -10;
width = 60;
};
};
width = 378;
},
{
anchors = (
{
name = ogonek;
pos = (373,400);
},
{
name = top;
pos = (226,700);
}
);
layerId = "AEB41AA6-A430-455D-A6E9-A3012AD74722";
shapes = (
{
closed = 1;
nodes = (
(294,393,o),
(312,529,o),
(312,607,cs),
(312,671,o),
(286,707,o),
(224,707,cs),
(112,707,o),
(62,621,o),
(62,507,cs),
(62,438,o),
(116,393,o),
(181,393,cs)
);
},
{
closed = 1;
nodes = (
(204,504,o),
(191,520,o),
(191,542,cs),
(191,570,o),
(213,596,o),
(240,596,cs),
(263,596,o),
(279,581,o),
(279,559,cs),
(279,530,o),
(256,504,o),
(226,504,cs)
);
},
{
closed = 1;
nodes = (
(373,400,l),
(423,700,l),
(304,700,l),
(263,456,l),
(259,400,l)
);
}
);
userData = {
RMXScaler = {
height = 60;
verticalShift = 400;
weight = -300;
width = 60;
};
};
width = 380;
}
);
metricLeft = "=a*.7";
metricRight = "=a*.7";
unicode = 170;
userData = {
RMXScaler = {
source = a;
};
};
}
{
glyphname = logicalnot;
layers = (
{
layerId = m01;
shapes = (
{
closed = 1;
nodes = (
(479,299,l),
(489,356,l),
(129,356,l),
(119,299,l)
);
},
{
closed = 1;
nodes = (
(463,201,l),
(489,356,l),
(432,356,l),
(406,201,l)
);
}
);
width = 620;
},
{
layerId = "AEB41AA6-A430-455D-A6E9-A3012AD74722";
shapes = (
{
closed = 1;
nodes = (
(493,265,l),
(517,409,l),
(147,409,l),
(123,265,l)
);
},
{
closed = 1;
nodes = (
(471,135,l),
(517,409,l),
(373,409,l),
(327,135,l)
);
}
);
width = 640;
}
);
unicode = 172;
}
{
glyphname = registered;
layers = (
{
layerId = m01;
shapes = (
{
closed = 1;
nodes = (
(459,176,o),
(587,285,o),
(613,440,cs),
(640,599,o),
(546,712,o),
(386,712,cs),
(232,712,o),
(104,603,o),
(78,448,cs),
(51,289,o),
(145,176,o),
(305,176,cs)
);
},
{
closed = 1;
nodes = (
(179,228,o),
(110,313,o),
(131,440,cs),
(152,569,o),
(258,660,o),
(386,660,cs),
(511,660,o),
(581,575,o),
(560,448,cs),
(539,319,o),
(433,228,o),
(305,228,cs)
);
},
{
closed = 1;
nodes = (
(269,301,l),
(287,409,l),
(340,409,l),
(384,301,l),
(436,301,l),
(387,417,l),
(425,431,o),
(451,461,o),
(457,497,cs),
(467,553,o),
(429,593,o),
(370,593,cs),
(270,593,l),
(222,301,l)
);
},
{
closed = 1;
nodes = (
(310,550,l),
(365,550,ls),
(398,550,o),
(415,532,o),
(411,505,cs),
(406,475,o),
(378,453,o),
(350,453,cs),
(294,453,l)
);
}
);
width = 626;
},
{
layerId = "AEB41AA6-A430-455D-A6E9-A3012AD74722";
shapes = (
{
closed = 1;
nodes = (
(449,144,o),
(591,266,o),
(616,417,cs),
(643,580,o),
(532,712,o),
(369,712,cs),
(218,712,o),
(77,590,o),
(52,439,cs),
(24,276,o),
(135,144,o),
(299,144,cs)
);
},
{
closed = 1;
nodes = (
(170,216,o),
(103,296,o),
(125,427,cs),
(146,553,o),
(246,640,o),
(369,640,cs),
(497,640,o),
(565,559,o),
(543,429,cs),
(522,303,o),
(421,216,o),
(299,216,cs)
);
},
{
closed = 1;
nodes = (
(279,292,l),
(294,384,l),
(324,384,l),
(361,292,l),
(445,292,l),
(404,396,l),
(441,412,o),
(460,441,o),
(465,473,cs),
(476,537,o),
(432,583,o),
(366,583,cs),
(251,583,l),
(202,292,l)
);
},
{
closed = 1;
nodes = (
(316,513,l),
(362,513,ls),
(382,513,o),
(390,506,o),
(388,495,cs),
(384,472,o),
(360,455,o),
(340,455,cs),
(306,455,l)
);
}
);
width = 608;
}
);
metricLeft = o;
metricRight = o;
unicode = 174;
}
{
glyphname = degree;
layers = (
{
layerId = m01;
shapes = (
{
closed = 1;
nodes = (
(288,447,o),
(358,507,o),
(369,578,cs),
(382,651,o),
(329,712,o),
(255,712,cs),
(185,712,o),
(117,655,o),
(106,586,cs),
(93,511,o),
(144,447,o),
(218,447,cs)
);
},
{
closed = 1;
nodes = (
(183,502,o),
(158,537,o),
(164,578,cs),
(172,621,o),
(213,657,o),
(254,657,cs),
(292,657,o),
(317,625,o),
(311,586,cs),
(303,541,o),
(262,502,o),
(220,502,cs)
);
}
);
width = 364;
},
{
layerId = "AEB41AA6-A430-455D-A6E9-A3012AD74722";
shapes = (
{
closed = 1;
nodes = (
(327,405,o),
(405,477,o),
(405,582,cs),
(405,657,o),
(349,712,o),
(269,712,cs),
(159,712,o),
(81,640,o),
(81,535,cs),
(81,460,o),
(137,405,o),
(217,405,cs)
);
},
{
closed = 1;
nodes = (
(214,512,o),
(199,529,o),
(199,552,cs),
(199,583,o),
(221,605,o),
(251,605,cs),
(272,605,o),
(287,588,o),
(287,565,cs),
(287,534,o),
(265,512,o),
(235,512,cs)
);
}
);
width = 382;
}
);
unicode = 176;
}
{
glyphname = plusminus;
layers = (
{
layerId = m01;
shapes = (
{
closed = 1;
nodes = (
(320,139,l),
(389,547,l),
(332,547,l),
(263,139,l)
);
},
{
closed = 1;
nodes = (
(546,314,l),
(555,371,l),
(105,371,l),
(96,314,l)
);
},
{
closed = 1;
nodes = (
(493,0,l),
(502,51,l),
(52,51,l),
(43,0,l)
);
}
);
width = 620;
},
{
layerId = "AEB41AA6-A430-455D-A6E9-A3012AD74722";
shapes = (
{
closed = 1;
nodes = (
(378,178,l),
(450,608,l),
(310,608,l),
(238,178,l)
);
},
{
closed = 1;
nodes = (
(568,328,l),
(590,458,l),
(120,458,l),
(98,328,l)
);
},
{
closed = 1;
nodes = (
(518,30,l),
(538,150,l),
(68,150,l),
(48,30,l)
);
}
);
width = 640;
}
);
metricLeft = "=plus";
metricRight = "=plus";
unicode = 177;
}
{
glyphname = micro;
layers = (
{
layerId = m01;
shapes = (
{
closed = 1;
nodes = (
(45,-200,l),
(90,72,l),
(91,74,l),
(162,500,l),
(102,500,l),
(-15,-200,l)
);
},
{
closed = 1;
nodes = (
(345,-12,o),
(428,81,o),
(455,241,c),
(418,245,l),
(397,120,o),
(327,44,o),
(230,44,cs),
(149,44,o),
(91,76,o),
(119,242,c),
(74,216,l),
(48,64,o),
(108,-12,o),
(218,-12,cs)
);
},
{
closed = 1;
nodes = (
(437,0,l),
(521,500,l),
(461,500,l),
(393,92,l),
(381,0,l)
);
}
);
width = 554;
},
{
layerId = "AEB41AA6-A430-455D-A6E9-A3012AD74722";
shapes = (
{
closed = 1;
nodes = (
(126,-200,l),
(176,99,l),
(196,99,l),
(263,500,l),
(83,500,l),
(-34,-200,l)
);
},
{
closed = 1;
nodes = (
(324,-12,o),
(373,71,o),
(399,229,c),
(352,239,l),
(343,185,o),
(307,155,o),
(250,156,cs),
(219,159,o),
(210,182,o),
(219,239,c),
(148,219,l),
(122,65,o),
(164,-12,o),
(250,-12,cs)
);
},
{
closed = 1;
nodes = (
(492,0,l),
(576,500,l),
(396,500,l),
(328,92,l),
(323,0,l)
);
}
);
width = 579;
}
);
metricLeft = u;
metricRight = u;
unicode = 181;
}
{
glyphname = paragraph;
layers = (
{
layerId = m01;
shapes = (
{
closed = 1;
nodes = (
(261,-84,l),
(382,642,l),
(432,642,l),
(311,-84,l),
(375,-84,l),
(506,700,l),
(301,700,ls),
(185,700,o),
(91,613,o),
(70,487,cs),
(48,358,o),
(117,266,o),
(233,266,cs),
(255,266,l),
(197,-84,l)
);
}
);
width = 531;
},
{
layerId = "AEB41AA6-A430-455D-A6E9-A3012AD74722";
shapes = (
{
closed = 1;
nodes = (
(343,-84,l),
(446,530,l),
(491,530,l),
(388,-84,l),
(505,-84,l),
(636,700,l),
(344,700,ls),
(186,700,o),
(64,605,o),
(41,467,cs),
(16,317,o),
(116,210,o),
(274,210,cs),
(275,210,l),
(226,-84,l)
);
}
);
width = 621;
}
);
metricLeft = "=|P";
metricRight = I;
unicode = 182;
}
{
glyphname = ordmasculine;
layers = (
{
anchors = (
{
name = bottom;
pos = (182,400);
},
{
name = center;
pos = (182,550);
},
{
name = ogonek;
pos = (323,406);
},
{
name = top;
pos = (182,700);
},
{
name = topright;
pos = (346,700);
}
);
layerId = m01;
shapes = (
{
closed = 1;
nodes = (
(298,393,o),
(370,456,o),
(385,546,cs),
(400,640,o),
(346,707,o),
(255,707,cs),
(168,707,o),
(97,644,o),
(82,554,cs),
(66,460,o),
(120,393,o),
(212,393,cs)
);
},
{
closed = 1;
nodes = (
(161,448,o),
(132,488,o),
(142,546,cs),
(152,608,o),
(199,652,o),
(254,652,cs),
(305,652,o),
(335,612,o),
(325,554,cs),
(314,492,o),
(268,448,o),
(213,448,cs)
);
}
);
userData = {
RMXScaler = {
height = 60;
verticalShift = 400;
width = 60;
};
};
width = 366;
},
{
anchors = (
{
name = bottom;
pos = (176,400);
},
{
name = center;
pos = (176,550);
},
{
name = ogonek;
pos = (321,406);
},
{
name = top;
pos = (176,700);
},
{
name = topright;
pos = (345,700);
}
);
layerId = "AEB41AA6-A430-455D-A6E9-A3012AD74722";
shapes = (
{
closed = 1;
nodes = (
(307,393,o),
(378,453,o),
(393,539,cs),
(409,637,o),
(347,707,o),
(243,707,cs),
(152,707,o),
(80,647,o),
(66,561,cs),
(49,463,o),
(113,393,o),
(217,393,cs)
);
},
{
closed = 1;
nodes = (
(191,504,o),
(182,518,o),
(186,539,cs),
(191,572,o),
(219,597,o),
(249,597,cs),
(268,597,o),
(277,582,o),
(274,561,cs),
(268,528,o),
(240,504,o),
(211,504,cs)
);
}
);
userData = {
RMXScaler = {
height = 60;
verticalShift = 400;
weight = -300;
width = 60;
};
};
width = 359;
}
);
metricLeft = "=o*.7";
metricRight = "=|ordmasculine";
unicode = 186;
userData = {
RMXScaler = {
source = o;
};
};
}
{
glyphname = AE;
kernLeft = A;
layers = (
{
layerId = m01;
shapes = (
{
closed = 1;
nodes = (
(42,0,l),
(213,217,l),
(497,217,l),
(461,0,l),
(864,0,l),
(874,58,l),
(535,58,l),
(580,332,l),
(896,332,l),
(905,390,l),
(590,390,l),
(632,642,l),
(972,642,l),
(981,700,l),
(524,700,l),
(-32,0,l)
);
},
{
closed = 1;
nodes = (
(549,642,l),
(568,642,l),
(507,275,l),
(259,275,l)
);
}
);
width = 996;
},
{
layerId = "AEB41AA6-A430-455D-A6E9-A3012AD74722";
shapes = (
{
closed = 1;
nodes = (
(179,0,l),
(254,112,l),
(486,112,l),
(467,0,l),
(943,0,l),
(972,170,l),
(685,170,l),
(702,268,l),
(927,268,l),
(955,433,l),
(729,433,l),
(746,530,l),
(1025,530,l),
(1053,700,l),
(450,700,l),
(-35,0,l)
);
},
{
closed = 1;
nodes = (
(533,530,l),
(556,530,l),
(513,275,l),
(362,275,l)
);
}
);
width = 1035;
}
);
metricLeft = A;
metricRight = E;
unicode = 198;
}
{
glyphname = Idieresis;
layers = (
{
guides = (
{
angle = 260.5;
pos = (209,700);
}
);
layerId = m01;
shapes = (
{
pos = (2,0);
ref = I;
},
{
closed = 1;
nodes = (
(193,800,o),
(211,818,o),
(211,840,cs),
(211,862,o),
(193,880,o),
(171,880,cs),
(149,880,o),
(131,862,o),
(131,840,cs),
(131,818,o),
(149,800,o),
(171,800,cs)
);
},
{
closed = 1;
nodes = (
(315,800,o),
(333,818,o),
(333,840,cs),
(333,862,o),
(315,880,o),
(293,880,cs),
(271,880,o),
(253,862,o),
(253,840,cs),
(253,818,o),
(271,800,o),
(293,800,cs)
);
}
);
width = 266;
},
{
guides = (
{
angle = 260.5;
pos = (242,700);
}
);
layerId = "AEB41AA6-A430-455D-A6E9-A3012AD74722";
shapes = (
{
pos = (15,0);
ref = I;
},
{
closed = 1;
nodes = (
(216,769,o),
(256,809,o),
(256,857,cs),
(256,905,o),
(216,945,o),
(168,945,cs),
(120,945,o),
(80,905,o),
(80,857,cs),
(80,809,o),
(120,769,o),
(168,769,cs)
);
},
{
closed = 1;
nodes = (
(416,769,o),
(456,809,o),
(456,857,cs),
(456,905,o),
(416,945,o),
(368,945,cs),
(320,945,o),
(280,905,o),
(280,857,cs),
(280,809,o),
(320,769,o),
(368,769,cs)
);
}
);
width = 333;
}
);
unicode = 207;
}
{
glyphname = Eth;
kernRight = round_right_uppercase;
layers = (
{
layerId = m01;
shapes = (
{
closed = 1;
nodes = (
(407,320,l),
(416,378,l),
(101,378,l),
(92,320,l)
);
},
{
pos = (70,0);
ref = D;
}
);
width = 753;
},
{
layerId = "AEB41AA6-A430-455D-A6E9-A3012AD74722";
shapes = (
{
closed = 1;
nodes = (
(384,287,l),
(405,414,l),
(67,414,l),
(46,287,l)
);
},
{
pos = (30,0);
ref = D;
}
);
width = 741;
}
);
metricLeft = "=D-20";
metricRight = D;
unicode = 208;
}
{
glyphname = multiply;
layers = (
{
layerId = m01;
shapes = (
{
closed = 1;
nodes = (
(482,148,l),
(198,487,l),
(154,447,l),
(437,109,l)
);
},
{
closed = 1;
nodes = (
(532,447,l),
(497,487,l),
(104,148,l),
(138,109,l)
);
}
);
width = 620;
},
{
layerId = "AEB41AA6-A430-455D-A6E9-A3012AD74722";
shapes = (
{
closed = 1;
nodes = (
(527,176,l),
(238,517,l),
(129,420,l),
(418,79,l)
);
},
{
closed = 1;
nodes = (
(566,420,l),
(481,517,l),
(89,176,l),
(174,79,l)
);
}
);
width = 640;
}
);
unicode = 215;
}
{
glyphname = Oslash;
kernLeft = round_left_uppercase;
kernRight = round_right_uppercase;
layers = (
{
layerId = m01;
shapes = (
{
closed = 1;
nodes = (
(89,0,l),
(819,700,l),
(733,700,l),
(3,0,l)
);
},
{
pos = (9,0);
ref = O;
}
);
width = 789;
},
{
layerId = "AEB41AA6-A430-455D-A6E9-A3012AD74722";
shapes = (
{
closed = 1;
nodes = (
(142,0,l),
(863,700,l),
(697,700,l),
(-22,0,l)
);
},
{
pos = (-3,0);
ref = O;
}
);
width = 808;
}
);
metricLeft = "=O-5";
metricRight = "=O-5";
unicode = 216;
}
{
glyphname = Thorn;
layers = (
{
background = {
shapes = (
{
closed = 1;
nodes = (
(342,145,ls),
(458,145,o),
(540,235,o),
(540,362,cs),
(540,490,o),
(447,580,o),
(315,580,cs),
(164,579,l),
(164,521,l),
(315,521,ls),
(410,522,o),
(477,456,o),
(477,362,cs),
(477,269,o),
(421,204,o),
(342,204,cs),
(164,204,l),
(164,145,l)
);
},
{
closed = 1;
nodes = (
(164,1,l),
(164,701,l),
(100,701,l),
(100,1,l)
);
}
);
};
layerId = m01;
shapes = (
{
closed = 1;
nodes = (
(326,145,ls),
(442,145,o),
(537,233,o),
(558,358,cs),
(580,488,o),
(500,579,o),
(368,579,cs),
(218,579,l),
(208,521,l),
(362,521,ls),
(458,521,o),
(512,458,o),
(496,366,cs),
(480,271,o),
(411,204,o),
(332,204,cs),
(156,204,l),
(146,145,l)
);
},
{
closed = 1;
nodes = (
(122,1,l),
(239,701,l),
(175,701,l),
(58,1,l)
);
}
);
width = 570;
},
{
layerId = "AEB41AA6-A430-455D-A6E9-A3012AD74722";
shapes = (
{
closed = 1;
nodes = (
(348,111,ls),
(525,111,o),
(655,235,o),
(655,391,cs),
(655,517,o),
(550,601,o),
(418,601,cs),
(293,601,l),
(264,432,l),
(392,432,ls),
(437,432,o),
(461,406,o),
(461,368,cs),
(461,326,o),
(426,281,o),
(354,281,cs),
(239,281,l),
(211,111,l)
);
},
{
closed = 1;
nodes = (
(218,1,l),
(335,701,l),
(145,701,l),
(28,1,l)
);
}
);
width = 645;
}
);
unicode = 222;
}
{
glyphname = germandbls;
layers = (
{
background = {
shapes = (
{
closed = 1;
nodes = (
(201,-1,o),
(247,-12,o),
(270,-12,cs),
(408,-12,o),
(480,60,o),
(480,183,cs),
(480,305,o),
(404,377,o),
(275,377,cs),
(214,377,l),
(214,322,l),
(275,322,ls),
(366,322,o),
(420,270,o),
(420,183,cs),
(420,95,o),
(374,43,o),
(278,43,cs),
(238,43,o),
(219,70,o),
(210,78,c),
(166,40,l)
);
},
{
closed = 1;
nodes = (
(135,0,l),
(135,550,ls),
(135,622,o),
(176,657,o),
(261,657,cs),
(371,657,o),
(405,595,o),
(437,548,c),
(480,596,l),
(452,638,o),
(398,712,o),
(266,712,cs),
(138,712,o),
(75,659,o),
(75,550,cs),
(75,0,l)
);
},
{
closed = 1;
nodes = (
(257,343,l),
(478,595,l),
(435,633,l),
(214,382,l),
(214,343,l)
);
}
);
};
layerId = m01;
shapes = (
{
closed = 1;
nodes = (
(97,0,l),
(184,517,ls),
(197,596,o),
(268,654,o),
(353,654,cs),
(434,654,o),
(481,601,o),
(468,525,cs),
(454,441,o),
(405,389,o),
(269,389,cs),
(267,389,l),
(258,331,l),
(303,331,ls),
(427,331,o),
(510,398,o),
(530,517,cs),
(549,631,o),
(475,712,o),
(354,712,cs),
(235,712,o),
(139,634,o),
(120,521,cs),
(33,0,l)
);
},
{
closed = 1;
nodes = (
(247,0,ls),
(384,0,o),
(474,66,o),
(493,179,cs),
(514,302,o),
(432,377,o),
(279,377,cs),
(265,377,l),
(255,318,l),
(303,318,ls),
(398,318,o),
(445,270,o),
(431,187,cs),
(418,108,o),
(350,59,o),
(253,59,cs),
(207,59,l),
(197,0,l)
);
}
);
width = 555;
},
{
background = {
shapes = (
{
closed = 1;
nodes = (
(225,0,l),
(225,476,ls),
(225,532,o),
(255,560,o),
(304,560,cs),
(343,560,o),
(376,541,o),
(376,502,cs),
(376,459,o),
(348,435,o),
(306,435,cs),
(294,435,l),
(294,294,l),
(330,294,ls),
(470,294,o),
(566,402,o),
(566,499,cs),
(566,646,o),
(469,712,o),
(306,712,cs),
(149,712,o),
(45,638,o),
(45,476,cs),
(45,0,l)
);
},
{
closed = 1;
nodes = (
(352,0,ls),
(494,0,o),
(594,72,o),
(594,202,cs),
(594,357,o),
(508,409,o),
(305,409,cs),
(294,409,l),
(294,276,l),
(330,276,ls),
(372,276,o),
(402,254,o),
(402,221,cs),
(402,191,o),
(374,163,o),
(330,163,cs),
(294,163,l),
(294,0,l)
);
}
);
};
layerId = "AEB41AA6-A430-455D-A6E9-A3012AD74722";
shapes = (
{
closed = 1;
nodes = (
(183,0,l),
(262,471,ls),
(271,527,o),
(313,560,o),
(368,560,cs),
(403,560,o),
(429,546,o),
(423,513,cs),
(415,464,o),
(375,435,o),
(331,435,cs),
(325,435,l),
(301,294,l),
(343,294,ls),
(479,294,o),
(584,397,o),
(599,488,cs),
(624,641,o),
(526,712,o),
(371,712,cs),
(220,712,o),
(111,643,o),
(84,481,cs),
(3,0,l)
);
},
{
closed = 1;
nodes = (
(316,0,ls),
(452,0,o),
(553,67,o),
(574,191,cs),
(601,352,o),
(521,409,o),
(325,409,cs),
(321,409,l),
(298,276,l),
(340,276,ls),
(382,276,o),
(404,259,o),
(399,232,cs),
(393,196,o),
(353,163,o),
(309,163,cs),
(279,163,l),
(252,0,l)
);
}
);
width = 609;
}
);
metricLeft = l;
metricRight = B;
unicode = 223;
}
{
glyphname = ae;
kernLeft = "round-left-lowercase";
kernRight = "round-right-lowercase";
layers = (
{
layerId = m01;
shapes = (
{
closed = 1;
nodes = (
(429,180,l),
(444,266,ls),
(471,430,o),
(418,512,o),
(282,512,cs),
(200,512,o),
(131,479,o),
(75,407,c),
(127,379,l),
(163,430,o),
(215,457,o),
(281,457,cs),
(377,457,o),
(394,397,o),
(385,270,cs),
(377,180,l)
);
},
{
closed = 1;
nodes = (
(318,-12,o),
(408,87,o),
(433,240,c),
(380,244,l),
(360,125,o),
(287,43,o),
(189,43,cs),
(113,43,o),
(76,78,o),
(86,137,c),
(97,203,o),
(145,242,o),
(241,242,cs),
(419,242,l),
(428,297,l),
(238,297,ls),
(120,297,o),
(43,241,o),
(27,145,c),
(11,47,o),
(72,-12,o),
(192,-12,cs)
);
},
{
pos = (336,0);
ref = e;
}
);
width = 879;
},
{
layerId = "AEB41AA6-A430-455D-A6E9-A3012AD74722";
shapes = (
{
closed = 1;
nodes = (
(453,160,l),
(472,276,ls),
(495,414,o),
(427,512,o),
(286,512,cs),
(182,512,o),
(103,465,o),
(42,383,c),
(198,324,l),
(224,352,o),
(246,368,o),
(282,368,cs),
(356,368,o),
(342,320,o),
(334,250,cs),
(324,160,l)
);
},
{
closed = 1;
nodes = (
(333,-12,o),
(438,64,o),
(462,209,c),
(321,200,l),
(313,151,o),
(278,114,o),
(223,114,c),
(194,114,o),
(182,123,o),
(184,137,c),
(189,170,o),
(215,191,o),
(271,191,c),
(343,191,l),
(360,294,l),
(207,294,ls),
(91,294,o),
(22,250,o),
(6,152,cs),
(-12,47,o),
(52,-12,o),
(174,-12,cs)
);
},
{
alignment = -1;
pos = (308,0);
ref = e;
}
);
width = 876;
}
);
metricLeft = a;
metricRight = e;
unicode = 230;
}
{
glyphname = idieresis;
layers = (
{
anchors = (
{
name = top;
pos = (186.978,710);
}
);
guides = (
{
angle = 260.5;
pos = (150,500);
}
);
layerId = m01;
shapes = (
{
ref = idotless;
},
{
closed = 1;
nodes = (
(137,630,o),
(155,648,o),
(155,670,c),
(155,692,o),
(137,710,o),
(115,710,cs),
(93,710,o),
(75,692,o),
(75,670,cs),
(75,648,o),
(93,630,o),
(115,630,cs)
);
},
{
closed = 1;
nodes = (
(259,630,o),
(277,648,o),
(277,670,cs),
(277,692,o),
(259,710,o),
(237,710,cs),
(215,710,o),
(197,692,o),
(197,670,cs),
(197,648,o),
(215,630,o),
(237,630,cs)
);
}
);
width = 221;
},
{
anchors = (
{
name = top;
pos = (228.337,748);
}
);
guides = (
{
angle = 260.5;
pos = (186,500);
}
);
layerId = "AEB41AA6-A430-455D-A6E9-A3012AD74722";
shapes = (
{
ref = idotless;
},
{
closed = 1;
nodes = (
(160,569,o),
(200,609,o),
(200,657,cs),
(200,705,o),
(160,745,o),
(112,745,cs),
(64,745,o),
(24,705,o),
(24,657,cs),
(24,609,o),
(64,569,o),
(112,569,cs)
);
},
{
closed = 1;
nodes = (
(360,569,o),
(400,609,o),
(400,657,cs),
(400,705,o),
(360,745,o),
(312,745,cs),
(264,745,o),
(224,705,o),
(224,657,cs),
(224,609,o),
(264,569,o),
(312,569,cs)
);
}
);
width = 290;
}
);
unicode = 239;
}
{
glyphname = eth;
kernLeft = "round-left-lowercase";
layers = (
{
layerId = m01;
shapes = (
{
closed = 1;
nodes = (
(391,-12,o),
(508,94,o),
(534,248,c),
(496,403,l),
(469,470,o),
(410,512,o),
(329,512,cs),
(188,512,o),
(71,406,o),
(46,254,cs),
(20,98,o),
(105,-12,o),
(251,-12,cs)
);
},
{
closed = 1;
nodes = (
(145,43,o),
(84,126,o),
(104,246,cs),
(125,370,o),
(218,457,o),
(328,457,cs),
(434,457,o),
(495,374,o),
(475,254,cs),
(454,130,o),
(361,43,o),
(252,43,cs)
);
},
{
closed = 1;
nodes = (
(578,514,o),
(491,684,o),
(249,737,c),
(230,678,l),
(447,631,o),
(514,491,o),
(474,252,c),
(534,248,l)
);
},
{
closed = 1;
nodes = (
(531,645,l),
(512,687,l),
(318,578,l),
(339,535,l)
);
}
);
width = 589;
},
{
layerId = "AEB41AA6-A430-455D-A6E9-A3012AD74722";
shapes = (
{
closed = 1;
nodes = (
(385,-12,o),
(501,86,o),
(526,231,c),
(449,310,l),
(461,371,o),
(361,444,o),
(270,444,cs),
(135,444,o),
(37,354,o),
(16,227,cs),
(-7,87,o),
(87,-12,o),
(243,-12,cs)
);
},
{
closed = 1;
nodes = (
(211,150,o),
(193,173,o),
(198,205,cs),
(206,249,o),
(245,281,o),
(290,281,cs),
(326,281,o),
(345,259,o),
(339,227,cs),
(332,183,o),
(293,150,o),
(246,150,cs)
);
},
{
closed = 1;
nodes = (
(569,445,o),
(554,683,o),
(231,730,c),
(186,587,l),
(382,540,o),
(397,474,o),
(373,338,c),
(527,231,l)
);
},
{
closed = 1;
nodes = (
(573,630,l),
(540,692,l),
(227,523,l),
(257,460,l)
);
}
);
width = 561;
}
);
metricLeft = o;
metricRight = "=o+10";
unicode = 240;
}
{
glyphname = divide;
layers = (
{
layerId = m01;
shapes = (
{
closed = 1;
nodes = (
(503,269,l),
(513,326,l),
(133,326,l),
(123,269,l)
);
},
{
closed = 1;
nodes = (
(310,109,o),
(329,125,o),
(332,145,cs),
(336,169,o),
(320,189,o),
(296,189,cs),
(276,189,o),
(257,173,o),
(254,153,cs),
(250,129,o),
(266,109,o),
(290,109,cs)
);
},
{
closed = 1;
nodes = (
(360,406,o),
(379,422,o),
(382,442,cs),
(386,466,o),
(370,486,o),
(346,486,cs),
(326,486,o),
(307,470,o),
(303,450,cs),
(299,426,o),
(316,406,o),
(340,406,cs)
);
}
);
width = 620;
},
{
layerId = "AEB41AA6-A430-455D-A6E9-A3012AD74722";
shapes = (
{
closed = 1;
nodes = (
(531,226,l),
(555,370,l),
(125,370,l),
(101,226,l)
);
},
{
closed = 1;
nodes = (
(332,50,o),
(364,79,o),
(370,112,cs),
(377,157,o),
(344,196,o),
(299,196,cs),
(266,196,o),
(234,167,o),
(229,134,cs),
(221,89,o),
(254,50,o),
(299,50,cs)
);
},
{
closed = 1;
nodes = (
(390,400,o),
(422,428,o),
(427,461,cs),
(435,506,o),
(402,545,o),
(357,545,cs),
(324,545,o),
(292,516,o),
(286,483,cs),
(279,438,o),
(312,400,o),
(357,400,cs)
);
}
);
width = 640;
}
);
unicode = 247;
}
{
glyphname = oslash;
kernLeft = "round-left-lowercase";
kernRight = "round-right-lowercase";
layers = (
{
layerId = m01;
shapes = (
{
closed = 1;
nodes = (
(71,0,l),
(595,500,l),
(513,500,l),
(-10,0,l)
);
},
{
pos = (2,0);
ref = o;
}
);
width = 585;
},
{
layerId = "AEB41AA6-A430-455D-A6E9-A3012AD74722";
shapes = (
{
closed = 1;
nodes = (
(100,0,l),
(627,500,l),
(491,500,l),
(-35,0,l)
);
},
{
pos = (2,0);
ref = o;
}
);
width = 592;
}
);
metricLeft = "=o-13";
metricRight = "=o-13";
unicode = 248;
}
{
glyphname = thorn;
kernRight = "round-right-lowercase";
layers = (
{
layerId = m01;
shapes = (
{
closed = 1;
nodes = (
(60,-200,l),
(210,700,l),
(150,700,l),
(0,-200,l)
);
},
{
angle = 180;
pos = (582,500);
ref = Bowl;
}
);
width = 583;
},
{
layerId = "AEB41AA6-A430-455D-A6E9-A3012AD74722";
shapes = (
{
closed = 1;
nodes = (
(150,-200,l),
(300,700,l),
(120,700,l),
(-30,-200,l)
);
},
{
angle = 180;
pos = (596,500);
ref = Bowl;
}
);
width = 607;
}
);
metricLeft = l;
metricRight = p;
unicode = 254;
}
{
glyphname = aogonek;
kernLeft = "round-left-lowercase";
layers = (
{
background = {
anchors = (
{
name = top;
pos = (305,500);
}
);
shapes = (
{
closed = 1;
nodes = (
(437,-212,o),
(466,-204,o),
(505,-188,c),
(483,-137,l),
(448,-150,o),
(425,-157,o),
(411,-157,cs),
(360,-157,o),
(335,-125,o),
(335,-60,cs),
(335,503,l),
(275,503,l),
(275,-60,ls),
(275,-162,o),
(321,-212,o),
(416,-212,cs)
);
}
);
};
layerId = m01;
shapes = (
{
ref = a;
},
{
pos = (310,0);
ref = ogonekcomb;
}
);
width = 583;
},
{
layerId = "AEB41AA6-A430-455D-A6E9-A3012AD74722";
shapes = (
{
ref = a;
},
{
pos = (334,0);
ref = ogonekcomb;
}
);
width = 606;
}
);
unicode = 261;
}
{
glyphname = dcroat;
kernLeft = "round-left-lowercase";
layers = (
{
layerId = m01;
shapes = (
{
closed = 1;
nodes = (
(641,571,l),
(650,626,l),
(342,626,l),
(333,571,l)
);
},
{
ref = d;
}
);
width = 582;
},
{
layerId = "AEB41AA6-A430-455D-A6E9-A3012AD74722";
shapes = (
{
closed = 1;
nodes = (
(663,545,l),
(681,650,l),
(327,650,l),
(309,545,l)
);
},
{
ref = d;
}
);
width = 604;
}
);
metricLeft = d;
unicode = 273;
}
{
glyphname = Hbar;
layers = (
{
layerId = m01;
shapes = (
{
closed = 1;
nodes = (
(789,500,l),
(799,558,l),
(57,558,l),
(47,500,l)
);
},
{
ref = H;
}
);
width = 752;
},
{
layerId = "AEB41AA6-A430-455D-A6E9-A3012AD74722";
shapes = (
{
closed = 1;
nodes = (
(786,504,l),
(807,631,l),
(69,631,l),
(48,504,l)
);
},
{
ref = H;
}
);
width = 748;
}
);
unicode = 294;
}
{
glyphname = hbar;
kernLeft = tall_left_lowercase;
layers = (
{
layerId = m01;
shapes = (
{
closed = 1;
nodes = (
(362,571,l),
(371,626,l),
(63,626,l),
(54,571,l)
);
},
{
ref = h;
}
);
width = 554;
},
{
layerId = "AEB41AA6-A430-455D-A6E9-A3012AD74722";
shapes = (
{
closed = 1;
nodes = (
(403,545,l),
(421,650,l),
(67,650,l),
(49,545,l)
);
},
{
ref = h;
}
);
width = 579;
}
);
metricRight = h;
unicode = 295;
}
{
glyphname = imacron;
layers = (
{
background = {
anchors = (
{
name = bottom;
pos = (68,0);
},
{
name = ogonek;
pos = (97,0);
},
{
name = top;
pos = (152,500);
}
);
shapes = (
{
closed = 1;
nodes = (
(97,0,l),
(183,500,l),
(123,500,l),
(37,0,l)
);
},
{
closed = 1;
nodes = (
(287,580,l),
(296,637,l),
(46,637,l),
(38,580,l)
);
}
);
};
layerId = m01;
shapes = (
{
ref = idotless;
},
{
pos = (-43,0);
ref = macroncomb.narrow;
}
);
width = 221;
},
{
background = {
anchors = (
{
name = bottom;
pos = (103,0);
},
{
name = ogonek;
pos = (193,0);
},
{
name = top;
pos = (187,500);
}
);
shapes = (
{
closed = 1;
nodes = (
(193,0,l),
(277,500,l),
(97,500,l),
(13,0,l)
);
},
{
closed = 1;
nodes = (
(365,549,l),
(390,700,l),
(50,700,l),
(25,549,l)
);
}
);
};
layerId = "AEB41AA6-A430-455D-A6E9-A3012AD74722";
shapes = (
{
ref = idotless;
},
{
pos = (-25,0);
ref = macroncomb.narrow;
}
);
width = 290;
}
);
unicode = 299;
}
{
glyphname = idotless;
layers = (
{
anchors = (
{
name = bottom;
pos = (68,0);
},
{
name = ogonek;
pos = (97,0);
},
{
name = top;
pos = (152,500);
}
);
layerId = m01;
shapes = (
{
closed = 1;
nodes = (
(97,0,l),
(183,500,l),
(123,500,l),
(37,0,l)
);
}
);
width = 221;
},
{
anchors = (
{
name = bottom;
pos = (103,0);
},
{
name = ogonek;
pos = (193,0);
},
{
name = top;
pos = (187,500);
}
);
layerId = "AEB41AA6-A430-455D-A6E9-A3012AD74722";
shapes = (
{
closed = 1;
nodes = (
(193,0,l),
(277,500,l),
(97,500,l),
(13,0,l)
);
}
);
width = 290;
}
);
unicode = 305;
}
{
glyphname = Lslash;
layers = (
{
guides = (
{
angle = 90;
pos = (132,700);
}
);
layerId = m01;
shapes = (
{
closed = 1;
nodes = (
(306,390,l),
(315,448,l),
(16,324,l),
(7,266,l)
);
},
{
ref = L;
}
);
width = 513;
},
{
layerId = "AEB41AA6-A430-455D-A6E9-A3012AD74722";
shapes = (
{
closed = 1;
nodes = (
(362,402,l),
(384,550,l),
(20,369,l),
(-3,221,l)
);
},
{
pos = (1,0);
ref = L;
}
);
width = 554;
}
);
unicode = 321;
}
{
glyphname = lslash;
kernLeft = tall_left_lowercase;
layers = (
{
layerId = m01;
shapes = (
{
closed = 1;
nodes = (
(283,384,l),
(292,442,l),
(33,327,l),
(24,269,l)
);
},
{
pos = (34,0);
ref = l;
}
);
width = 280;
},
{
layerId = "AEB41AA6-A430-455D-A6E9-A3012AD74722";
shapes = (
{
closed = 1;
nodes = (
(310,358,l),
(331,496,l),
(15,342,l),
(-5,204,l)
);
},
{
pos = (11,0);
ref = l;
}
);
width = 292;
}
);
unicode = 322;
}
{
glyphname = Eng;
layers = (
{
anchors = (
{
name = top;
pos = (644,503);
}
);
layerId = m01;
shapes = (
{
closed = 1;
nodes = (
(553,-212,o),
(605,-164,o),
(622,-62,cs),
(716,503,l),
(656,503,l),
(562,-58,ls),
(551,-123,o),
(519,-157,o),
(466,-157,cs),
(454,-157,o),
(432,-151,o),
(399,-138,c),
(372,-187,l),
(409,-203,o),
(437,-212,o),
(460,-212,cs)
);
},
{
ref = N;
}
);
width = 774;
},
{
anchors = (
{
name = top;
pos = (623,500);
}
);
layerId = "AEB41AA6-A430-455D-A6E9-A3012AD74722";
shapes = (
{
closed = 1;
nodes = (
(565,-215,o),
(647,-148,o),
(667,-26,cs),
(754,500,l),
(570,500,l),
(486,-2,ls),
(482,-27,o),
(461,-47,o),
(437,-47,cs),
(430,-47,o),
(417,-45,o),
(407,-35,c),
(316,-177,l),
(345,-199,o),
(389,-215,o),
(443,-215,cs)
);
},
{
ref = N;
}
);
width = 773;
}
);
metricLeft = N;
metricRight = N;
unicode = 330;
}
{
glyphname = eng;
kernLeft = short_lower_case;
kernRight = "arch-right-lowercase";
layers = (
{
anchors = (
{
name = top;
pos = (464,500);
}
);
layerId = m01;
shapes = (
{
closed = 1;
nodes = (
(373,-212,o),
(424,-165,o),
(441,-65,cs),
(452,0,l),
(392,0,l),
(382,-61,ls),
(372,-123,o),
(339,-157,o),
(286,-157,cs),
(274,-157,o),
(253,-151,o),
(220,-138,c),
(193,-187,l),
(229,-203,o),
(257,-212,o),
(280,-212,cs)
);
},
{
ref = n;
}
);
width = 554;
},
{
anchors = (
{
name = top;
pos = (448,500);
}
);
layerId = "AEB41AA6-A430-455D-A6E9-A3012AD74722";
shapes = (
{
closed = 1;
nodes = (
(390,-215,o),
(463,-152,o),
(491,-26,cs),
(495,-8,l),
(315,-8,l),
(314,-12,ls),
(308,-34,o),
(291,-47,o),
(266,-47,cs),
(259,-47,o),
(246,-45,o),
(236,-35,c),
(145,-177,l),
(174,-199,o),
(217,-215,o),
(270,-215,cs)
);
},
{
pos = (0,-8);
ref = n;
}
);
width = 578;
}
);
metricLeft = n;
metricRight = n;
unicode = 331;
}
{
glyphname = OE;
kernLeft = round_left_uppercase;
layers = (
{
anchors = (
{
name = bottom;
pos = (344,0);
},
{
name = center;
pos = (403,350);
},
{
name = ogonek;
pos = (655,10);
},
{
name = top;
pos = (456,670);
},
{
name = topleft;
pos = (95,700);
},
{
name = topright;
pos = (827,700);
}
);
layerId = m01;
shapes = (
{
closed = 1;
nodes = (
(529,-12,o),
(680,116,o),
(718,346,cs),
(757,580,o),
(648,712,o),
(460,712,cs),
(264,712,o),
(100,564,o),
(67,354,cs),
(31,131,o),
(142,-12,o),
(348,-12,cs)
);
},
{
closed = 1;
nodes = (
(185,46,o),
(99,164,o),
(130,346,cs),
(160,526,o),
(297,654,o),
(458,654,cs),
(609,654,o),
(698,549,o),
(665,354,cs),
(632,154,o),
(504,46,o),
(350,46,cs)
);
},
{
alignment = -1;
pos = (547,0);
ref = E;
}
);
width = 1140;
},
{
anchors = (
{
name = bottom;
pos = (359,0);
},
{
name = center;
pos = (418,350);
},
{
name = ogonek;
pos = (683,10);
},
{
name = top;
pos = (476,700);
},
{
name = topleft;
pos = (92,700);
},
{
name = topright;
pos = (859,700);
}
);
layerId = "AEB41AA6-A430-455D-A6E9-A3012AD74722";
shapes = (
{
closed = 1;
nodes = (
(581,-12,o),
(738,201,o),
(738,428,cs),
(738,594,o),
(625,711,o),
(465,711,cs),
(215,711,o),
(39,537,o),
(39,292,cs),
(39,119,o),
(172,-12,o),
(360,-12,cs)
);
},
{
closed = 1;
nodes = (
(293,163,o),
(234,230,o),
(234,301,cs),
(234,429,o),
(337,536,o),
(460,536,cs),
(533,536,o),
(595,474,o),
(595,400,cs),
(595,271,o),
(494,163,o),
(375,163,cs)
);
},
{
alignment = -1;
pos = (512,0);
ref = E;
}
);
width = 1098;
}
);
metricLeft = O;
metricRight = E;
unicode = 338;
}
{
glyphname = jdotless;
layers = (
{
anchors = (
{
name = top;
pos = (190,500);
}
);
layerId = m01;
shapes = (
{
closed = 1;
nodes = (
(56,-215,o),
(108,-167,o),
(125,-65,cs),
(220,500,l),
(160,500,l),
(66,-61,ls),
(55,-126,o),
(22,-160,o),
(-31,-160,cs),
(-43,-160,o),
(-64,-154,o),
(-97,-141,c),
(-124,-190,l),
(-88,-206,o),
(-60,-215,o),
(-37,-215,cs)
);
}
);
width = 248;
},
{
anchors = (
{
name = top;
pos = (205,500);
}
);
layerId = "AEB41AA6-A430-455D-A6E9-A3012AD74722";
shapes = (
{
closed = 1;
nodes = (
(100,-215,o),
(188,-143,o),
(208,-21,cs),
(295,500,l),
(115,500,l),
(30,-7,ls),
(26,-32,o),
(12,-47,o),
(-6,-47,cs),
(-19,-47,o),
(-33,-41,o),
(-43,-31,c),
(-142,-180,l),
(-116,-202,o),
(-73,-215,o),
(-26,-215,cs)
);
}
);
width = 296;
}
);
metricRight = i;
unicode = 567;
}
{
glyphname = gravecomb;
layers = (
{
anchors = (
{
name = _top;
pos = (175,500);
},
{
name = top;
pos = (175,500);
}
);
guides = (
{
pos = (-158,574);
}
);
layerId = m01;
shapes = (
{
closed = 1;
nodes = (
(285,574,l),
(208,700,l),
(125,700,l),
(213,574,l)
);
}
);
width = 281;
},
{
anchors = (
{
name = _top;
pos = (229,500);
},
{
name = top;
pos = (229,500);
}
);
guides = (
{
pos = (-26,554);
}
);
layerId = "AEB41AA6-A430-455D-A6E9-A3012AD74722";
shapes = (
{
closed = 1;
nodes = (
(348,554,l),
(260,701,l),
(75,701,l),
(182,554,l)
);
}
);
width = 297;
}
);
unicode = 768;
}
{
glyphname = acutecomb;
layers = (
{
anchors = (
{
name = _top;
pos = (104,500);
},
{
name = top;
pos = (104,500);
}
);
guides = (
{
pos = (-147,700);
},
{
pos = (-147,574);
}
);
layerId = m01;
shapes = (
{
closed = 1;
nodes = (
(131,574,l),
(280,700,l),
(194,700,l),
(54,574,l)
);
}
);
width = 205;
},
{
anchors = (
{
name = _top;
pos = (348,500);
},
{
name = top;
pos = (348,500);
}
);
guides = (
{
pos = (15,554);
},
{
pos = (15,700);
}
);
layerId = "AEB41AA6-A430-455D-A6E9-A3012AD74722";
shapes = (
{
closed = 1;
nodes = (
(419,554,l),
(549,700,l),
(359,700,l),
(249,554,l)
);
}
);
width = 549;
}
);
unicode = 769;
}
{
glyphname = circumflexcomb;
layers = (
{
anchors = (
{
name = _top;
pos = (206,500);
}
);
guides = (
{
pos = (164,586);
},
{
pos = (162,712);
}
);
layerId = m01;
shapes = (
{
closed = 1;
nodes = (
(141,586,l),
(278,711,l),
(278,712,l),
(197,712,l),
(56,586,l)
);
},
{
closed = 1;
nodes = (
(378,586,l),
(279,712,l),
(209,712,l),
(207,712,l),
(306,586,l)
);
}
);
width = 322;
},
{
anchors = (
{
name = _top;
pos = (270,500);
}
);
guides = (
{
pos = (264,565);
},
{
pos = (53,712);
}
);
layerId = "AEB41AA6-A430-455D-A6E9-A3012AD74722";
shapes = (
{
closed = 1;
nodes = (
(211,565,l),
(370,707,l),
(370,712,l),
(205,712,l),
(53,565,l)
);
},
{
closed = 1;
nodes = (
(473,565,l),
(371,712,l),
(221,712,l),
(221,707,l),
(335,565,l)
);
}
);
width = 420;
}
);
unicode = 770;
}
{
glyphname = tildecomb;
layers = (
{
anchors = (
{
name = _top;
pos = (172,500);
},
{
name = top;
pos = (209,723);
}
);
layerId = m01;
shapes = (
{
closed = 1;
nodes = (
(332,572,o),
(361,620,o),
(374,666,c),
(320,666,l),
(312,641,o),
(298,628,o),
(273,628,cs),
(238,628,o),
(236,700,o),
(169,700,cs),
(104,700,o),
(67,652,o),
(61,607,c),
(115,607,l),
(124,632,o),
(138,644,o),
(162,644,cs),
(199,644,o),
(202,572,o),
(270,572,cs)
);
}
);
width = 306;
},
{
anchors = (
{
name = _top;
pos = (240,500);
},
{
name = top;
pos = (273,700);
}
);
annotations = (
{
pos = (271.017,686.996);
type = Text;
}
);
layerId = "AEB41AA6-A430-455D-A6E9-A3012AD74722";
shapes = (
{
closed = 1;
nodes = (
(411,534,o),
(456,586,o),
(485,679,c),
(374,679,l),
(367,658,o),
(357,640,o),
(333,640,cs),
(289,640,o),
(314,712,o),
(210,712,cs),
(130,712,o),
(85,673,o),
(53,567,c),
(164,567,l),
(176,602,o),
(194,606,o),
(208,606,cs),
(246,606,o),
(221,534,o),
(329,534,cs)
);
}
);
width = 413;
}
);
unicode = 771;
}
{
glyphname = macroncomb;
layers = (
{
anchors = (
{
name = _top;
pos = (192,500);
}
);
layerId = m01;
shapes = (
{
closed = 1;
nodes = (
(355,580,l),
(365,637,l),
(65,637,l),
(55,580,l)
);
}
);
width = 300;
},
{
anchors = (
{
name = _top;
pos = (212,500);
}
);
layerId = "AEB41AA6-A430-455D-A6E9-A3012AD74722";
shapes = (
{
closed = 1;
nodes = (
(390,549,l),
(415,700,l),
(75,700,l),
(50,549,l)
);
}
);
width = 340;
}
);
unicode = 772;
}
{
glyphname = brevecomb;
layers = (
{
anchors = (
{
name = _top;
pos = (204,500);
}
);
background = {
shapes = (
{
closed = 1;
nodes = (
(119,574,l),
(199,574,l),
(199,575,l),
(77,700,l),
(38,700,l),
(-1,700,l)
);
},
{
closed = 1;
nodes = (
(246,700,l),
(124,575,l),
(124,574,l),
(204,574,l),
(324,700,l)
);
}
);
};
guides = (
{
pos = (14,700);
},
{
pos = (14,574);
}
);
layerId = m01;
shapes = (
{
closed = 1;
nodes = (
(312,569,o),
(386,622,o),
(399,700,c),
(337,700,l),
(329,656,o),
(281,623,o),
(220,623,cs),
(164,623,o),
(129,654,o),
(136,700,c),
(75,700,l),
(62,624,o),
(122,569,o),
(219,569,cs)
);
}
);
width = 324;
},
{
anchors = (
{
name = _top;
pos = (244,500);
}
);
guides = (
{
pos = (5,554);
},
{
pos = (5,700);
}
);
layerId = "AEB41AA6-A430-455D-A6E9-A3012AD74722";
shapes = (
{
closed = 1;
nodes = (
(376,542,o),
(465,604,o),
(480,700,c),
(316,700,l),
(312,677,o),
(294,661,o),
(272,661,cs),
(249,661,o),
(235,677,o),
(239,700,c),
(75,700,l),
(60,607,o),
(139,542,o),
(264,542,cs)
);
}
);
width = 405;
}
);
unicode = 774;
}
{
glyphname = dotaccentcomb;
layers = (
{
anchors = (
{
name = _top;
pos = (82,500);
}
);
layerId = m01;
shapes = (
{
closed = 1;
nodes = (
(133,630,o),
(151,648,o),
(151,670,cs),
(151,692,o),
(133,710,o),
(111,710,cs),
(89,710,o),
(71,692,o),
(71,670,cs),
(71,648,o),
(89,630,o),
(111,630,cs)
);
}
);
width = 81;
},
{
anchors = (
{
name = _top;
pos = (142,500);
}
);
layerId = "AEB41AA6-A430-455D-A6E9-A3012AD74722";
shapes = (
{
closed = 1;
nodes = (
(221,548,o),
(267,594,o),
(267,648,cs),
(267,702,o),
(221,748,o),
(167,748,cs),
(113,748,o),
(67,702,o),
(67,648,cs),
(67,594,o),
(113,548,o),
(167,548,cs)
);
}
);
width = 200;
}
);
unicode = 775;
}
{
glyphname = dieresiscomb;
layers = (
{
anchors = (
{
name = _top;
pos = (177,500);
},
{
name = top;
pos = (212,710);
}
);
layerId = m01;
shapes = (
{
closed = 1;
nodes = (
(106,630,o),
(124,648,o),
(124,670,cs),
(124,692,o),
(106,710,o),
(84,710,cs),
(62,710,o),
(44,692,o),
(44,670,cs),
(44,648,o),
(62,630,o),
(84,630,cs)
);
},
{
closed = 1;
nodes = (
(348,630,o),
(366,648,o),
(366,670,cs),
(366,692,o),
(348,710,o),
(326,710,cs),
(304,710,o),
(286,692,o),
(286,670,cs),
(286,648,o),
(304,630,o),
(326,630,cs)
);
}
);
width = 270;
},
{
anchors = (
{
name = _top;
pos = (322,500);
},
{
name = top;
pos = (363,748);
}
);
layerId = "AEB41AA6-A430-455D-A6E9-A3012AD74722";
shapes = (
{
closed = 1;
nodes = (
(261,569,o),
(301,609,o),
(301,657,cs),
(301,705,o),
(261,745,o),
(213,745,cs),
(165,745,o),
(125,705,o),
(125,657,cs),
(125,609,o),
(165,569,o),
(213,569,cs)
);
},
{
closed = 1;
nodes = (
(531,569,o),
(571,609,o),
(571,657,cs),
(571,705,o),
(531,745,o),
(483,745,cs),
(435,745,o),
(395,705,o),
(395,657,cs),
(395,609,o),
(435,569,o),
(483,569,cs)
);
}
);
width = 600;
}
);
unicode = 776;
}
{
glyphname = ringcomb;
layers = (
{
anchors = (
{
name = _top;
pos = (180,500);
}
);
guides = (
{
angle = 260.5;
pos = (204,646);
}
);
layerId = m01;
shapes = (
{
closed = 1;
nodes = (
(251,564,o),
(292,604,o),
(292,660,cs),
(292,702,o),
(261,735,o),
(217,735,cs),
(156,735,o),
(116,690,o),
(116,639,cs),
(116,597,o),
(148,564,o),
(193,564,cs)
);
},
{
closed = 1;
nodes = (
(178,610,o),
(166,621,o),
(166,639,cs),
(166,669,o),
(185,689,o),
(213,689,cs),
(232,689,o),
(243,679,o),
(243,662,cs),
(243,629,o),
(224,610,o),
(197,610,cs)
);
}
);
width = 275;
},
{
anchors = (
{
name = _top;
pos = (220,500);
}
);
guides = (
{
angle = 260.5;
pos = (244,646);
}
);
layerId = "AEB41AA6-A430-455D-A6E9-A3012AD74722";
shapes = (
{
closed = 1;
nodes = (
(309,520,o),
(383,572,o),
(382,661,cs),
(381,729,o),
(325,779,o),
(254,779,cs),
(178,779,o),
(107,726,o),
(107,637,cs),
(107,568,o),
(165,520,o),
(235,520,cs)
);
},
{
closed = 1;
nodes = (
(222,616,o),
(212,626,o),
(212,639,cs),
(212,665,o),
(229,683,o),
(252,683,cs),
(267,683,o),
(277,673,o),
(277,659,cs),
(277,634,o),
(260,616,o),
(237,616,cs)
);
}
);
width = 356;
}
);
metricLeft = period;
metricRight = period;
unicode = 778;
}
{
glyphname = hungarumlautcomb;
layers = (
{
anchors = (
{
name = _top;
pos = (185,500);
}
);
guides = (
{
pos = (-91,700);
},
{
pos = (-91,574);
}
);
layerId = m01;
shapes = (
{
closed = 1;
nodes = (
(306,574,l),
(435,700,l),
(345,700,l),
(224,574,l)
);
},
{
closed = 1;
nodes = (
(136,574,l),
(265,700,l),
(175,700,l),
(54,574,l)
);
}
);
width = 360;
},
{
anchors = (
{
name = _top;
pos = (230,500);
}
);
guides = (
{
pos = (-27,554);
},
{
pos = (-27,700);
}
);
layerId = "AEB41AA6-A430-455D-A6E9-A3012AD74722";
shapes = (
{
closed = 1;
nodes = (
(433,554,l),
(580,700,l),
(405,700,l),
(281,554,l)
);
},
{
closed = 1;
nodes = (
(201,554,l),
(346,700,l),
(171,700,l),
(51,554,l)
);
}
);
width = 505;
}
);
unicode = 779;
}
{
glyphname = caroncomb;
layers = (
{
anchors = (
{
name = _top;
pos = (204,500);
}
);
guides = (
{
pos = (14,700);
},
{
pos = (14,574);
}
);
layerId = m01;
shapes = (
{
closed = 1;
nodes = (
(256,574,l),
(397,700,l),
(312,700,l),
(175,575,l),
(175,574,l)
);
},
{
closed = 1;
nodes = (
(244,574,l),
(246,574,l),
(147,700,l),
(75,700,l),
(174,574,l)
);
}
);
width = 325;
},
{
anchors = (
{
name = _top;
pos = (254,500);
}
);
guides = (
{
pos = (2,554);
},
{
pos = (2,700);
}
);
layerId = "AEB41AA6-A430-455D-A6E9-A3012AD74722";
shapes = (
{
closed = 1;
nodes = (
(343,554,l),
(495,700,l),
(337,700,l),
(178,559,l),
(178,554,l)
);
},
{
closed = 1;
nodes = (
(327,554,l),
(327,559,l),
(213,700,l),
(75,700,l),
(177,554,l)
);
}
);
width = 420;
}
);
unicode = 780;
}
{
glyphname = commaaccentcomb;
layers = (
{
anchors = (
{
name = _bottom;
pos = (36,0);
}
);
layerId = m01;
shapes = (
{
closed = 1;
nodes = (
(-18,-200,l),
(66,-64,l),
(-6,-64,l),
(-75,-200,l)
);
}
);
width = 119;
},
{
anchors = (
{
name = _bottom;
pos = (79,0);
}
);
layerId = "AEB41AA6-A430-455D-A6E9-A3012AD74722";
shapes = (
{
closed = 1;
nodes = (
(59,-200,l),
(170,-40,l),
(-2,-40,l),
(-75,-200,l)
);
}
);
width = 219;
}
);
unicode = 806;
}
{
glyphname = cedillacomb;
layers = (
{
anchors = (
{
name = _bottom;
pos = (94,0);
}
);
guides = (
{
angle = 57.5;
pos = (-10,-97);
}
);
layerId = m01;
shapes = (
{
closed = 1;
nodes = (
(102,-210,o),
(140,-177,o),
(140,-108,cs),
(140,-78,o),
(118,-46,o),
(86,-34,c),
(103,-8,l),
(56,7,l),
(12,-62,l),
(61,-70,o),
(91,-82,o),
(91,-113,cs),
(91,-147,o),
(64,-164,o),
(30,-164,cs),
(6,-164,o),
(-22,-150,o),
(-44,-136,c),
(-71,-175,l),
(-23,-205,o),
(8,-210,o),
(38,-210,cs)
);
}
);
width = 202;
},
{
anchors = (
{
name = _bottom;
pos = (107,0);
}
);
guides = (
{
angle = 57.5;
pos = (-41,-126);
}
);
layerId = "AEB41AA6-A430-455D-A6E9-A3012AD74722";
shapes = (
{
closed = 1;
nodes = (
(121,-210,o),
(174,-170,o),
(174,-103,cs),
(174,-70,o),
(151,-42,o),
(111,-28,c),
(140,6,l),
(42,6,l),
(-4,-69,l),
(31,-69,o),
(51,-78,o),
(51,-93,cs),
(51,-109,o),
(33,-119,o),
(2,-119,cs),
(-10,-119,o),
(-26,-114,o),
(-43,-105,c),
(-71,-173,l),
(-40,-196,o),
(-2,-210,o),
(32,-210,cs)
);
}
);
width = 235;
}
);
unicode = 807;
}
{
glyphname = ogonekcomb;
layers = (
{
anchors = (
{
name = _ogonek;
pos = (156,0);
}
);
guides = (
{
angle = 270;
pos = (196,28);
}
);
layerId = m01;
shapes = (
{
closed = 1;
nodes = (
(97,-212,o),
(121,-205,o),
(140,-193,c),
(125,-145,l),
(119,-148,o),
(95,-157,o),
(68,-157,cs),
(45,-157,o),
(34,-147,o),
(37,-128,cs),
(45,-76,o),
(103,-35,o),
(156,0,c),
(105,13,l),
(43,-27,o),
(-14,-72,o),
(-22,-120,cs),
(-32,-180,o),
(4,-212,o),
(73,-212,cs)
);
}
);
width = 213;
},
{
anchors = (
{
name = _ogonek;
pos = (178,0);
}
);
layerId = "AEB41AA6-A430-455D-A6E9-A3012AD74722";
shapes = (
{
closed = 1;
nodes = (
(138,-212,o),
(162,-211,o),
(184,-199,c),
(139,-85,l),
(134,-89,o),
(123,-95,o),
(111,-95,cs),
(104,-95,o),
(100,-90,o),
(100,-83,cs),
(100,-53,o),
(145,-18,o),
(178,0,c),
(30,0,l),
(-25,-26,o),
(-37,-75,o),
(-37,-99,cs),
(-37,-173,o),
(29,-212,o),
(111,-212,cs)
);
}
);
width = 254;
}
);
unicode = 808;
}
{
glyphname = Germandbls;
layers = (
{
background = {
shapes = (
{
closed = 1;
nodes = (
(164,0,l),
(164,530,ls),
(164,609,o),
(205,657,o),
(290,657,cs),
(400,657,o),
(434,595,o),
(466,548,c),
(509,596,l),
(481,638,o),
(427,712,o),
(295,712,cs),
(167,712,o),
(104,649,o),
(104,540,cs),
(104,0,l)
);
},
{
closed = 1;
nodes = (
(286,343,l),
(507,595,l),
(464,633,l),
(243,382,l),
(243,343,l)
);
},
{
closed = 1;
nodes = (
(233,-1,o),
(284,-12,o),
(309,-12,cs),
(440,-12,o),
(509,60,o),
(509,183,cs),
(509,305,o),
(433,377,o),
(304,377,cs),
(243,377,l),
(243,322,l),
(304,322,ls),
(395,322,o),
(449,270,o),
(449,183,cs),
(449,95,o),
(406,43,o),
(317,43,cs),
(271,43,o),
(249,70,o),
(239,78,c),
(195,40,l)
);
}
);
};
layerId = m01;
shapes = (
{
closed = 1;
nodes = (
(122,0,l),
(211,528,ls),
(223,605,o),
(275,654,o),
(362,654,cs),
(468,654,o),
(491,594,o),
(514,547,c),
(566,594,l),
(545,636,o),
(502,712,o),
(368,712,cs),
(239,712,o),
(167,651,o),
(149,542,cs),
(58,0,l)
);
},
{
closed = 1;
nodes = (
(398,-12,o),
(477,58,o),
(497,179,cs),
(518,303,o),
(452,377,o),
(323,377,cs),
(264,377,l),
(255,319,l),
(318,319,ls),
(406,319,o),
(448,270,o),
(434,187,cs),
(420,99,o),
(367,46,o),
(279,46,cs),
(236,46,o),
(218,71,o),
(210,79,c),
(161,41,l),
(193,0,o),
(242,-12,o),
(269,-12,cs)
);
},
{
closed = 1;
nodes = (
(302,340,l),
(565,595,l),
(527,636,l),
(264,382,l),
(258,340,l)
);
}
);
width = 559;
},
{
layerId = "AEB41AA6-A430-455D-A6E9-A3012AD74722";
shapes = (
{
closed = 1;
nodes = (
(208,0,l),
(288,480,ls),
(295,520,o),
(327,549,o),
(370,549,cs),
(469,549,o),
(554,486,o),
(595,444,c),
(708,574,l),
(646,638,o),
(533,712,o),
(394,712,cs),
(231,712,o),
(128,654,o),
(110,548,cs),
(18,0,l)
);
},
{
closed = 1;
nodes = (
(536,-12,o),
(627,62,o),
(649,191,cs),
(672,327,o),
(598,409,o),
(410,409,cs),
(356,409,l),
(335,286,l),
(402,286,ls),
(471,286,o),
(482,276,o),
(477,245,cs),
(469,195,o),
(419,164,o),
(373,164,cs),
(351,164,o),
(331,167,o),
(318,174,c),
(269,8,l),
(305,-6,o),
(353,-12,o),
(384,-12,cs)
);
},
{
closed = 1;
nodes = (
(467,293,l),
(696,564,l),
(581,656,l),
(353,409,l),
(336,293,l)
);
}
);
width = 684;
}
);
metricLeft = B;
metricRight = B;
unicode = 7838;
}
{
glyphname = endash;
layers = (
{
layerId = m01;
shapes = (
{
closed = 1;
nodes = (
(553,269,l),
(563,326,l),
(13,326,l),
(3,269,l)
);
}
);
width = 550;
},
{
layerId = "AEB41AA6-A430-455D-A6E9-A3012AD74722";
shapes = (
{
closed = 1;
nodes = (
(545,223,l),
(571,373,l),
(21,373,l),
(-5,223,l)
);
}
);
width = 550;
}
);
unicode = 8211;
}
{
glyphname = emdash;
layers = (
{
layerId = m01;
shapes = (
{
closed = 1;
nodes = (
(1103,269,l),
(1113,326,l),
(13,326,l),
(3,269,l)
);
}
);
width = 1100;
},
{
layerId = "AEB41AA6-A430-455D-A6E9-A3012AD74722";
shapes = (
{
closed = 1;
nodes = (
(1095,223,l),
(1121,373,l),
(21,373,l),
(-5,223,l)
);
}
);
width = 1100;
}
);
unicode = 8212;
}
{
glyphname = dagger;
layers = (
{
layerId = m01;
shapes = (
{
closed = 1;
nodes = (
(228,0,l),
(302,472,l),
(345,700,l),
(283,700,l),
(250,472,l),
(166,0,l)
);
},
{
closed = 1;
nodes = (
(273,451,l),
(486,446,l),
(495,502,l),
(280,497,l),
(66,502,l),
(57,446,l)
);
}
);
width = 478;
},
{
layerId = "AEB41AA6-A430-455D-A6E9-A3012AD74722";
shapes = (
{
closed = 1;
nodes = (
(296,0,l),
(323,429,l),
(404,700,l),
(242,700,l),
(231,429,l),
(114,0,l)
);
},
{
closed = 1;
nodes = (
(269,381,l),
(477,346,l),
(505,512,l),
(285,477,l),
(76,512,l),
(48,346,l)
);
}
);
width = 494;
}
);
metricWidth = asterisk;
unicode = 8224;
}
{
glyphname = daggerdbl;
layers = (
{
layerId = m01;
shapes = (
{
closed = 1;
nodes = (
(195,-200,l),
(227,24,l),
(270,250,l),
(302,472,l),
(345,700,l),
(283,700,l),
(250,472,l),
(208,250,l),
(175,24,l),
(133,-200,l)
);
},
{
closed = 1;
nodes = (
(198,2,l),
(411,-3,l),
(420,53,l),
(206,48,l),
(-8,53,l),
(-17,-3,l)
);
},
{
closed = 1;
nodes = (
(273,451,l),
(486,446,l),
(495,502,l),
(280,497,l),
(67,502,l),
(58,446,l)
);
}
);
width = 478;
},
{
layerId = "AEB41AA6-A430-455D-A6E9-A3012AD74722";
shapes = (
{
closed = 1;
nodes = (
(259,-200,l),
(260,71,l),
(315,250,l),
(320,429,l),
(401,700,l),
(239,700,l),
(228,429,l),
(173,250,l),
(168,71,l),
(77,-200,l)
);
},
{
closed = 1;
nodes = (
(212,23,l),
(421,-7,l),
(447,149,l),
(228,119,l),
(18,149,l),
(-8,-7,l)
);
},
{
closed = 1;
nodes = (
(266,381,l),
(475,351,l),
(501,507,l),
(282,477,l),
(72,507,l),
(46,351,l)
);
}
);
width = 494;
}
);
metricWidth = asterisk;
unicode = 8225;
}
{
glyphname = bullet;
layers = (
{
layerId = m01;
shapes = (
{
closed = 1;
nodes = (
(292,183,o),
(343,227,o),
(352,278,cs),
(361,334,o),
(321,380,o),
(266,380,cs),
(214,380,o),
(165,338,o),
(156,286,cs),
(147,231,o),
(185,183,o),
(241,183,cs)
);
}
);
width = 497;
},
{
layerId = "AEB41AA6-A430-455D-A6E9-A3012AD74722";
shapes = (
{
closed = 1;
nodes = (
(289,155,o),
(352,209,o),
(364,277,cs),
(377,356,o),
(321,420,o),
(240,420,cs),
(172,420,o),
(109,366,o),
(98,299,cs),
(85,219,o),
(140,155,o),
(220,155,cs)
);
}
);
width = 449;
}
);
unicode = 8226;
}
{
glyphname = guilsinglleft;
layers = (
{
guides = (
{
pos = (21,298);
}
);
layerId = m01;
shapes = (
{
closed = 1;
nodes = (
(136,298,l),
(327,500,l),
(249,500,l),
(58,298,l)
);
},
{
closed = 1;
nodes = (
(257,96,l),
(134,298,l),
(60,298,l),
(183,96,l)
);
}
);
width = 345;
},
{
layerId = "AEB41AA6-A430-455D-A6E9-A3012AD74722";
shapes = (
{
closed = 1;
nodes = (
(267,298,l),
(434,500,l),
(228,500,l),
(53,298,l)
);
},
{
closed = 1;
nodes = (
(366,96,l),
(267,298,l),
(53,298,l),
(162,96,l)
);
}
);
width = 442;
}
);
unicode = 8249;
}
{
glyphname = fraction;
layers = (
{
layerId = m01;
shapes = (
{
closed = 1;
nodes = (
(-95,0,l),
(386,700,l),
(311,700,l),
(-170,0,l)
);
}
);
width = 216;
},
{
layerId = "AEB41AA6-A430-455D-A6E9-A3012AD74722";
shapes = (
{
closed = 1;
nodes = (
(-70,0,l),
(411,700,l),
(296,700,l),
(-185,0,l)
);
}
);
width = 226;
}
);
unicode = 8260;
}
{
glyphname = euro;
layers = (
{
layerId = m01;
shapes = (
{
closed = 1;
nodes = (
(428,-12,o),
(536,61,o),
(596,168,c),
(546,205,l),
(499,113,o),
(412,46,o),
(337,46,cs),
(215,46,o),
(151,169,o),
(181,346,cs),
(211,526,o),
(321,654,o),
(444,654,cs),
(514,654,o),
(579,596,o),
(596,511,c),
(654,540,l),
(629,640,o),
(543,712,o),
(445,712,cs),
(288,712,o),
(154,564,o),
(118,354,cs),
(83,140,o),
(172,-12,o),
(335,-12,cs)
);
},
{
closed = 1;
nodes = (
(450,258,l),
(459,310,l),
(30,310,l),
(21,258,l)
);
},
{
closed = 1;
nodes = (
(472,390,l),
(481,442,l),
(52,442,l),
(43,390,l)
);
}
);
width = 650;
},
{
annotations = (
{
pos = (378.086,339.453);
type = Text;
}
);
background = {
shapes = (
{
closed = 1;
nodes = (
(506,-12,o),
(603,63,o),
(645,170,c),
(591,203,l),
(559,111,o),
(484,46,o),
(411,46,cs),
(287,46,o),
(201,171,o),
(201,350,cs),
(201,528,o),
(287,654,o),
(408,654,cs),
(480,654,o),
(556,594,o),
(588,509,c),
(642,542,l),
(600,642,o),
(504,712,o),
(408,712,cs),
(249,712,o),
(137,562,o),
(137,350,cs),
(137,138,o),
(250,-12,o),
(411,-12,cs)
);
},
{
closed = 1;
nodes = (
(485,390,l),
(485,442,l),
(56,442,l),
(56,390,l)
);
},
{
closed = 1;
nodes = (
(485,258,l),
(485,310,l),
(56,310,l),
(56,258,l)
);
}
);
};
layerId = "AEB41AA6-A430-455D-A6E9-A3012AD74722";
shapes = (
{
closed = 1;
nodes = (
(521,-12,o),
(638,69,o),
(703,196,c),
(544,262,l),
(509,202,o),
(461,158,o),
(388,158,cs),
(309,158,o),
(267,232,o),
(285,339,cs),
(305,458,o),
(385,542,o),
(475,542,cs),
(531,542,o),
(565,509,o),
(580,449,c),
(747,495,l),
(723,621,o),
(628,712,o),
(479,712,cs),
(288,712,o),
(133,567,o),
(99,361,cs),
(62,143,o),
(179,-12,o),
(382,-12,cs)
);
},
{
closed = 1;
nodes = (
(486,254,l),
(499,336,l),
(24,336,l),
(11,254,l)
);
},
{
closed = 1;
nodes = (
(504,364,l),
(518,446,l),
(43,446,l),
(29,364,l)
);
}
);
width = 727;
}
);
metricRight = C;
unicode = 8364;
}
{
glyphname = ruble;
layers = (
{
layerId = m01;
shapes = (
{
closed = 1;
nodes = (
(180,-60,l),
(242,346,l),
(383,346,ls),
(499,346,o),
(593,414,o),
(614,539,cs),
(636,669,o),
(556,740,o),
(424,740,cs),
(251,740,l),
(116,-60,l)
);
},
{
closed = 1;
nodes = (
(305,682,l),
(419,682,ls),
(514,682,o),
(568,639,o),
(553,547,cs),
(537,452,o),
(468,405,o),
(389,405,cs),
(252,405,l)
);
},
{
closed = 1;
nodes = (
(396,51,l),
(405,103,l),
(76,103,l),
(67,51,l)
);
},
{
closed = 1;
nodes = (
(418,183,l),
(427,235,l),
(98,235,l),
(89,183,l)
);
}
);
width = 596;
},
{
background = {
shapes = (
{
closed = 1;
nodes = (
(430,210,ls),
(588,210,o),
(710,307,o),
(734,445,cs),
(759,595,o),
(659,702,o),
(500,701,cs),
(375,700,l),
(347,531,l),
(479,531,ls),
(523,531,o),
(548,510,o),
(548,479,cs),
(548,431,o),
(502,380,o),
(442,380,cs),
(322,380,l),
(293,210,l)
);
},
{
closed = 1;
nodes = (
(284,0,l),
(401,700,l),
(216,700,l),
(99,0,l)
);
}
);
};
layerId = "AEB41AA6-A430-455D-A6E9-A3012AD74722";
shapes = (
{
closed = 1;
nodes = (
(267,-60,l),
(319,290,l),
(390,290,ls),
(548,290,o),
(670,367,o),
(694,505,cs),
(719,655,o),
(619,740,o),
(460,740,cs),
(216,740,l),
(82,-60,l)
);
},
{
closed = 1;
nodes = (
(373,571,l),
(439,571,ls),
(483,571,o),
(508,564,o),
(508,523,cs),
(508,491,o),
(470,460,o),
(402,460,cs),
(348,460,l)
);
},
{
closed = 1;
nodes = (
(447,21,l),
(460,103,l),
(35,103,l),
(22,21,l)
);
},
{
closed = 1;
nodes = (
(465,131,l),
(479,213,l),
(54,213,l),
(40,131,l)
);
}
);
width = 656;
}
);
metricLeft = I;
metricRight = "=O-20";
unicode = 8381;
}
{
glyphname = trademark;
layers = (
{
guides = (
{
pos = (15,350);
}
);
layerId = m01;
shapes = (
{
closed = 1;
nodes = (
(458,280,l),
(511,600,l),
(618,392,l),
(792,598,l),
(739,280,l),
(801,280,l),
(871,700,l),
(804,700,l),
(635,498,l),
(531,700,l),
(465,700,l),
(395,280,l)
);
},
{
closed = 1;
nodes = (
(205,280,l),
(265,643,l),
(397,643,l),
(406,700,l),
(82,700,l),
(73,643,l),
(203,643,l),
(143,280,l)
);
}
);
width = 848;
},
{
layerId = "AEB41AA6-A430-455D-A6E9-A3012AD74722";
shapes = (
{
closed = 1;
nodes = (
(536,280,l),
(575,516,l),
(661,357,l),
(787,507,l),
(749,280,l),
(872,280,l),
(942,700,l),
(803,700,l),
(689,563,l),
(618,700,l),
(483,700,l),
(413,280,l)
);
},
{
closed = 1;
nodes = (
(255,280,l),
(306,587,l),
(421,587,l),
(440,700,l),
(86,700,l),
(67,587,l),
(183,587,l),
(132,280,l)
);
}
);
width = 899;
}
);
unicode = 8482;
}
{
glyphname = upArrow;
layers = (
{
layerId = m01;
shapes = (
{
closed = 1;
nodes = (
(439,652,l),
(420,712,l),
(116,404,l),
(155,370,l)
);
},
{
closed = 1;
nodes = (
(623,404,l),
(420,712,l),
(382,652,l),
(574,370,l)
);
},
{
closed = 1;
nodes = (
(330,0,l),
(439,652,l),
(382,652,l),
(273,0,l)
);
}
);
width = 687;
},
{
layerId = "AEB41AA6-A430-455D-A6E9-A3012AD74722";
shapes = (
{
closed = 1;
nodes = (
(519,576,l),
(458,712,l),
(122,443,l),
(214,335,l)
);
},
{
closed = 1;
nodes = (
(705,437,l),
(458,712,l),
(355,577,l),
(585,331,l)
);
},
{
closed = 1;
nodes = (
(417,0,l),
(521,619,l),
(371,619,l),
(267,0,l)
);
}
);
width = 764;
}
);
unicode = 8593;
}
{
glyphname = rightArrow;
layers = (
{
layerId = m01;
shapes = (
{
closed = 1;
nodes = (
(688,297,l),
(421,551,l),
(381,507,l),
(624,269,l)
);
},
{
closed = 1;
nodes = (
(688,297,l),
(632,326,l),
(311,88,l),
(339,44,l)
);
},
{
closed = 1;
nodes = (
(623,269,l),
(633,326,l),
(83,326,l),
(73,269,l)
);
}
);
width = 740;
},
{
layerId = "AEB41AA6-A430-455D-A6E9-A3012AD74722";
shapes = (
{
closed = 1;
nodes = (
(710,297,l),
(487,592,l),
(366,486,l),
(565,217,l)
);
},
{
closed = 1;
nodes = (
(712,297,l),
(586,381,l),
(299,115,l),
(392,8,l)
);
},
{
closed = 1;
nodes = (
(605,223,l),
(631,373,l),
(81,373,l),
(55,223,l)
);
}
);
width = 758;
}
);
unicode = 8594;
}
{
glyphname = northWestArrow;
layers = (
{
layerId = m01;
shapes = (
{
closed = 1;
nodes = (
(618,217,l),
(233,678,l),
(188,638,l),
(573,177,l)
);
},
{
closed = 1;
nodes = (
(570,700,l),
(176,700,l),
(194,640,l),
(560,640,l)
);
},
{
closed = 1;
nodes = (
(230,673,l),
(175,700,l),
(109,305,l),
(169,305,l)
);
}
);
width = 724;
},
{
layerId = "AEB41AA6-A430-455D-A6E9-A3012AD74722";
shapes = (
{
closed = 1;
nodes = (
(576,297,l),
(248,686,l),
(128,580,l),
(456,191,l)
);
},
{
closed = 1;
nodes = (
(535,700,l),
(137,700,l),
(150,556,l),
(511,554,l)
);
},
{
closed = 1;
nodes = (
(273,663,l),
(137,700,l),
(68,300,l),
(214,300,l)
);
}
);
width = 628;
}
);
metricLeft = I;
metricRight = I;
unicode = 8598;
}
{
glyphname = northEastArrow;
layers = (
{
layerId = m01;
shapes = (
{
closed = 1;
nodes = (
(666,638,l),
(631,678,l),
(94,217,l),
(129,177,l)
);
},
{
closed = 1;
nodes = (
(662,640,l),
(699,700,l),
(304,700,l),
(294,640,l)
);
},
{
closed = 1;
nodes = (
(633,305,l),
(699,700,l),
(634,673,l),
(573,305,l)
);
}
);
width = 724;
},
{
layerId = "AEB41AA6-A430-455D-A6E9-A3012AD74722";
shapes = (
{
closed = 1;
nodes = (
(610,580,l),
(518,686,l),
(68,297,l),
(160,191,l)
);
},
{
closed = 1;
nodes = (
(584,556,l),
(643,700,l),
(243,700,l),
(219,554,l)
);
},
{
closed = 1;
nodes = (
(576,300,l),
(643,700,l),
(493,663,l),
(430,300,l)
);
}
);
width = 628;
}
);
metricLeft = I;
metricRight = I;
unicode = 8599;
}
{
glyphname = southEastArrow;
layers = (
{
layerId = m01;
shapes = (
{
closed = 1;
nodes = (
(524,23,l),
(570,63,l),
(184,524,l),
(139,484,l)
);
},
{
closed = 1;
nodes = (
(526,28,l),
(580,0,l),
(647,395,l),
(587,395,l)
);
},
{
closed = 1;
nodes = (
(186,0,l),
(580,0,l),
(564,60,l),
(196,60,l)
);
}
);
width = 723;
},
{
layerId = "AEB41AA6-A430-455D-A6E9-A3012AD74722";
shapes = (
{
closed = 1;
nodes = (
(413,13,l),
(532,119,l),
(204,508,l),
(85,402,l)
);
},
{
closed = 1;
nodes = (
(389,37,l),
(527,0,l),
(593,400,l),
(447,400,l)
);
},
{
closed = 1;
nodes = (
(126,0,l),
(525,0,l),
(512,144,l),
(151,146,l)
);
}
);
width = 629;
}
);
metricLeft = I;
metricRight = I;
unicode = 8600;
}
{
glyphname = southWestArrow;
layers = (
{
layerId = m01;
shapes = (
{
closed = 1;
nodes = (
(663,483,l),
(628,523,l),
(91,62,l),
(126,22,l)
);
},
{
closed = 1;
nodes = (
(123,27,l),
(184,395,l),
(124,395,l),
(58,0,l)
);
},
{
closed = 1;
nodes = (
(453,0,l),
(463,60,l),
(95,60,l),
(58,0,l)
);
}
);
width = 724;
},
{
layerId = "AEB41AA6-A430-455D-A6E9-A3012AD74722";
shapes = (
{
closed = 1;
nodes = (
(594,403,l),
(501,509,l),
(51,120,l),
(144,14,l)
);
},
{
closed = 1;
nodes = (
(169,37,l),
(231,400,l),
(85,400,l),
(19,0,l)
);
},
{
closed = 1;
nodes = (
(418,0,l),
(443,146,l),
(78,144,l),
(19,0,l)
);
}
);
width = 628;
}
);
metricLeft = I;
metricRight = I;
unicode = 8601;
}
{
glyphname = minus;
layers = (
{
layerId = m01;
shapes = (
{
closed = 1;
nodes = (
(503,269,l),
(513,326,l),
(133,326,l),
(123,269,l)
);
}
);
width = 620;
},
{
layerId = "AEB41AA6-A430-455D-A6E9-A3012AD74722";
shapes = (
{
closed = 1;
nodes = (
(511,226,l),
(535,370,l),
(145,370,l),
(121,226,l)
);
}
);
width = 640;
}
);
unicode = 8722;
}
{
glyphname = divisionslash;
layers = (
{
layerId = m01;
shapes = (
{
closed = 1;
nodes = (
(62,0,l),
(661,700,l),
(592,700,l),
(-8,0,l)
);
}
);
width = 620;
},
{
layerId = "AEB41AA6-A430-455D-A6E9-A3012AD74722";
shapes = (
{
closed = 1;
nodes = (
(92,0,l),
(690,700,l),
(582,700,l),
(-16,0,l)
);
}
);
width = 640;
}
);
unicode = 8725;
}
{
glyphname = notequal;
layers = (
{
layerId = m01;
shapes = (
{
closed = 1;
nodes = (
(205,70,l),
(536,582,l),
(471,582,l),
(139,70,l)
);
},
{
pos = (5,30);
ref = equal;
}
);
width = 620;
},
{
guides = (
{
angle = 80.5;
pos = (134,328);
},
{
angle = 80.5;
pos = (531,320);
}
);
layerId = "AEB41AA6-A430-455D-A6E9-A3012AD74722";
shapes = (
{
closed = 1;
nodes = (
(234,74,l),
(575,586,l),
(434,586,l),
(92,74,l)
);
},
{
pos = (6,33);
ref = equal;
scale = (0.998,1);
}
);
width = 640;
}
);
metricLeft = equal;
metricRight = equal;
unicode = 8800;
}
{
glyphname = lessequal;
layers = (
{
guides = (
{
angle = 80.5;
pos = (159,369);
}
);
layerId = m01;
shapes = (
{
angle = 180;
pos = (636,596);
ref = greater;
},
{
closed = 1;
nodes = (
(428,0,l),
(437,51,l),
(106,51,l),
(97,0,l)
);
}
);
width = 620;
},
{
guides = (
{
angle = 80.5;
pos = (115,227);
},
{
angle = 80.5;
pos = (515,227);
}
);
layerId = "AEB41AA6-A430-455D-A6E9-A3012AD74722";
shapes = (
{
angle = 180.5;
pos = (661,627);
ref = greater;
scale = (0.9975,0.9);
},
{
closed = 1;
nodes = (
(477,0,l),
(497,120,l),
(97,120,l),
(77,0,l)
);
}
);
width = 640;
}
);
metricLeft = "=less";
metricRight = "=less";
unicode = 8804;
}
{
glyphname = greaterequal;
layers = (
{
layerId = m01;
shapes = (
{
ref = greater;
},
{
closed = 1;
nodes = (
(439,0,l),
(448,51,l),
(117,51,l),
(108,0,l)
);
}
);
width = 620;
},
{
guides = (
{
angle = 80.5;
pos = (118,227);
},
{
angle = 80.5;
pos = (518,227);
}
);
layerId = "AEB41AA6-A430-455D-A6E9-A3012AD74722";
shapes = (
{
angle = 0.5;
pos = (15,89);
ref = greater;
scale = (0.9975,0.9);
},
{
closed = 1;
nodes = (
(480,0,l),
(500,120,l),
(100,120,l),
(80,0,l)
);
}
);
width = 640;
}
);
metricLeft = "=greater";
metricRight = "=greater";
unicode = 8805;
}
{
export = 0;
glyphname = Bowl;
layers = (
{
layerId = m01;
shapes = (
{
closed = 1;
nodes = (
(356,-12,o),
(491,95,o),
(491,308,cs),
(491,430,o),
(422,512,o),
(311,512,cs),
(149,512,o),
(40,353,o),
(40,196,cs),
(40,74,o),
(119,-12,o),
(231,-12,cs)
);
},
{
closed = 1;
nodes = (
(156,42,o),
(100,107,o),
(100,200,cs),
(100,325,o),
(188,458,o),
(321,458,cs),
(402,458,o),
(452,396,o),
(452,303,cs),
(452,181,o),
(374,42,o),
(244,42,cs)
);
}
);
width = 582;
},
{
background = {
shapes = (
{
closed = 1;
nodes = (
(373,-12,o),
(418,199,o),
(418,339,cs),
(418,449,o),
(370,512,o),
(267,512,cs),
(82,512,o),
(-1,372,o),
(-1,181,cs),
(-1,65,o),
(86,-12,o),
(194,-12,cs)
);
},
{
closed = 1;
nodes = (
(218,154,o),
(191,186,o),
(191,232,cs),
(191,290,o),
(235,345,o),
(293,345,cs),
(338,345,o),
(366,315,o),
(366,270,cs),
(366,211,o),
(322,154,o),
(262,154,cs)
);
}
);
};
layerId = "AEB41AA6-A430-455D-A6E9-A3012AD74722";
shapes = (
{
closed = 1;
nodes = (
(324,-12,o),
(392,78,o),
(418,233,cs),
(446,396,o),
(406,512,o),
(257,512,cs),
(128,512,o),
(38,422,o),
(12,267,cs),
(-17,98,o),
(61,-12,o),
(212,-12,cs)
);
},
{
closed = 1;
nodes = (
(224,154,o),
(191,198,o),
(199,257,cs),
(208,310,o),
(246,345,o),
(292,345,cs),
(344,345,o),
(379,303,o),
(369,243,cs),
(360,190,o),
(322,154,o),
(275,154,cs)
);
}
);
width = 576;
},
{
associatedMasterId = m01;
layerId = "32F03BCB-9E9C-405B-ADA6-EEECE642E81F";
name = "Light Italic";
shapes = (
{
closed = 1;
nodes = (
(356,-12,o),
(491,95,o),
(491,308,cs),
(491,430,o),
(422,512,o),
(311,512,cs),
(150,512,o),
(41,353,o),
(41,196,cs),
(41,74,o),
(120,-12,o),
(231,-12,cs)
);
},
{
closed = 1;
nodes = (
(156,42,o),
(100,107,o),
(100,200,cs),
(100,325,o),
(188,458,o),
(321,458,cs),
(402,458,o),
(452,396,o),
(452,303,cs),
(452,181,o),
(371,42,o),
(244,42,cs)
);
}
);
width = 582;
},
{
associatedMasterId = m01;
layerId = "BDC8D416-173A-46E4-BE46-46ED12CC3432";
name = "Black Italic";
shapes = (
{
closed = 1;
nodes = (
(382,-12,o),
(427,199,o),
(427,339,cs),
(427,449,o),
(379,512,o),
(276,512,cs),
(92,512,o),
(5,367,o),
(5,181,cs),
(5,65,o),
(93,-12,o),
(203,-12,cs)
);
},
{
closed = 1;
nodes = (
(225,154,o),
(198,186,o),
(198,232,cs),
(198,290,o),
(242,345,o),
(300,345,cs),
(345,345,o),
(373,315,o),
(373,270,cs),
(373,211,o),
(329,154,o),
(269,154,cs)
);
}
);
width = 600;
}
);
}
{
glyphname = I.ss02;
layers = (
{
anchors = (
{
name = bottom;
pos = (182,0);
},
{
name = ogonek;
pos = (214,0);
},
{
name = top;
pos = (253,670);
},
{
name = topleft;
pos = (126,700);
}
);
guides = (
{
angle = 80.501;
pos = (237,576);
}
);
layerId = m01;
shapes = (
{
closed = 1;
nodes = (
(272,0,l),
(282,58,l),
(182,58,l),
(280,642,l),
(380,642,l),
(389,700,l),
(125,700,l),
(116,642,l),
(216,642,l),
(118,58,l),
(18,58,l),
(8,0,l)
);
}
);
width = 364;
},
{
anchors = (
{
name = bottom;
pos = (193,0);
},
{
name = ogonek;
pos = (293,0);
},
{
name = top;
pos = (310,700);
},
{
name = topleft;
pos = (165,700);
}
);
guides = (
{
angle = 80.501;
pos = (288,576);
}
);
layerId = "AEB41AA6-A430-455D-A6E9-A3012AD74722";
shapes = (
{
closed = 1;
nodes = (
(393,0,l),
(422,170,l),
(312,170,l),
(372,530,l),
(482,530,l),
(510,700,l),
(105,700,l),
(77,530,l),
(187,530,l),
(127,170,l),
(17,170,l),
(-12,0,l)
);
}
);
width = 465;
}
);
}
{
glyphname = Idieresis.ss02;
layers = (
{
anchors = (
{
name = _top;
pos = (182,670);
},
{
name = top;
pos = (182,880);
}
);
guides = (
{
angle = 80.501;
pos = (238,576);
}
);
layerId = m01;
shapes = (
{
closed = 1;
nodes = (
(364,800,o),
(382,818,o),
(382,840,cs),
(382,862,o),
(364,880,o),
(342,880,cs),
(320,880,o),
(302,862,o),
(302,840,cs),
(302,818,o),
(320,800,o),
(342,800,cs)
);
},
{
closed = 1;
nodes = (
(243,800,o),
(261,818,o),
(261,840,cs),
(261,862,o),
(243,880,o),
(221,880,cs),
(199,880,o),
(181,862,o),
(181,840,cs),
(181,818,o),
(199,800,o),
(221,800,cs)
);
},
{
ref = I.ss02;
}
);
width = 364;
},
{
anchors = (
{
name = _top;
pos = (245,700);
},
{
name = top;
pos = (245,948);
}
);
guides = (
{
angle = 80.501;
pos = (287,576);
}
);
layerId = "AEB41AA6-A430-455D-A6E9-A3012AD74722";
shapes = (
{
closed = 1;
nodes = (
(481,769,o),
(522,810,o),
(522,857,cs),
(522,904,o),
(481,945,o),
(434,945,cs),
(387,945,o),
(346,904,o),
(346,857,cs),
(346,810,o),
(387,769,o),
(434,769,cs)
);
},
{
closed = 1;
nodes = (
(282,769,o),
(322,809,o),
(322,857,cs),
(322,905,o),
(282,945,o),
(234,945,cs),
(186,945,o),
(146,905,o),
(146,857,cs),
(146,809,o),
(186,769,o),
(234,769,cs)
);
},
{
ref = I.ss02;
}
);
width = 465;
}
);
metricLeft = "=I.ss02";
metricRight = "=I.ss02";
}
{
glyphname = .notdef;
layers = (
{
layerId = m01;
shapes = (
{
closed = 1;
nodes = (
(608,-170,l),
(608,790,l),
(100,790,l),
(100,-170,l)
);
},
{
closed = 1;
nodes = (
(158,732,l),
(550,732,l),
(550,-112,l),
(158,-112,l)
);
}
);
width = 708;
},
{
layerId = "AEB41AA6-A430-455D-A6E9-A3012AD74722";
shapes = (
{
closed = 1;
nodes = (
(608,-170,l),
(608,790,l),
(100,790,l),
(100,-170,l)
);
},
{
closed = 1;
nodes = (
(158,732,l),
(550,732,l),
(550,-112,l),
(158,-112,l)
);
}
);
width = 708;
}
);
}
{
glyphname = a.ss01;
kernLeft = "round-left-lowercase";
layers = (
{
anchors = (
{
name = ogonek;
pos = (466,0);
},
{
name = top;
pos = (312,500);
}
);
layerId = m01;
shapes = (
{
closed = 1;
nodes = (
(466,0,l),
(550,500,l),
(490,500,l),
(422,93,l),
(409,0,l)
);
},
{
pos = (1,0);
ref = Bowl;
}
);
width = 583;
},
{
anchors = (
{
name = ogonek;
pos = (512,0);
},
{
name = top;
pos = (310,500);
}
);
layerId = "AEB41AA6-A430-455D-A6E9-A3012AD74722";
shapes = (
{
closed = 1;
nodes = (
(519,0,l),
(603,500,l),
(423,500,l),
(355,93,l),
(348,0,l)
);
},
{
pos = (11,0);
ref = Bowl;
}
);
width = 606;
}
);
metricLeft = o;
metricRight = "=|n";
}
{
export = 0;
glyphname = arch;
layers = (
{
guides = (
{
angle = 260.5;
pos = (399,259);
}
);
layerId = m01;
shapes = (
{
closed = 1;
nodes = (
(400,258,l),
(404,284,l),
(430,436,o),
(361,512,o),
(239,512,cs),
(112,512,o),
(29,419,o),
(2,259,c),
(39,255,l),
(60,380,o),
(130,456,o),
(227,456,cs),
(308,456,o),
(367,424,o),
(339,258,c)
);
}
);
width = 398;
},
{
layerId = "AEB41AA6-A430-455D-A6E9-A3012AD74722";
shapes = (
{
closed = 1;
nodes = (
(363,256,l),
(368,286,l),
(394,440,o),
(348,512,o),
(226,512,cs),
(122,512,o),
(29,424,o),
(3,266,c),
(52,266,l),
(61,320,o),
(90,345,o),
(141,343,cs),
(178,341,o),
(193,313,o),
(183,256,c)
);
}
);
width = 362;
},
{
associatedMasterId = m01;
layerId = "32F03BCB-9E9C-405B-ADA6-EEECE642E81F";
name = "Light Italic";
shapes = (
{
closed = 1;
nodes = (
(404,284,l),
(430,436,o),
(361,512,o),
(239,512,cs),
(112,512,o),
(29,419,o),
(2,259,c),
(39,255,l),
(60,380,o),
(130,456,o),
(227,456,cs),
(308,456,o),
(367,424,o),
(339,258,c)
);
}
);
width = 397;
},
{
associatedMasterId = m01;
layerId = "BDC8D416-173A-46E4-BE46-46ED12CC3432";
name = "Black Italic";
shapes = (
{
closed = 1;
nodes = (
(361,286,l),
(387,440,o),
(341,512,o),
(219,512,cs),
(115,512,o),
(22,424,o),
(-4,266,c),
(45,266,l),
(54,320,o),
(83,345,o),
(134,343,cs),
(171,341,o),
(186,313,o),
(176,256,c)
);
}
);
width = 355;
}
);
}
{
glyphname = caroncomb.alt;
layers = (
{
anchors = (
{
name = _top_caron;
pos = (52,700);
}
);
layerId = m01;
shapes = (
{
closed = 1;
nodes = (
(103,527,l),
(202,699,l),
(130,699,l),
(46,527,l)
);
}
);
width = 127;
},
{
anchors = (
{
name = _top_caron;
pos = (61,700);
}
);
layerId = "AEB41AA6-A430-455D-A6E9-A3012AD74722";
shapes = (
{
closed = 1;
nodes = (
(183,552,l),
(251,700,l),
(98,700,l),
(51,552,l)
);
}
);
width = 176;
}
);
}
{
glyphname = eight.numr;
layers = (
{
layerId = m01;
shapes = (
{
closed = 1;
nodes = (
(299,273,o),
(362,320,o),
(373,386,cs),
(385,456,o),
(337,513,o),
(236,513,cs),
(143,513,o),
(78,464,o),
(66,393,cs),
(54,322,o),
(108,273,o),
(204,273,cs)
);
},
{
closed = 1;
nodes = (
(154,326,o),
(123,353,o),
(130,393,cs),
(137,438,o),
(183,469,o),
(237,469,cs),
(287,469,o),
(319,441,o),
(312,401,cs),
(305,357,o),
(260,326,o),
(205,326,cs)
);
},
{
closed = 1;
nodes = (
(197,523,o),
(168,547,o),
(174,580,cs),
(181,625,o),
(219,655,o),
(268,655,cs),
(311,655,o),
(337,629,o),
(331,592,cs),
(324,551,o),
(287,523,o),
(237,523,cs)
);
},
{
closed = 1;
nodes = (
(322,482,o),
(382,527,o),
(392,587,cs),
(404,659,o),
(356,707,o),
(268,707,cs),
(186,707,o),
(126,662,o),
(115,597,cs),
(104,529,o),
(152,482,o),
(239,482,cs)
);
}
);
userData = {
RMXScaler = {
height = 60;
verticalShift = 280;
width = 60;
};
};
width = 392;
},
{
layerId = "AEB41AA6-A430-455D-A6E9-A3012AD74722";
shapes = (
{
closed = 1;
nodes = (
(310,273,o),
(367,317,o),
(378,380,cs),
(392,463,o),
(345,519,o),
(225,519,cs),
(112,519,o),
(57,468,o),
(45,396,cs),
(33,326,o),
(78,273,o),
(200,273,cs)
);
},
{
closed = 1;
nodes = (
(181,373,o),
(170,385,o),
(172,400,cs),
(177,430,o),
(203,450,o),
(230,450,cs),
(249,450,o),
(261,438,o),
(257,414,cs),
(253,391,o),
(228,373,o),
(200,373,cs)
);
},
{
closed = 1;
nodes = (
(208,540,o),
(203,556,o),
(205,568,cs),
(209,594,o),
(229,612,o),
(256,612,cs),
(274,612,o),
(284,601,o),
(281,584,cs),
(277,559,o),
(254,540,o),
(228,540,cs)
);
},
{
closed = 1;
nodes = (
(334,482,o),
(391,524,o),
(401,585,cs),
(413,657,o),
(364,707,o),
(256,707,cs),
(159,707,o),
(101,664,o),
(91,603,cs),
(79,528,o),
(129,482,o),
(235,482,cs)
);
}
);
userData = {
RMXScaler = {
height = 60;
verticalShift = 280;
weight = -300;
width = 60;
};
};
width = 377;
}
);
metricLeft = "=eight*.7";
metricRight = "=eight*.7";
userData = {
RMXScaler = {
source = eight;
};
};
}
{
glyphname = five.numr;
layers = (
{
layerId = m01;
shapes = (
{
closed = 1;
nodes = (
(278,273,o),
(347,328,o),
(360,407,cs),
(374,493,o),
(321,544,o),
(249,544,cs),
(192,544,o),
(140,508,o),
(115,476,c),
(156,471,l),
(221,698,l),
(159,698,l),
(156,643,l),
(379,643,l),
(388,700,l),
(159,700,l),
(99,475,l),
(154,461,l),
(173,480,o),
(204,494,o),
(232,494,cs),
(279,494,o),
(306,461,o),
(298,415,cs),
(289,362,o),
(247,327,o),
(195,327,cs),
(165,327,o),
(137,340,o),
(119,371,c),
(63,351,l),
(82,299,o),
(142,273,o),
(196,273,cs)
);
}
);
userData = {
RMXScaler = {
height = 60;
verticalShift = 280;
width = 60;
};
};
width = 369;
},
{
layerId = "AEB41AA6-A430-455D-A6E9-A3012AD74722";
shapes = (
{
closed = 1;
nodes = (
(284,273,o),
(357,332,o),
(371,416,cs),
(384,494,o),
(336,545,o),
(274,547,cs),
(185,550,o),
(134,487,o),
(122,464,c),
(172,445,l),
(259,696,l),
(138,696,l),
(142,588,l),
(374,588,l),
(392,700,l),
(138,700,l),
(66,460,l),
(174,433,l),
(180,443,o),
(194,458,o),
(217,458,cs),
(238,458,o),
(246,442,o),
(244,426,cs),
(239,397,o),
(216,379,o),
(189,379,cs),
(177,379,o),
(164,382,o),
(164,395,c),
(43,381,l),
(47,313,o),
(126,273,o),
(196,273,cs)
);
}
);
userData = {
RMXScaler = {
height = 60;
verticalShift = 280;
weight = -300;
width = 60;
};
};
width = 364;
}
);
metricLeft = "=five*.7";
metricRight = "=five*.7";
userData = {
RMXScaler = {
source = five;
};
};
}
{
glyphname = four.numr;
layers = (
{
guides = (
{
pos = (22,280);
}
);
layerId = m01;
shapes = (
{
closed = 1;
nodes = (
(333,665,l),
(300,700,l),
(64,424,l),
(107,397,l)
);
},
{
closed = 1;
nodes = (
(391,374,l),
(400,429,l),
(102,429,l),
(64,424,l),
(56,374,l)
);
},
{
closed = 1;
nodes = (
(294,280,l),
(365,700,l),
(300,700,l),
(299,663,l),
(234,280,l)
);
}
);
userData = {
RMXScaler = {
height = 60;
verticalShift = 280;
width = 60;
};
};
width = 391;
},
{
layerId = "AEB41AA6-A430-455D-A6E9-A3012AD74722";
shapes = (
{
closed = 1;
nodes = (
(321,632,l),
(265,700,l),
(40,437,l),
(123,394,l)
);
},
{
closed = 1;
nodes = (
(393,337,l),
(411,441,l),
(104,441,l),
(40,437,l),
(23,337,l)
);
},
{
closed = 1;
nodes = (
(326,280,l),
(397,700,l),
(265,700,l),
(272,638,l),
(211,280,l)
);
}
);
userData = {
RMXScaler = {
height = 60;
verticalShift = 280;
weight = -300;
width = 60;
};
};
width = 400;
}
);
metricLeft = "=four*.7";
metricRight = "=four*.7";
userData = {
RMXScaler = {
source = four;
};
};
}
{
glyphname = l.ss03;
kernLeft = tall_left_lowercase;
layers = (
{
anchors = (
{
name = bottom;
pos = (160,0);
},
{
name = top;
pos = (175,670);
},
{
name = top_caron;
pos = (212,700);
}
);
layerId = m01;
shapes = (
{
closed = 1;
nodes = (
(185,-12,o),
(206,-9,o),
(246,12,c),
(226,66,l),
(193,46,o),
(181,43,o),
(163,43,cs),
(123,43,o),
(105,72,o),
(114,126,cs),
(213,720,l),
(153,720,l),
(55,130,ls),
(40,41,o),
(81,-12,o),
(162,-12,cs)
);
}
);
width = 284;
},
{
anchors = (
{
name = bottom;
pos = (103,0);
},
{
name = top;
pos = (210,700);
},
{
name = top_caron;
pos = (302,700);
}
);
layerId = "AEB41AA6-A430-455D-A6E9-A3012AD74722";
shapes = (
{
closed = 1;
nodes = (
(224,-12,o),
(276,9,o),
(309,36,c),
(260,174,l),
(255,170,o),
(239,160,o),
(226,160,cs),
(212,160,o),
(211,168,o),
(217,202,cs),
(303,720,l),
(123,720,l),
(31,163,ls),
(13,53,o),
(63,-12,o),
(187,-12,cs)
);
}
);
width = 330;
}
);
metricRight = "=t-30";
}
{
glyphname = lslash.ss03;
kernLeft = tall_left_lowercase;
layers = (
{
layerId = m01;
shapes = (
{
pos = (35,0);
ref = l.ss03;
},
{
closed = 1;
nodes = (
(283,384,l),
(292,442,l),
(33,327,l),
(24,269,l)
);
}
);
width = 321;
},
{
layerId = "AEB41AA6-A430-455D-A6E9-A3012AD74722";
shapes = (
{
pos = (12,0);
ref = l.ss03;
},
{
closed = 1;
nodes = (
(310,358,l),
(331,496,l),
(15,342,l),
(-5,204,l)
);
}
);
width = 347;
}
);
}
{
glyphname = macroncomb.narrow;
layers = (
{
anchors = (
{
name = _top;
pos = (195,500);
}
);
layerId = m01;
shapes = (
{
closed = 1;
nodes = (
(330,580,l),
(339,637,l),
(89,637,l),
(80,580,l)
);
}
);
width = 300;
},
{
anchors = (
{
name = _top;
pos = (212,500);
}
);
layerId = "AEB41AA6-A430-455D-A6E9-A3012AD74722";
shapes = (
{
closed = 1;
nodes = (
(390,549,l),
(415,700,l),
(75,700,l),
(50,549,l)
);
}
);
width = 340;
}
);
}
{
glyphname = nine.numr;
layers = (
{
layerId = m01;
shapes = (
{
closed = 1;
nodes = (
(269,273,o),
(339,365,o),
(362,504,cs),
(380,613,o),
(355,707,o),
(238,707,cs),
(154,707,o),
(88,653,o),
(75,576,cs),
(61,494,o),
(110,434,o),
(193,434,cs),
(246,434,o),
(293,462,o),
(320,509,c),
(308,523,l),
(290,392,o),
(236,328,o),
(159,328,cs),
(137,328,o),
(106,336,o),
(84,354,c),
(46,311,l),
(76,287,o),
(118,273,o),
(162,273,cs)
);
},
{
closed = 1;
nodes = (
(152,486,o),
(128,522,o),
(136,568,cs),
(144,617,o),
(188,653,o),
(237,653,cs),
(285,653,o),
(311,618,o),
(304,575,cs),
(295,523,o),
(252,486,o),
(201,486,cs)
);
}
);
userData = {
RMXScaler = {
height = 60;
verticalShift = 280;
width = 60;
};
};
width = 353;
},
{
layerId = "AEB41AA6-A430-455D-A6E9-A3012AD74722";
shapes = (
{
closed = 1;
nodes = (
(305,272,o),
(369,387,o),
(390,511,cs),
(409,624,o),
(364,707,o),
(251,707,cs),
(153,707,o),
(89,651,o),
(76,576,cs),
(62,493,o),
(112,423,o),
(194,423,cs),
(234,423,o),
(270,444,o),
(296,484,c),
(272,502,l),
(257,415,o),
(217,379,o),
(177,379,cs),
(166,379,o),
(136,381,o),
(112,398,c),
(46,311,l),
(79,287,o),
(122,272,o),
(173,272,cs)
);
},
{
closed = 1;
nodes = (
(204,520,o),
(192,537,o),
(195,555,cs),
(199,583,o),
(224,605,o),
(250,605,cs),
(267,605,o),
(279,591,o),
(275,569,cs),
(271,544,o),
(244,520,o),
(220,520,cs)
);
}
);
userData = {
RMXScaler = {
height = 60;
verticalShift = 280;
weight = -300;
width = 60;
};
};
width = 367;
}
);
metricLeft = "=nine*.7";
metricRight = "=nine*.7";
userData = {
RMXScaler = {
source = nine;
};
};
}
{
glyphname = ogonekcomb.alt;
layers = (
{
anchors = (
{
name = _ogonek;
pos = (108,33);
}
);
background = {
shapes = (
{
closed = 1;
nodes = (
(172,-212,o),
(196,-204,o),
(213,-192,c),
(194,-146,l),
(187,-149,o),
(165,-157,o),
(140,-157,cs),
(115,-157,o),
(100,-145,o),
(100,-124,cs),
(100,-75,o),
(149,-35,o),
(196,0,c),
(146,12,l),
(91,-28,o),
(40,-74,o),
(40,-124,cs),
(40,-182,o),
(79,-212,o),
(146,-212,cs)
);
}
);
};
guides = (
{
angle = 37;
pos = (160,45);
},
{
angle = 90;
pos = (213,53);
}
);
layerId = m01;
shapes = (
{
closed = 1;
nodes = (
(85,-212,o),
(118,-204,o),
(141,-193,c),
(125,-145,l),
(108,-152,o),
(79,-157,o),
(55,-157,cs),
(32,-157,o),
(15,-142,o),
(15,-121,cs),
(15,-72,o),
(54,-8,o),
(108,33,c),
(90,35,l),
(10,-4,o),
(-47,-76,o),
(-47,-137,cs),
(-47,-181,o),
(-2,-212,o),
(61,-212,cs)
);
}
);
width = 213;
},
{
anchors = (
{
name = _ogonek;
pos = (181,50);
}
);
background = {
shapes = (
{
pos = (20,0);
ref = ogonekcomb;
}
);
};
guides = (
{
angle = 45;
pos = (209,53);
},
{
angle = 90;
pos = (254,53);
}
);
layerId = "AEB41AA6-A430-455D-A6E9-A3012AD74722";
shapes = (
{
closed = 1;
nodes = (
(158,-212,o),
(182,-211,o),
(204,-199,c),
(158,-87,l),
(148,-91,o),
(137,-96,o),
(119,-96,cs),
(106,-96,o),
(95,-88,o),
(95,-71,cs),
(95,-39,o),
(116,-3,o),
(188,56,c),
(149,63,l),
(76,23,o),
(-38,-24,o),
(-38,-109,cs),
(-38,-177,o),
(37,-212,o),
(131,-212,cs)
);
}
);
width = 274;
}
);
}
{
glyphname = one.numr;
layers = (
{
guides = (
{
pos = (28,280);
},
{
pos = (30,706);
}
);
layerId = m01;
shapes = (
{
closed = 1;
nodes = (
(203,280,l),
(274,700,l),
(218,700,l),
(207,667,l),
(142,280,l)
);
},
{
closed = 1;
nodes = (
(147,581,o),
(195,608,o),
(252,658,c),
(217,700,l),
(187,670,o),
(136,638,o),
(110,639,c),
(101,583,l)
);
}
);
userData = {
RMXScaler = {
height = 60;
verticalShift = 280;
width = 60;
};
};
width = 283;
},
{
layerId = "AEB41AA6-A430-455D-A6E9-A3012AD74722";
shapes = (
{
closed = 1;
nodes = (
(232,280,l),
(302,700,l),
(198,700,l),
(175,634,l),
(116,280,l)
);
},
{
closed = 1;
nodes = (
(146,527,o),
(210,570,o),
(268,626,c),
(198,700,l),
(174,675,o),
(129,642,o),
(95,646,c),
(76,536,l)
);
}
);
userData = {
RMXScaler = {
height = 60;
verticalShift = 280;
weight = -300;
width = 60;
};
};
width = 283;
}
);
metricLeft = "=one*.7";
metricRight = "=one*.7";
userData = {
RMXScaler = {
source = one;
};
};
}
{
glyphname = one.tf;
layers = (
{
layerId = m01;
shapes = (
{
pos = (73,0);
ref = one;
},
{
closed = 1;
nodes = (
(297,0,l),
(307,57,l),
(290,57,l),
(280,0,l)
);
}
);
width = 620;
},
{
layerId = "AEB41AA6-A430-455D-A6E9-A3012AD74722";
shapes = (
{
pos = (71,0);
ref = one;
},
{
closed = 1;
nodes = (
(320,0,l),
(347,162,l),
(298,162,l),
(271,0,l)
);
}
);
width = 640;
}
);
}
{
glyphname = one.tf.ss04;
layers = (
{
layerId = m01;
shapes = (
{
pos = (73,0);
ref = one;
},
{
closed = 1;
nodes = (
(477,0,l),
(487,57,l),
(108,57,l),
(98,0,l)
);
}
);
width = 620;
},
{
layerId = "AEB41AA6-A430-455D-A6E9-A3012AD74722";
shapes = (
{
pos = (71,0);
ref = one;
},
{
closed = 1;
nodes = (
(526,0,l),
(553,162,l),
(98,162,l),
(71,0,l)
);
}
);
width = 640;
}
);
}
{
glyphname = seven.numr;
layers = (
{
layerId = m01;
shapes = (
{
closed = 1;
nodes = (
(135,280,l),
(384,651,l),
(321,655,l),
(64,280,l)
);
},
{
closed = 1;
nodes = (
(327,643,l),
(384,651,l),
(392,700,l),
(106,700,l),
(97,643,l)
);
}
);
userData = {
RMXScaler = {
height = 60;
verticalShift = 280;
width = 60;
};
};
width = 338;
},
{
layerId = "AEB41AA6-A430-455D-A6E9-A3012AD74722";
shapes = (
{
closed = 1;
nodes = (
(213,280,l),
(397,615,l),
(251,587,l),
(74,280,l)
);
},
{
closed = 1;
nodes = (
(251,587,l),
(397,615,l),
(411,700,l),
(93,700,l),
(75,587,l)
);
}
);
userData = {
RMXScaler = {
height = 60;
verticalShift = 280;
weight = -300;
width = 60;
};
};
width = 357;
}
);
metricLeft = "=seven*.7";
metricRight = "=seven*.7";
userData = {
RMXScaler = {
source = seven;
};
};
}
{
glyphname = six.numr;
layers = (
{
layerId = m01;
shapes = (
{
closed = 1;
nodes = (
(280,273,o),
(346,327,o),
(359,405,cs),
(373,486,o),
(322,546,o),
(240,546,cs),
(187,546,o),
(141,518,o),
(114,471,c),
(126,457,l),
(143,588,o),
(200,652,o),
(274,652,cs),
(297,652,o),
(327,644,o),
(350,626,c),
(388,669,l),
(358,693,o),
(315,707,o),
(271,707,cs),
(166,707,o),
(95,616,o),
(72,478,cs),
(54,370,o),
(76,273,o),
(195,273,cs)
);
},
{
closed = 1;
nodes = (
(151,327,o),
(122,359,o),
(130,406,cs),
(139,457,o),
(182,494,o),
(232,494,cs),
(279,494,o),
(306,460,o),
(298,414,cs),
(290,363,o),
(246,327,o),
(196,327,cs)
);
}
);
userData = {
RMXScaler = {
height = 60;
verticalShift = 280;
width = 60;
};
};
width = 354;
},
{
layerId = "AEB41AA6-A430-455D-A6E9-A3012AD74722";
shapes = (
{
closed = 1;
nodes = (
(294,273,o),
(358,328,o),
(371,403,cs),
(385,486,o),
(336,556,o),
(253,556,cs),
(212,556,o),
(176,534,o),
(151,496,c),
(175,477,l),
(191,569,o),
(233,600,o),
(270,600,cs),
(284,600,o),
(313,597,o),
(335,581,c),
(401,668,l),
(368,692,o),
(326,707,o),
(274,707,cs),
(142,707,o),
(78,592,o),
(57,468,cs),
(38,355,o),
(84,273,o),
(196,273,cs)
);
},
{
closed = 1;
nodes = (
(181,375,o),
(168,388,o),
(172,409,cs),
(176,435,o),
(202,459,o),
(228,459,cs),
(244,459,o),
(255,442,o),
(252,423,cs),
(248,397,o),
(223,375,o),
(198,375,cs)
);
}
);
userData = {
RMXScaler = {
height = 60;
verticalShift = 280;
weight = -300;
width = 60;
};
};
width = 366;
}
);
metricLeft = "=six*.7";
metricRight = "=six*.7";
userData = {
RMXScaler = {
source = six;
};
};
}
{
glyphname = three.numr;
layers = (
{
guides = (
{
pos = (13,280);
},
{
pos = (13,706);
}
);
layerId = m01;
shapes = (
{
closed = 1;
nodes = (
(245,273,o),
(315,318,o),
(327,392,cs),
(341,473,o),
(270,522,o),
(172,522,cs),
(159,522,l),
(151,476,l),
(170,476,ls),
(241,476,o),
(273,449,o),
(267,407,cs),
(261,362,o),
(222,328,o),
(169,328,cs),
(132,328,o),
(116,347,o),
(105,370,c),
(48,350,l),
(60,307,o),
(103,273,o),
(172,273,cs)
);
},
{
closed = 1;
nodes = (
(169,484,ls),
(260,484,o),
(339,521,o),
(351,592,cs),
(362,658,o),
(311,707,o),
(234,707,cs),
(181,707,o),
(127,682,o),
(99,636,c),
(149,610,l),
(171,639,o),
(199,652,o),
(229,652,cs),
(273,652,o),
(293,623,o),
(289,595,cs),
(283,551,o),
(237,529,o),
(174,529,cs),
(160,529,l),
(153,484,l)
);
}
);
userData = {
RMXScaler = {
height = 60;
verticalShift = 280;
width = 60;
};
};
width = 329;
},
{
layerId = "AEB41AA6-A430-455D-A6E9-A3012AD74722";
shapes = (
{
closed = 1;
nodes = (
(259,273,o),
(337,309,o),
(349,384,cs),
(362,460,o),
(278,516,o),
(190,516,cs),
(158,516,l),
(144,440,l),
(191,440,ls),
(228,440,o),
(232,424,o),
(232,418,cs),
(232,396,o),
(214,378,o),
(183,378,cs),
(152,378,o),
(155,404,o),
(154,417,c),
(33,402,l),
(28,317,o),
(95,273,o),
(190,273,cs)
);
},
{
closed = 1;
nodes = (
(191,469,ls),
(266,469,o),
(363,497,o),
(377,582,cs),
(389,652,o),
(331,707,o),
(241,707,cs),
(173,707,o),
(88,669,o),
(65,583,c),
(181,554,l),
(191,593,o),
(213,602,o),
(231,602,cs),
(241,602,o),
(255,591,o),
(255,581,cs),
(255,549,o),
(232,538,o),
(199,538,cs),
(161,538,l),
(149,469,l)
);
}
);
userData = {
RMXScaler = {
height = 60;
verticalShift = 280;
weight = -300;
width = 60;
};
};
width = 343;
}
);
userData = {
RMXScaler = {
source = three;
};
};
}
{
glyphname = two.numr;
layers = (
{
guides = (
{
pos = (9,280);
},
{
pos = (9,706);
}
);
layerId = m01;
shapes = (
{
closed = 1;
nodes = (
(116,348,o),
(150,380,o),
(189,406,cs),
(271,460,l),
(324,496,o),
(355,533,o),
(363,581,cs),
(375,653,o),
(325,707,o),
(237,707,cs),
(163,707,o),
(102,659,o),
(80,603,c),
(142,587,l),
(158,622,o),
(194,651,o),
(238,651,cs),
(280,651,o),
(305,623,o),
(300,587,cs),
(297,560,o),
(267,526,o),
(232,504,c),
(144,446,l),
(91,411,o),
(59,370,o),
(52,330,c),
(109,303,l)
);
},
{
closed = 1;
nodes = (
(318,280,l),
(327,336,l),
(99,336,l),
(52,330,l),
(43,280,l)
);
}
);
userData = {
RMXScaler = {
height = 60;
verticalShift = 280;
width = 60;
};
};
width = 359;
},
{
layerId = "AEB41AA6-A430-455D-A6E9-A3012AD74722";
shapes = (
{
closed = 1;
nodes = (
(166,356,o),
(225,396,o),
(262,416,cs),
(290,431,ls),
(348,462,o),
(390,501,o),
(400,561,cs),
(414,643,o),
(362,708,o),
(249,708,cs),
(157,708,o),
(91,651,o),
(70,584,c),
(194,557,l),
(204,581,o),
(225,599,o),
(248,599,cs),
(269,599,o),
(277,590,o),
(277,577,cs),
(277,552,o),
(240,529,o),
(210,513,cs),
(173,493,ls),
(109,459,o),
(55,405,o),
(49,369,c),
(155,279,l)
);
},
{
closed = 1;
nodes = (
(357,280,l),
(375,388,l),
(143,388,l),
(49,369,l),
(34,280,l)
);
}
);
userData = {
RMXScaler = {
height = 60;
verticalShift = 280;
weight = -300;
width = 60;
};
};
width = 373;
}
);
metricLeft = "=two*.7";
metricRight = "=two*.7";
userData = {
RMXScaler = {
source = two;
};
};
}
{
glyphname = zero.numr;
layers = (
{
layerId = m01;
shapes = (
{
closed = 1;
nodes = (
(307,273,o),
(390,361,o),
(411,486,cs),
(433,620,o),
(373,707,o),
(275,707,cs),
(179,707,o),
(97,619,o),
(76,494,cs),
(55,370,o),
(107,273,o),
(211,273,cs)
);
},
{
closed = 1;
nodes = (
(154,330,o),
(121,394,o),
(136,484,cs),
(153,585,o),
(211,651,o),
(274,651,cs),
(334,651,o),
(366,586,o),
(351,496,cs),
(335,398,o),
(277,330,o),
(213,330,cs)
);
}
);
userData = {
RMXScaler = {
height = 60;
verticalShift = 280;
width = 60;
};
};
width = 407;
},
{
layerId = "AEB41AA6-A430-455D-A6E9-A3012AD74722";
shapes = (
{
closed = 1;
nodes = (
(320,273,o),
(407,362,o),
(427,483,cs),
(449,614,o),
(383,707,o),
(269,707,cs),
(167,707,o),
(81,622,o),
(60,498,cs),
(38,366,o),
(102,273,o),
(214,273,cs)
);
},
{
closed = 1;
nodes = (
(183,385,o),
(167,425,o),
(177,483,cs),
(188,549,o),
(226,597,o),
(267,597,cs),
(303,597,o),
(320,556,o),
(310,497,cs),
(299,431,o),
(259,385,o),
(217,385,cs)
);
}
);
userData = {
RMXScaler = {
height = 60;
verticalShift = 280;
weight = -300;
width = 60;
};
};
width = 406;
}
);
metricLeft = "=zero*.7";
metricRight = "=zero*.7";
userData = {
RMXScaler = {
source = zero;
};
};
}
{
glyphname = zero.tf.zero;
layers = (
{
layerId = m01;
shapes = (
{
alignment = -1;
pos = (-9,0);
ref = zero;
},
{
closed = 1;
nodes = (
(135,125,l),
(559,529,l),
(530,576,l),
(94,159,l)
);
}
);
width = 620;
},
{
layerId = "AEB41AA6-A430-455D-A6E9-A3012AD74722";
shapes = (
{
alignment = -1;
pos = (-8,0);
ref = zero;
},
{
closed = 1;
nodes = (
(219,154,l),
(620,546,l),
(465,546,l),
(66,154,l)
);
}
);
width = 640;
}
);
}
{
glyphname = zero.zero;
layers = (
{
layerId = m01;
shapes = (
{
closed = 1;
nodes = (
(144,125,l),
(568,529,l),
(539,576,l),
(103,159,l)
);
},
{
ref = zero;
}
);
width = 638;
},
{
guides = (
{
pos = (325,546);
},
{
pos = (328,154);
}
);
layerId = "AEB41AA6-A430-455D-A6E9-A3012AD74722";
shapes = (
{
closed = 1;
nodes = (
(219,154,l),
(620,546,l),
(465,546,l),
(66,154,l)
);
},
{
ref = zero;
}
);
width = 657;
},
{
associatedMasterId = "AEB41AA6-A430-455D-A6E9-A3012AD74722";
layerId = "BE5E8306-7BA2-4AC7-9CC2-2EDC14BD4F44";
name = "16 Jun 21, 22:16";
shapes = (
{
closed = 1;
nodes = (
(558,-16,o),
(695,136,o),
(695,350,cs),
(695,564,o),
(557,716,o),
(362,716,cs),
(168,716,o),
(30,564,o),
(30,350,cs),
(30,136,o),
(168,-16,o),
(364,-16,cs)
);
},
{
closed = 1;
nodes = (
(280,164,o),
(220,241,o),
(220,350,cs),
(220,459,o),
(279,536,o),
(362,536,cs),
(446,536,o),
(505,459,o),
(505,350,cs),
(505,241,o),
(447,164,o),
(364,164,cs)
);
}
);
width = 725;
}
);
metricLeft = O;
metricRight = O;
}
